<?xml version="1.0" encoding="UTF-8" standalone="no"?>
<!-- Created with Inkscape (http://www.inkscape.org/) -->
<svg
   xmlns:svg="http://www.w3.org/2000/svg"
   xmlns="http://www.w3.org/2000/svg"
   xmlns:xlink="http://www.w3.org/1999/xlink"
   version="1.0"
   width="234.4521"
   height="274.62415"
   id="svg2780">
  <defs
     id="defs2782" />
  <g
     transform="translate(-7.1812918,-791.44064)"
     id="layer1">
    <path
       d="M 8.1812918,792.44064 L 12.407689,969.9633 C 15.426537,1096.7653 233.38814,1096.7653 236.407,969.9633 L 240.6334,792.44064 L 8.1812918,792.44064 z"
       id="path3282"
       style="fill:#da4230;fill-opacity:1;fill-rule:evenodd;stroke:none;stroke-width:2;stroke-linecap:butt;stroke-miterlimit:4;stroke-dashoffset:0;stroke-opacity:1" />
    <rect
       width="109.97334"
       height="9.8288288"
       x="68.842323"
       y="895.57983"
       id="rect3928"
       style="color:#000000;fill:#ffffff;fill-opacity:1;fill-rule:evenodd;stroke:#000000;stroke-width:1.00000024px;stroke-linecap:butt;stroke-linejoin:miter;marker:none;marker-start:none;marker-mid:none;marker-end:none;stroke-miterlimit:4;stroke-dasharray:none;stroke-dashoffset:0;stroke-opacity:1;visibility:visible;display:inline;overflow:visible;enable-background:accumulate" />
    <path
       d="M 124.39172,820.04944 C 82.310947,820.04944 60.329221,856.60697 60.329221,901.64319 C 60.329222,946.67941 86.391004,980.39319 123.54797,980.39319 C 161.05744,980.39319 188.48547,946.67941 188.48547,901.64319 C 188.48547,856.60697 166.82515,820.04944 124.39172,820.04944 z M 124.39172,834.89319 C 157.12544,834.89319 171.57922,864.8 171.57922,901.64319 C 171.57922,938.48638 153.84633,965.54944 123.57922,965.54944 C 93.664752,965.54944 77.235473,938.48638 77.235471,901.64319 C 77.235469,864.8 92.010665,834.89319 124.39172,834.89319 z"
       id="path3368"
       style="color:#000000;fill:#ffffff;fill-opacity:1;fill-rule:evenodd;stroke:#000000;stroke-width:1pt;stroke-linecap:butt;stroke-linejoin:miter;marker:none;marker-start:none;marker-mid:none;marker-end:none;stroke-miterlimit:4;stroke-dasharray:none;stroke-dashoffset:0;stroke-opacity:1;visibility:visible;display:inline;overflow:visible;enable-background:accumulate" />
    <path
       d="M 101.09676,910.65742 L 101.09676,891.19354 C 110.41592,890.68662 117.99074,883.95373 118.14572,876.5406 L 119.12571,829.66016 C 119.20045,826.0846 119.67054,822.04722 124.40735,822.04722 C 128.96783,822.04722 129.61425,826.0846 129.689,829.66016 L 130.66899,876.5406 C 130.82396,883.95373 138.39879,890.68662 147.71794,891.19354 L 147.71794,910.65742 L 101.09676,910.65742 z"
       id="rect3930"
       style="color:#000000;fill:#ffffff;fill-opacity:1;fill-rule:evenodd;stroke:#000000;stroke-width:1px;stroke-linecap:butt;stroke-linejoin:miter;marker:none;marker-start:none;marker-mid:none;marker-end:none;stroke-miterlimit:4;stroke-dashoffset:0;stroke-opacity:1;visibility:visible;display:inline;overflow:visible;enable-background:accumulate" />
    <path
       d="M 68.78125,197.65625 C 63.183563,197.68695 57.793373,199.3707 53.53125,203.03125 C 44.022363,211.19801 40.715578,220.41104 44.0625,233.59375 C 61.716811,248.57567 84.981698,257.36141 109.21875,259.9375 C 106.15977,242.61997 104.30611,225.26005 94.3125,210.125 C 88.024897,202.18475 78.110728,197.60508 68.78125,197.65625 z"
       transform="translate(0,804.33069)"
       id="path2402"
       style="color:#000000;fill:#00843f;fill-opacity:1;fill-rule:evenodd;stroke:#000000;stroke-width:1pt;stroke-linecap:butt;stroke-linejoin:miter;marker:none;marker-start:none;marker-mid:none;marker-end:none;stroke-miterlimit:4;stroke-dashoffset:0;stroke-opacity:1;visibility:visible;display:inline;overflow:visible;enable-background:accumulate" />
    <use
       transform="matrix(-1,0,0,1,248.81469,0)"
       id="use3391"
       x="0"
       y="0"
       width="248.03149"
       height="248.03149"
       xlink:href="#path2402" />
    <path
       d="M 124.40625,190.375 C 105.6423,190.375 91.34375,206.8942 91.34375,223.375 C 91.343751,237.44584 97.158816,247.99725 102.90625,259.09375 C 117.0771,261.2503 131.7354,261.2503 145.90625,259.09375 C 151.65369,247.99725 157.46875,237.44584 157.46875,223.375 C 157.46876,206.8942 143.1702,190.375 124.40625,190.375 z"
       transform="translate(0,804.33069)"
       id="path2399"
       style="color:#000000;fill:#00843f;fill-opacity:1;fill-rule:evenodd;stroke:#000000;stroke-width:1.01273937pt;stroke-linecap:butt;stroke-linejoin:miter;marker:none;marker-start:none;marker-mid:none;marker-end:none;stroke-miterlimit:4;stroke-dashoffset:0;stroke-opacity:1;visibility:visible;display:inline;overflow:visible;enable-background:accumulate" />
    <path
       d="M 8.1812918,792.44064 L 12.407689,969.9633 C 15.426537,1096.7653 233.38814,1096.7653 236.407,969.9633 L 240.6334,792.44064 L 8.1812918,792.44064 z"
       id="path3598"
       style="fill:none;fill-opacity:1;fill-rule:evenodd;stroke:#000000;stroke-width:2;stroke-linecap:butt;stroke-miterlimit:4;stroke-dashoffset:0;stroke-opacity:1" />
  </g>
</svg>
