<?xml version="1.0" encoding="utf-8"?>
<!-- Generator: Adobe Illustrator 15.0.0, SVG Export Plug-In . SVG Version: 6.00 Build 0)  -->
<!DOCTYPE svg PUBLIC "-//W3C//DTD SVG 1.1//EN" "http://www.w3.org/Graphics/SVG/1.1/DTD/svg11.dtd">
<svg version="1.1" id="Layer_1" xmlns="http://www.w3.org/2000/svg" xmlns:xlink="http://www.w3.org/1999/xlink" x="0px" y="0px"
	 width="595.28px" height="841.89px" viewBox="0 0 595.28 841.89" enable-background="new 0 0 595.28 841.89" xml:space="preserve">
<g>
	<g>
		<g>
			<path fill-rule="evenodd" clip-rule="evenodd" d="M407.005,174.094c-8.842,6.548-18.944,11.838-26.548,19.625
				c-3.016,7.374-5.871,14.906-12.697,18.468C369.462,192.687,385.527,177.661,407.005,174.094z"/>
			<path fill-rule="evenodd" clip-rule="evenodd" d="M334.282,214.495c-6.976-0.336-9.288-5.328-13.852-8.082
				c-2.987,2.968,0.97,4.895,3.464,5.773c-4.012,12.754-19.833,1.197-12.696-10.39c-0.296-2.396-5.072-0.314-5.776-2.308
				C312.476,183.951,325.896,209.675,334.282,214.495z"/>
			<path fill-rule="evenodd" clip-rule="evenodd" d="M562.841,146.39c-10.997,33.03-18.976,73.985-25.398,116.586
				c-6.347,42.112-16.544,87.668-11.545,126.975c0.735,5.783,2.448,12.031,4.618,17.315c3.468,8.457,13.269,11.511,16.171,19.624
				c3.886,10.906-0.055,31.837-1.162,45.018c-1.51,18.024-1.988,32.606-4.617,45.021c-20.492,96.757-98.958,175.978-199.695,191.616
				c-75.284,11.685-149.813-16.826-192.773-54.248c-49.955-43.526-87.73-101.284-87.73-191.624c0-7.723-2.024-18.629,0-26.552
				c1.793-7.022,11.361-12.106,13.851-17.312c11.078-23.161,4.115-57.38,1.156-88.883c-5.737-61.059-22.298-122.87-38.091-173.148
				c72.286,15.232,205.901-33.218,260.875,10.389C362.67,118.105,472.598,166.297,562.841,146.39z M343.516,181.02
				c6.658,1.271,13,8.241,18.469,6.926c7.043-7.967,9.651-20.364,13.858-31.167C359.435,159.229,351.909,170.559,343.516,181.02z
				 M136.897,176.402c-0.924,2.157-1.931,4.228-2.31,6.926c0.491,7.62,6.848,12.538,11.543,20.775
				c4.221,7.411,2.757,15.865,5.771,23.088c2.065,4.949,7.346,6.098,8.081,11.543c1.013,7.513-3.324,13.555-8.081,19.624
				c5.893,3.342,3.739,14.732,6.925,20.778c5.418,2.999,5.464-4.936,11.546-4.618c5.737,4.267,5.67,14.337,5.771,24.241
				c7.455-0.236,3.938-11.453,11.542-11.543c3.652,7.891,0.477,22.609,6.929,27.703c3.045-5.8,1.899-15.795,9.233-17.315
				c2.799,10.669,4.493,22.441,11.542,28.858c2.184-3.971,0.978-11.333,5.772-12.696c0.44,9.178-0.706,19.944,5.771,23.086
				c-0.014-5.916,3.049-15.287,6.925-20.778c-2.055-0.69-4.792,3.384-5.769,0c-1.176-13.872,5.197-20.196,13.852-24.241
				c-2.319-2.682-2.782-7.221-2.309-12.697c-23.594-18.35-53.779-30.1-75.031-50.791c-3.686-7.053-10.146-14.582-11.542-26.55
				c-2.405-20.551-0.617-37.647-21.935-35.783C131.598,170.926,137.007,170.905,136.897,176.402z M104.574,171.785
				c13.954,1.517,3.038,23.809,18.468,25.396c2.821-0.645,2.46-4.468,6.926-3.463C132.107,176.99,118.104,161.77,104.574,171.785z
				 M357.367,211.031c-2.739-4.332,1.7-11.348,2.309-16.159c-13.293-11.92-48.065-16.33-63.483-3.462
				c-19.216-7.067-35.476,6.46-58.871,1.153c1.106,11.972,10.365,15.797,16.16,23.087c-0.871,4.305-1.53,8.312,2.308,10.389
				c2.671-3.252-1.457-6.602,2.308-9.236c0.218,1.709,2.789,1.06,4.616,1.155c-0.114,4.906-2.243,9.331,3.466,10.388
				c1.399-4.637-3.058-8.445,1.152-9.233c16.519,1.234,39.373,5.987,40.402,26.548c-12.88,5.493-26.025-0.969-43.863,1.155
				c-0.45-3.015-0.594-6.334-2.31-8.081c-2.292,1.557,0.365,8.058-3.464,8.081c-5.529,0.239-12.688-1.148-15.007,2.309
				c1.419,6.279,8.373,7.019,12.699,10.386c18.523-11.382,38.957,4.244,57.72,4.618c22.718,0.453,33.366-14.02,43.857-26.549
				c-4.707,25.177-28.196,34.206-58.868,30.013c-12.806,10.219-48.921-0.516-51.944,17.315c4.133-1.713,10.978-0.582,12.699,3.462
				c-11.192,4.97-23.165,9.161-26.55,21.933c7.465-0.836,16.383-6.915,21.933,0c-9.67,5.34-22.46,7.553-21.933,23.087
				c8.305-0.171,17.929-14.847,24.242-5.772c-6.762,3.243-13.908,6.101-18.47,11.543c3.961,1.228,12.547-8.117,16.161,1.154
				c-32.694,1.896-66.114,38.834-98.119,33.476c-3.731-0.625-12.065-3.546-10.387-8.081c3.63,1.412,6.105,4.659,10.387,2.309
				c2.284-15.549,4.843-37.648-10.387-43.865c4.362,9.615-7.212,22.097-3.465,35.786c-6.923-2.447-2.705-9.958-4.616-15.007
				c-4.416-11.655-14.943-19.666-30.011-16.159c-0.49,4.72,7.838,0.622,8.079,4.617c0.058,16.933,14.438,25.497,17.316,35.783
				c-11.696-2.828-19.041-13.881-21.932-21.933c-4.333-0.601-13.865-3.29-16.159,1.153c2.432,4.878,6.365,8.255,5.769,16.163
				c5.044,10.908,21.484,3.278,26.549,13.851c-14.497-4.754-37.044-2.06-34.626,17.316c4.354-1.029,2.69-8.086,9.232-6.926
				c10.909,13.965,39.385-0.169,54.252,10.389c1.458-1.327,9.103-2.32,10.392,0c3.318,3.228-3.701,7.934,0,11.541
				c10.598,3.987,13.264-10.11,20.775-11.541c10.5-2.003,14.693,8.307,23.089,13.85c2.63-6.367-1.028-9.547-1.156-16.159
				c10.506-0.503,18.195,1.812,25.395,4.616c0.387-8.854-8.376-8.553-11.542-13.851c7.976-5.226,19.938,4.364,26.55,8.082
				c3.307-5.599-6.313-10.834-3.465-16.163c9.277,1.113,17.727,3.05,28.858,2.309c6.757-9.786,5.891-27.2,20.779-28.858
				c-13.976,7.574-7.693,35.403-28.86,35.787c7.135,13.865,22.419,24.663,39.248,28.858c16.609,4.138,27.032,19.585,40.402,23.082
				c-0.103-6.083-6.008-12.422-3.467-17.312c23.357,19.091-7.179,58.342,6.928,80.803c2.171-5.105,7.313-10.885,12.696-9.237
				c-0.137,11.377-2.382,20.766,1.155,30.014c6.764-1.32,5.715-10.453,13.851-10.387c3.446,4.592-5.218,18.294,1.157,26.552
				c5.41,2.316,6.279-8.814,15.007-6.93c-3.397,21.382,18.62,25.536,23.082,42.706c-0.988,38.936-14.626,52.4-48.476,57.717
				c-13.485,2.127-24.838,14.054-17.317,27.704c1.055-2.019,0.395-5.759,2.31-6.92c17.836,1.485,27.662-17.27,48.48-19.627
				c-8.972,10.809-46.781,19.746-26.546,38.093c3.304-0.152-1.003-7.922,2.303-8.082c21.494,4.902,21.548-24.545,36.938-25.395
				c-5.562,9.842-21.542,25.143-8.078,36.939c-0.896-6.284,1.772-9.002,3.461-12.698c17.107-2.905,21.422-18.589,20.782-39.243
				c12.01-8.863,7.672-27.162,11.542-46.176c2.861-14.022,15.378-20.782,9.234-35.78c-10.286-5.195-22.71-7.689-27.702-19.629
				c-4.248-10.125-1.753-25.967-3.467-35.776c-2.877-16.536-15.619-26.909-16.152-39.25c12.386,9.111,13.277,25.777,25.389,33.478
				c25.533,16.23,46.606-6.506,69.258-2.313c-0.74-9.07-12.315-8.814-17.312-10.393c7.239-12.005,12.536-25.938,24.237-33.475
				c-7.088-4.577-14.93,4.497-18.466,3.466c1.606-21.868,5.197-41.745,19.621-50.789c-12.959-7.624-19.255,8.426-25.393,15.004
				c-6.678-25.16,8.883-51.068,17.312-64.641c-17.071,0.241-19.393,15.236-27.702,24.241c-4.271-33.156,15.097-52.604,36.939-63.485
				c-21.363-7.404-37.676,7.864-47.324,19.62c-5.116-35.767,19.082-67.617,55.406-65.795c-5.566-7.857-15.235-8.235-24.251-8.08
				c-41.069,0.707-64.771,29.586-68.096,63.489c-5.728,58.352,39.792,85.709,43.858,136.21c0.731,9.055-2.395,17.366-5.764,20.771
				c-21.657,21.864-38.109-13.648-47.334-24.238c-9.133-10.483-22.049-18.38-32.319-28.857
				c-24.937-25.443-51.901-54.015-43.863-105.042c3.714,2.057,3.948,7.594,9.233,8.08c-1.593-8.579-3.689-19.164,1.153-25.396
				c4.354,3.347,4.65,10.75,9.233,13.854c-3.087-13.401-2.271-28.838,4.619-38.095c2.086,4.845,1.604,12.252,6.931,13.854
				c0.462-12.619,4.21-21.951,6.92-32.322c3.683,1.451,8.608,10.906,11.546,5.771c-8.398-5.837-2.283-26.189-5.772-36.938
				c-2.87-0.715-8.999,4.208-9.229-1.153c24.548-6.23,34.896-26.662,45.016-47.327C385.046,169.451,367.508,186.541,357.367,211.031
				z M84.951,193.718c2.043,1.388,8.091-1.309,10.391,2.308c0.832,3.528-1.182,4.207-1.157,6.926
				c5.383,3.084,12.199,4.73,18.471,6.926c2.405-2.212,4.81-4.425,5.77-8.082C113.197,192.617,94.717,181.34,84.951,193.718z
				 M146.13,224.884c-1.203-3.875-0.129-9.283-1.156-12.697c-10.148-33.802-45.434,8.936-19.624,21.932
				c3.487-3.053,3.258-9.825,9.237-10.389c-4.032,13.158-1.674,29.891,16.161,27.705
				C161.444,240.461,149.949,237.203,146.13,224.884z M81.49,222.577c3.943,3.367,7.303-1.244,10.386-2.309
				c-0.404,10.34,14.258,9.053,18.471,3.462C110.481,209.453,82.751,210.392,81.49,222.577z M337.748,451.13
				c3.176,2.823,6.58,8.016,9.234,5.775c-4.232-15.397-20.072-19.183-31.17-27.707C321.525,436.988,330.926,445.077,337.748,451.13z
				 M318.122,440.739c-25.257-6.792-50.05,2.809-73.877,1.155c-2.97-1.179-4.981-7.132-8.077-4.617
				c-0.449,8.145,6.699,8.696,8.077,15.01c-9.495,3.967-14.87,12.063-20.774,19.621c11.581,1.946,16.794-8.576,25.393-5.775
				c-8.057,5.413-12.575,14.364-16.16,24.243c7.631,0.301,12.728-8.02,16.16-8.073c-4.44,14.123,2.608,26.458,0,38.087
				c-3.947,17.62-40.102,33.282-57.715,30.011c-8.402-9.312-16.615-35.921-35.783-23.086c2.5,1.001,9.229-0.51,10.389,4.619
				c-4.829,35.729,47.008,24.472,61.177,45.015c5.064-5.702,11.254-10.289,20.779-11.534c12.103-16.759,29.354-28.368,48.482-38.1
				c3.346-5.065,4.778-8.718,3.465-16.155c-40.609-23.761,12.146-56.501,43.858-45.026
				C338.831,453.897,324.745,451.051,318.122,440.739z M133.433,550.4c4.236-0.798,8.776-1.982,12.698,0
				c-0.612,9.464,7.559,10.144,15.005,11.548C180.811,548.054,138.205,530.644,133.433,550.4z M169.218,559.636
				c-5.35,5.92-4.113,21.422,0,27.702c9.402,4.512,17.169-2.647,25.395-2.31c9.56,0.404,18.132,10.73,27.702,4.622
				C220.497,561.765,187.228,569.185,169.218,559.636z M128.813,578.103c4.389-0.23,4.381-4.854,9.236-4.61
				c2.551,5.525,11.246,4.913,19.624,4.61c2.141-2.473,3.086-6.148,3.462-10.381C149.768,563.043,127.879,561.102,128.813,578.103z
				 M153.058,596.577c3.722-2.052,8.304-3.236,10.387-6.926c-0.957-15.866-26.018-3.694-24.238,8.081
				c3.525,3.191,3.615-4.059,8.078-3.462C148.265,595.978,150.188,596.751,153.058,596.577z M352.752,624.281
				c9.373-0.667,13.011,11.44,28.854,5.768C383.482,614.877,352.175,611.406,352.752,624.281z"/>
		</g>
	</g>
	<path fill-rule="evenodd" clip-rule="evenodd" fill="#BA2D25" d="M267.447,230.62c8.966,5.292,24.888,3.626,30.193,12.58
		c-15.145-6.376-49.818-6.898-76.737-10.064c-10.388-1.223-24.641-6.081-28.934-10.062c-14.673-13.611,5.022-31.04,23.902-23.902
		c-0.763,4.686-6.032,4.87-5.032,11.32c9.063,10.647,24.974,14.443,41.513,17.614c0.279,0.98,1.055,1.461,2.516,1.256
		c2.954,0.402,4.722,1.989,8.807,1.259c0.836,0,1.676,0,2.516,0C266.61,230.62,267.028,230.62,267.447,230.62z"/>
</g>
</svg>
