<?xml version="1.0" encoding="UTF-8" standalone="no"?>
<!-- Created with Inkscape (http://www.inkscape.org/) -->
<svg
   xmlns:svg="http://www.w3.org/2000/svg"
   xmlns="http://www.w3.org/2000/svg"
   version="1.0"
   width="501.04358"
   height="587.2879"
   id="svg2">
  <defs
     id="defs5">
    <clipPath
       id="clipPath3249">
      <path
         d="M -0.138,841.445 L 595.138,841.445 L 595.138,-0.445 L -0.138,-0.445 L -0.138,841.445 z"
         id="path3251" />
    </clipPath>
    <clipPath
       id="clipPath3255">
      <path
         d="M 0.029999,841.95 L 595.29,841.95 L 595.29,0.03 L 0.029999,0.03 L 0.029999,841.95 z"
         id="path3257" />
    </clipPath>
  </defs>
  <path
     d="M 1.5450321,1.4799401 C 1.5450321,115.42504 1.5450321,229.37014 1.5450321,343.31524 C -1.3725879,459.22004 94.168832,567.64594 212.27036,582.64404 C 323.63262,601.32154 442.10396,535.53014 481.67666,432.18364 C 510.93486,359.63304 494.41546,279.48354 498.77136,203.33354 C 498.77136,136.06234 498.77136,68.75114 498.77136,1.4799401 C 333.04294,1.4799401 167.27343,1.4799401 1.5450321,1.4799401 z M 9.7636421,9.4788401 C 170.02667,9.4788401 330.28971,9.4788401 490.55276,9.4788401 C 490.55276,57.99254 490.55276,106.46614 490.55276,154.97984 C 487.14196,228.45024 495.56606,302.28054 487.84056,375.55104 C 475.88246,490.93594 362.3012,582.16404 243.99421,577.64464 C 118.08501,577.80464 6.0241721,465.89924 9.7636421,343.31524 C 9.7636421,232.04974 9.7636421,120.74434 9.7636421,9.4788401 z"
     id="path2244"
     style="fill:#000000;fill-opacity:1;fill-rule:nonzero;stroke:#000000;stroke-width:2.95988011;stroke-linecap:round;stroke-linejoin:miter;stroke-miterlimit:4;stroke-dasharray:none;stroke-dashoffset:0;stroke-opacity:1" />
  <path
     d="M 225.71022,580.21694 C 141.05982,571.43284 61.027452,509.44694 26.083462,430.16874 C 8.8235721,391.01084 9.3925621,398.54104 8.3765921,195.84734 L 7.4548421,7.9573401 L 250.10151,7.9573401 L 492.74816,7.9573401 L 491.71686,193.28434 C 490.79776,354.88914 490.19596,376.70164 486.18396,393.82934 C 469.97316,463.03544 421.42046,523.37024 353.85652,556.33264 C 339.76043,563.20974 318.42407,571.17544 306.44239,574.03424 C 284.74112,579.21214 245.20506,582.23984 225.71022,580.21694 L 225.71022,580.21694 z"
     id="path3488"
     style="opacity:1;fill:#f9d100;fill-opacity:1;fill-rule:nonzero;stroke:none;stroke-width:0.5;stroke-linecap:square;stroke-linejoin:miter;stroke-miterlimit:4;stroke-dasharray:none;stroke-opacity:1" />
  <g
     transform="matrix(0.8859951,0,0,0.8859951,-514.24947,-1059.1563)"
     id="g3749">
    <path
       d="M 764.16956,1430.1354 C 703.84254,1432.7464 725.26243,1459.9109 667.27945,1456.4513 C 668.32248,1467.8915 668.71498,1479.657 679.24116,1486.3556 C 679.00398,1490.5589 681.38464,1493.4533 683.38801,1496.5364 C 685.50207,1493.8781 687.52327,1490.7555 690.00673,1489.9441 C 689.43105,1492.778 691.05486,1494.8786 692.77108,1496.9485 C 694.63172,1493.4124 696.49234,1491.0827 698.35299,1489.0946 C 706.98169,1494.4198 720.91357,1494.178 722.14156,1502.4635 C 695.73972,1495.5567 660.76081,1511.1863 656.87292,1479.0058 C 637.65572,1498.0909 652.4872,1513.8953 693.01023,1509.175 L 693.6218,1517.6554 C 691.80315,1517.3965 690.19425,1518.2372 690.31202,1520.8082 C 690.25295,1525.8584 698.47763,1527.4743 702.92402,1528.3667 C 715.43573,1530.8779 729.28804,1523.0302 739.59527,1526.1347 C 755.82873,1528.617 771.25043,1532.7228 782.64282,1544.8872 L 775.49275,1544.2757 C 758.03827,1546.9052 770.71476,1556.3758 717.51876,1573.6764 L 715.09942,1588.723 C 711.56804,1575.3342 712.42406,1561.9455 704.36083,1548.5567 C 704.57273,1536.6049 693.05434,1536.3834 682.19114,1535.5067 C 683.84606,1539.3748 689.5853,1542.8663 689.09932,1548.3877 C 683.38824,1544.9639 677.34548,1541.9824 669.98615,1540.7563 C 673.31371,1545.3774 678.4364,1549.2806 679.29989,1554.8874 C 674.18679,1552.7717 670.29416,1549.4356 661.00471,1551.4963 C 663.53745,1553.1203 671.15115,1558.6954 672.28633,1561.3718 C 666.22883,1560.7206 659.44326,1560.9037 652.85681,1562.3683 C 658.26674,1566.2655 664.29313,1568.873 666.97948,1572.2255 C 659.29033,1572.2639 654.34891,1574.265 650.52238,1577.0624 C 663.07832,1580.6719 662.33508,1585.5947 668.24142,1585.8309 C 669.16744,1594.6248 684.0318,1598.1903 696.61633,1621.5739 C 702.95383,1626.8632 715.95972,1623.3537 719.11992,1616.6999 C 719.45409,1615.9964 720.68433,1616.619 721.4872,1616.6885 C 739.6319,1618.2582 754.12662,1604.9433 795.27009,1596.4037 C 798.43734,1587.3405 795.54554,1576.5461 795.27009,1566.4993 C 806.87535,1586.1228 798.538,1621.209 812.01655,1645.4468 L 825.17447,1652.6239 C 810.1861,1652.3798 784.50536,1640.8278 776.60672,1637.4992 C 775.70928,1637.121 775.44905,1635.9208 774.92835,1635.0702 C 770.97948,1628.6196 756.86138,1629.9353 750.29231,1632.4914 C 753.32542,1633.0496 766.54304,1638.0183 765.44747,1640.0859 C 763.54344,1643.6791 747.3022,1638.0973 741.65917,1644.5942 C 747.94493,1646.2372 754.43248,1647.7289 758.57627,1650.9784 C 748.41413,1651.9216 742.37127,1655.5129 739.96628,1661.4428 C 745.73855,1662.0618 752.42923,1660.3848 757.20468,1663.4959 C 751.61201,1665.3686 744.43578,1666.5606 739.9484,1675.049 C 745.41798,1674.0958 750.88754,1672.3179 756.35711,1674.5101 C 751.38161,1677.0312 747.67537,1681.1389 747.11407,1689.1778 C 751.90926,1684.9984 754.85549,1684.5806 762.37371,1683.1242 C 775.22613,1695.1817 823.11911,1680.6132 843.11707,1678.9397 C 851.92085,1671.2108 846.46953,1660.6309 847.90178,1651.4277 C 860.55266,1620.2838 863.26629,1585.1651 868.23674,1550.9491 C 869.99768,1561.3574 872.73374,1572.0095 868.23674,1580.8534 C 884.74604,1587.1594 898.45621,1579.47 913.5025,1578.461 C 908.69915,1598.796 907.65611,1619.131 907.71049,1639.466 L 926.8493,1653.82 C 910.11968,1654.7678 891.63446,1624.1774 862.22312,1632.6439 C 869.95634,1636.0938 877.49605,1637.8307 882.3237,1641.7648 C 874.68269,1643.3733 864.39424,1642.9228 860.93185,1647.7813 C 866.60207,1648.477 872.46789,1648.3903 877.65906,1651.0022 C 871.41543,1653.5235 865.00795,1655.7717 860.26071,1660.787 L 878.73583,1662.4584 C 872.74652,1666.4508 864.1522,1668.0986 862.85308,1676.3122 C 869.4295,1673.6631 873.69792,1673.7837 877.73001,1674.1878 C 874.08111,1677.1652 868.46881,1681.911 867.42838,1689.1865 C 872.71243,1687.0754 877.68845,1683.1163 883.43506,1683.7807 C 904.35324,1689.1591 924.16756,1681.6102 945.98808,1683.7244 C 962.73037,1667.7888 946.29986,1626.9736 981.3157,1595.8461 C 967.42997,1581.8522 958.10394,1561.0188 947.18426,1542.5758 C 956.46116,1545.0159 960.63274,1558.7379 962.17185,1561.2076 C 979.325,1588.7329 1000.7526,1609.5042 1020.043,1624.6082 C 1018.6759,1630.1634 1017.8785,1635.7185 1008.6119,1641.2737 C 1001.316,1642.6588 994.97136,1645.2775 988.96657,1648.315 C 982.47508,1651.5986 974.8296,1654.5961 975.72869,1665.3914 C 980.12967,1662.5502 984.53062,1658.0853 988.9316,1658.0493 C 983.66977,1664.6603 983.34677,1670.7773 983.14323,1676.8824 C 987.60206,1672.9188 992.06089,1667.4243 996.51972,1666.2796 C 993.27437,1674.0621 995.40406,1680.3089 995.39932,1687.1655 C 999.06793,1682.0866 1000.6761,1676.5956 1006.6523,1671.9782 C 1005.2558,1679.1262 1007.224,1686.2742 1008.2245,1693.4222 C 1012.5738,1686.9186 1015.616,1678.0622 1022.3097,1675.7786 C 1021.6949,1684.6257 1024.1045,1690.4482 1026.5182,1696.2668 C 1029.7649,1688.2134 1031.9825,1679.3881 1040.6325,1675.3872 C 1042.5022,1675.0663 1044.0672,1673.6271 1044.2169,1670.3131 C 1045.6575,1651.4806 1057.6526,1632.6481 1064.3554,1613.8156 C 1035.2438,1579.2457 1061.1536,1554.3907 1035.7012,1509.0829 L 1047.6629,1513.8676 C 1053.1513,1487.3424 1027.0943,1442.3595 974.72323,1444.0398 C 950.06608,1446.097 928.16251,1454.544 906.8523,1450.9425 C 871.62081,1444.9882 839.12847,1433.2045 802.44715,1455.2551 C 805.03763,1449.541 815.89946,1437.7112 802.44715,1428.9393 C 791.24739,1417.4161 785.60809,1430.9148 777.32749,1432.5278 C 778.98742,1424.7974 779.3438,1417.5016 766.56192,1414.5852 C 756.33463,1418.1737 758.78245,1421.7622 755.79635,1425.3507 L 764.16956,1430.1354 z"
       id="path2384"
       style="fill:#1b1a1c;fill-opacity:1;fill-rule:evenodd;stroke:#1b1a1c;stroke-width:2.31579375px;stroke-linecap:butt;stroke-linejoin:miter;stroke-opacity:1" />
    <path
       d="M 776.59898,1444.7323 C 775.44451,1451.6675 782.24172,1451.6951 783.83399,1448.5517 C 786.37187,1441.5374 789.79284,1435.8399 792.81729,1430.2853 C 786.30547,1432.5807 776.79189,1439.4587 776.59898,1444.7323 z"
       id="path3156"
       style="fill:#f9d100;fill-opacity:1;fill-rule:evenodd;stroke:#1b1a1c;stroke-width:2.31579375px;stroke-linecap:butt;stroke-linejoin:miter;stroke-opacity:1" />
    <path
       d="M 722.00408,1453.6545 C 723.87971,1451.8671 726.24941,1452.9409 730.39156,1454.206 C 728.17122,1456.5886 727.86811,1458.9795 730.82721,1460.5368 C 735.79607,1461.4103 737.53868,1458.7883 735.43233,1455.2039 C 739.4163,1455.0622 742.93124,1456.6224 744.3994,1458.7892 C 745.59912,1460.6063 745.79379,1462.5112 745.29482,1463.0698 C 742.94715,1466.2659 742.62397,1462.3166 741.48213,1460.6271 C 739.4704,1466.5225 736.80751,1467.6257 731.94601,1467.5032 C 724.75837,1466.9112 723.97873,1462.7428 723.45189,1458.0921 C 721.2307,1457.2867 720.55768,1456.0134 722.00408,1453.6545 z"
       id="path3158"
       style="fill:#f9d100;fill-opacity:1;fill-rule:evenodd;stroke:none;stroke-width:1px;stroke-linecap:butt;stroke-linejoin:miter;stroke-opacity:1" />
    <path
       d="M 924.27242,1574.5191 C 935.38995,1571.1081 946.88471,1567.8156 956.33391,1561.1676 L 963.98738,1572.8492 C 952.09865,1576.105 937.88303,1574.7071 924.27242,1574.5191 z"
       id="path3160"
       style="fill:#d8201f;fill-opacity:1;fill-rule:evenodd;stroke:#1b1a1c;stroke-width:1.15789688;stroke-linecap:butt;stroke-linejoin:miter;stroke-miterlimit:4;stroke-dasharray:none;stroke-opacity:1" />
    <path
       d="M 696.60828,1508.8947 C 698.10013,1511.289 698.07241,1514.5997 700.76976,1515.3866 C 700.87102,1513.1443 700.6727,1511.0517 701.60205,1508.3953 L 696.60828,1508.8947 z"
       id="path3162"
       style="fill:#d8201f;fill-opacity:1;fill-rule:evenodd;stroke:#1b1a1c;stroke-width:2.31579375px;stroke-linecap:butt;stroke-linejoin:miter;stroke-opacity:1" />
    <path
       d="M 706.09647,1507.8959 L 722.4095,1508.8947 C 721.62148,1510.7146 717.54154,1511.9859 714.25298,1513.3891 C 707.36087,1514.539 706.97479,1511.0416 706.09647,1507.8959 z"
       id="path3164"
       style="fill:#d8201f;fill-opacity:1;fill-rule:evenodd;stroke:#1b1a1c;stroke-width:2.31579375px;stroke-linecap:butt;stroke-linejoin:miter;stroke-opacity:1" />
    <path
       d="M 655.32631,1483.2599 C 660.0994,1509.5506 695.75467,1499.1008 721.07783,1503.0686 L 721.41075,1506.5642 C 701.87948,1505.6078 684.01284,1510.3432 664.48157,1507.7295 C 648.55695,1502.3495 648.70942,1493.5018 655.32631,1483.2599 z"
       id="path3166"
       style="fill:#d8201f;fill-opacity:1;fill-rule:evenodd;stroke:#1b1a1c;stroke-width:1.15789688;stroke-linecap:butt;stroke-linejoin:miter;stroke-miterlimit:4;stroke-dasharray:none;stroke-opacity:1" />
    <path
       d="M -45.564513,40.627321 L -49.552321,56.435292 L -56.229288,41.562072 L -72.495862,42.654373 L -60.413886,31.708123 L -66.479373,16.575231 L -52.335335,24.683296 L -39.817438,14.238353 L -43.157918,30.195663 L -29.355945,38.873226 L -45.564513,40.627321 z"
       transform="matrix(2.6769648,2.3674922,-2.3674922,2.6769648,1082.6553,1370.2213)"
       id="path3172"
       style="opacity:1;fill:#1b1a1c;fill-opacity:1;fill-rule:nonzero;stroke:none;stroke-width:4;stroke-linecap:square;stroke-linejoin:miter;stroke-miterlimit:4;stroke-dasharray:none;stroke-opacity:1" />
    <path
       d="M -45.564513,40.627321 L -49.552321,56.435292 L -56.229288,41.562072 L -72.495862,42.654373 L -60.413886,31.708123 L -66.479373,16.575231 L -52.335335,24.683296 L -39.817438,14.238353 L -43.157918,30.195663 L -29.355945,38.873226 L -45.564513,40.627321 z"
       transform="matrix(2.4212595,2.1413477,-2.1413477,2.4212595,1061.7083,1366.9341)"
       id="path3174"
       style="opacity:1;fill:#d8201f;fill-opacity:1;fill-rule:nonzero;stroke:none;stroke-width:4;stroke-linecap:square;stroke-linejoin:miter;stroke-miterlimit:4;stroke-dasharray:none;stroke-opacity:1" />
    <path
       d="M 654.40136,1577.5336 C 659.86538,1574.9345 665.32473,1572.3634 669.78694,1575.7752 C 670.14785,1578.3069 668.27686,1580.5511 666.92929,1582.0577 C 663.45025,1578.9792 659.9167,1577.897 654.40136,1577.5336 z"
       id="path3376"
       style="fill:#d8201f;fill-opacity:1;fill-rule:evenodd;stroke:#1b1a1c;stroke-width:1.15789688;stroke-linecap:butt;stroke-linejoin:miter;stroke-miterlimit:4;stroke-dasharray:none;stroke-opacity:1" />
    <path
       d="M 658.35766,1563.4668 C 664.77193,1563.7374 671.91532,1561.0235 676.12427,1565.3897 C 677.17883,1568.8768 673.52446,1570.4018 670.66613,1572.2585 C 668.53379,1567.7109 662.46699,1565.4888 658.35766,1563.4668 z"
       id="path3378"
       style="fill:#d8201f;fill-opacity:1;fill-rule:evenodd;stroke:#1b1a1c;stroke-width:1.15789688;stroke-linecap:butt;stroke-linejoin:miter;stroke-miterlimit:4;stroke-dasharray:none;stroke-opacity:1" />
    <path
       d="M 666.70983,1552.9167 C 670.81152,1556.4636 675.35835,1558.7567 677.93749,1563.5216 C 679.68087,1562.5907 682.08815,1561.0412 682.49863,1558.7774 C 679.85024,1553.2967 672.70922,1554.0411 666.70983,1552.9167 z"
       id="path3380"
       style="fill:#d8201f;fill-opacity:1;fill-rule:evenodd;stroke:#1b1a1c;stroke-width:1.15789688;stroke-linecap:butt;stroke-linejoin:miter;stroke-miterlimit:4;stroke-dasharray:none;stroke-opacity:1" />
    <path
       d="M 676.43495,1545.2599 C 680.87253,1549.2401 683.83151,1552.1567 685.53873,1557.8433 C 688.26179,1557.011 689.69989,1555.3644 690.37421,1552.8248 C 686.59446,1547.9651 681.90561,1547.0759 676.43495,1545.2599 z"
       id="path3382"
       style="fill:#d8201f;fill-opacity:1;fill-rule:evenodd;stroke:#1b1a1c;stroke-width:1.15789688;stroke-linecap:butt;stroke-linejoin:miter;stroke-miterlimit:4;stroke-dasharray:none;stroke-opacity:1" />
    <path
       d="M 688.92654,1538.9959 C 692.16813,1542.9159 694.50313,1546.3572 695.02657,1550.9567 C 697.72562,1550.8534 699.20539,1549.5308 700.55809,1548.0812 C 697.6162,1542.7814 694.2394,1538.5377 688.92654,1538.9959 z"
       id="path3384"
       style="fill:#d8201f;fill-opacity:1;fill-rule:evenodd;stroke:#1b1a1c;stroke-width:1.15789688;stroke-linecap:butt;stroke-linejoin:miter;stroke-miterlimit:4;stroke-dasharray:none;stroke-opacity:1" />
    <path
       d="M 750.67113,1683.4743 C 752.27048,1678.0964 755.86754,1675.1156 761.22123,1674.2429 C 762.60399,1676.5874 762.83838,1678.9319 761.22123,1681.2763 C 757.70452,1679.4855 754.18782,1682.1414 750.67113,1683.4743 z"
       id="path3386"
       style="fill:#d8201f;fill-opacity:1;fill-rule:evenodd;stroke:#1b1a1c;stroke-width:1.15789688;stroke-linecap:butt;stroke-linejoin:miter;stroke-miterlimit:4;stroke-dasharray:none;stroke-opacity:1" />
    <path
       d="M 743.39048,1672.6974 C 748.89447,1672.1799 754.39846,1670.4527 759.90246,1671.6054 C 762.40354,1669.511 761.04352,1667.0306 759.90246,1664.572 C 754.28045,1666.3363 748.64716,1668.0104 743.39048,1672.6974 z"
       id="path3388"
       style="fill:#d8201f;fill-opacity:1;fill-rule:evenodd;stroke:#1b1a1c;stroke-width:1.15789688;stroke-linecap:butt;stroke-linejoin:miter;stroke-miterlimit:4;stroke-dasharray:none;stroke-opacity:1" />
    <path
       d="M 743.62053,1659.0702 C 749.16892,1656.8415 752.35774,1652.4465 761.41358,1654.7774 C 762.97855,1658.3705 760.78165,1660.0296 759.90246,1662.374 C 754.47514,1659.7742 749.04785,1659.9933 743.62053,1659.0702 z"
       id="path3390"
       style="fill:#d8201f;fill-opacity:1;fill-rule:evenodd;stroke:#1b1a1c;stroke-width:1.15789688;stroke-linecap:butt;stroke-linejoin:miter;stroke-miterlimit:4;stroke-dasharray:none;stroke-opacity:1" />
    <path
       d="M 747.52194,1644.3681 C 754.57938,1642.4917 758.68,1643.197 765.73743,1644.2273 C 766.06546,1646.9674 764.8986,1649.4583 762.97957,1651.8239 C 758.68509,1647.0505 752.84621,1646.3955 747.52194,1644.3681 z"
       id="path3392"
       style="fill:#d8201f;fill-opacity:1;fill-rule:evenodd;stroke:#1b1a1c;stroke-width:1.15789688;stroke-linecap:butt;stroke-linejoin:miter;stroke-miterlimit:4;stroke-dasharray:none;stroke-opacity:1" />
    <path
       d="M 756.71562,1632.3585 C 761.25576,1634.9145 764.88945,1635.7239 768.74578,1639.9894 C 771.259,1639.3028 772.92525,1638.4039 773.23089,1636.6135 C 768.78061,1630.9291 762.61958,1632.2283 756.71562,1632.3585 z"
       id="path3394"
       style="fill:#d8201f;fill-opacity:1;fill-rule:evenodd;stroke:#1b1a1c;stroke-width:1.15789688;stroke-linecap:butt;stroke-linejoin:miter;stroke-miterlimit:4;stroke-dasharray:none;stroke-opacity:1" />
    <path
       d="M 869.37538,1633.1492 C 874.12537,1635.2333 879.05789,1636.4047 883.42668,1640.3947 C 884.8254,1639.0426 886.15927,1637.6581 884.30586,1634.68 C 879.32903,1632.4086 874.3522,1633.0504 869.37538,1633.1492 z"
       id="path3396"
       style="fill:#d8201f;fill-opacity:1;fill-rule:evenodd;stroke:#1b1a1c;stroke-width:1.15789688;stroke-linecap:butt;stroke-linejoin:miter;stroke-miterlimit:4;stroke-dasharray:none;stroke-opacity:1" />
    <path
       d="M 867.3614,1645.6697 C 872.56997,1645.3628 877.77853,1642.2852 882.9871,1645.6697 C 883.96728,1646.9885 883.59768,1648.3072 881.66833,1649.626 C 877.53195,1647.0421 872.25836,1646.7325 867.3614,1645.6697 z"
       id="path3398"
       style="fill:#d8201f;fill-opacity:1;fill-rule:evenodd;stroke:#1b1a1c;stroke-width:1.15789688;stroke-linecap:butt;stroke-linejoin:miter;stroke-miterlimit:4;stroke-dasharray:none;stroke-opacity:1" />
    <path
       d="M 865.80255,1659.5525 C 871.27141,1659.2871 876.92342,1658.8384 880.78916,1660.1761 C 881.93746,1658.5643 882.36899,1656.4848 880.63328,1654.873 C 872.88692,1652.4946 870.60119,1657.8779 865.80255,1659.5525 z"
       id="path3400"
       style="fill:#d8201f;fill-opacity:1;fill-rule:evenodd;stroke:#1b1a1c;stroke-width:1.15789688;stroke-linecap:butt;stroke-linejoin:miter;stroke-miterlimit:4;stroke-dasharray:none;stroke-opacity:1" />
    <path
       d="M 865.67474,1672.6124 C 871.16198,1671.6537 876.7116,1671.4557 880.1937,1672.1011 C 880.65454,1670.3177 881.45796,1667.6364 879.90997,1665.4512 C 875.16488,1665.501 870.4198,1669.3962 865.67474,1672.6124 z"
       id="path3402"
       style="fill:#d8201f;fill-opacity:1;fill-rule:evenodd;stroke:#1b1a1c;stroke-width:1.15789688;stroke-linecap:butt;stroke-linejoin:miter;stroke-miterlimit:4;stroke-dasharray:none;stroke-opacity:1" />
    <path
       d="M 871.78537,1684.977 C 875.95885,1682.9707 879.19703,1681.8415 883.37052,1681.8001 C 885.83166,1680.3348 883.27435,1676.9989 881.30039,1675.5336 C 877.34921,1677.4341 874.17226,1678.3836 871.78537,1684.977 z"
       id="path3404"
       style="fill:#d8201f;fill-opacity:1;fill-rule:evenodd;stroke:#1b1a1c;stroke-width:1.15789688;stroke-linecap:butt;stroke-linejoin:miter;stroke-miterlimit:4;stroke-dasharray:none;stroke-opacity:1" />
    <path
       d="M 978.16564,1661.735 C 982.48566,1658.1474 986.80571,1655.5311 991.12572,1654.0219 C 992.52329,1652.146 990.61632,1650.6843 989.21149,1650.0094 C 982.25619,1651.1561 978.158,1656.6712 978.16564,1661.735 z"
       id="path3406"
       style="fill:#d8201f;fill-opacity:1;fill-rule:evenodd;stroke:#1b1a1c;stroke-width:1.15789688;stroke-linecap:butt;stroke-linejoin:miter;stroke-miterlimit:4;stroke-dasharray:none;stroke-opacity:1" />
    <path
       d="M 985.85067,1671.5899 C 989.80695,1667.828 993.76325,1664.5129 997.71953,1662.8136 C 998.45719,1660.127 997.33428,1658.474 994.33065,1657.8659 C 990.84225,1660.3263 985.56778,1665.612 985.85067,1671.5899 z"
       id="path3408"
       style="fill:#d8201f;fill-opacity:1;fill-rule:evenodd;stroke:#1b1a1c;stroke-width:1.15789688;stroke-linecap:butt;stroke-linejoin:miter;stroke-miterlimit:4;stroke-dasharray:none;stroke-opacity:1" />
    <path
       d="M 997.50752,1680.5656 C 1000.7375,1675.4906 1003.8365,1670.2408 1008.2696,1666.7699 C 1006.6256,1664.8914 1002.3814,1664.2993 999.49341,1665.3233 C 996.88934,1670.1883 996.37146,1675.2851 997.50752,1680.5656 z"
       id="path3410"
       style="fill:#d8201f;fill-opacity:1;fill-rule:evenodd;stroke:#1b1a1c;stroke-width:1.15789688;stroke-linecap:butt;stroke-linejoin:miter;stroke-miterlimit:4;stroke-dasharray:none;stroke-opacity:1" />
    <path
       d="M 1009.816,1671.1377 C 1007.6476,1676.1365 1008.2,1684.176 1008.7247,1688.7899 C 1012.2363,1682.4808 1015.7478,1677.6198 1019.2594,1673.8033 C 1017.5373,1670.6813 1013.1679,1670.5927 1009.816,1671.1377 z"
       id="path3412"
       style="fill:#d8201f;fill-opacity:1;fill-rule:evenodd;stroke:#1b1a1c;stroke-width:1.15789688;stroke-linecap:butt;stroke-linejoin:miter;stroke-miterlimit:4;stroke-dasharray:none;stroke-opacity:1" />
    <path
       d="M 1025.3855,1676.3286 C 1024.1266,1681.8452 1025.6365,1685.7005 1026.2927,1690.0681 C 1028.1587,1685.7409 1030.1959,1681.7562 1032.8866,1679.0784 C 1031.6907,1675.8138 1028.6258,1675.9134 1025.3855,1676.3286 z"
       id="path3414"
       style="fill:#d8201f;fill-opacity:1;fill-rule:evenodd;stroke:#1b1a1c;stroke-width:1.15789688;stroke-linecap:butt;stroke-linejoin:miter;stroke-miterlimit:4;stroke-dasharray:none;stroke-opacity:1" />
  </g>
</svg>
