<?xml version="1.0" encoding="utf-8"?>
<!-- Generator: Adobe Illustrator 14.0.0, SVG Export Plug-In . SVG Version: 6.00 Build 43363)  -->
<!DOCTYPE svg PUBLIC "-//W3C//DTD SVG 1.1//EN" "http://www.w3.org/Graphics/SVG/1.1/DTD/svg11.dtd">
<svg version="1.1"
	 id="svg20" xmlns:cc="http://creativecommons.org/ns#" sodipodi:docbase="C:\Documents and Settings\Steve\Bureau\Blason Villages Suisse pour Wikipédia (par Delta-9)" xmlns:svg="http://www.w3.org/2000/svg" xmlns:rdf="http://www.w3.org/1999/02/22-rdf-syntax-ns#" xmlns:sodipodi="http://sodipodi.sourceforge.net/DTD/sodipodi-0.dtd" xmlns:inkscape="http://www.inkscape.org/namespaces/inkscape" inkscape:version="0.46" sodipodi:docname="Swiss_Size01-coat_of_arms.svg" sodipodi:version="0.32" xmlns:dc="http://purl.org/dc/elements/1.1/" inkscape:output_extension="org.inkscape.output.svg.inkscape"
	 xmlns="http://www.w3.org/2000/svg" xmlns:xlink="http://www.w3.org/1999/xlink" x="0px" y="0px" width="603px" height="763px"
	 viewBox="0 0 603 763" enable-background="new 0 0 603 763" xml:space="preserve">
<defs>
	
	
		<inkscape:perspective  inkscape:vp_z="603 : 381.5 : 1" sodipodi:type="inkscape:persp3d" inkscape:persp3d-origin="301.5 : 254.33333 : 1" inkscape:vp_y="0 : 1000 : 0" inkscape:vp_x="0 : 381.5 : 1" id="perspective28">
		</inkscape:perspective>
	
		<inkscape:perspective  inkscape:vp_z="612 : 396 : 1" sodipodi:type="inkscape:persp3d" inkscape:persp3d-origin="306 : 264 : 1" inkscape:vp_y="0 : 1000 : 0" inkscape:vp_x="0 : 396 : 1" id="perspective2471">
		</inkscape:perspective>
</defs>
<sodipodi:namedview  inkscape:window-x="20" inkscape:window-y="42" inkscape:current-layer="layer2" showgrid="false" showguides="true" inkscape:guide-bbox="true" gridtolerance="10.0" guidetolerance="10.0" objecttolerance="10.0" inkscape:pageopacity="0.0" inkscape:pageshadow="2" inkscape:window-height="691" inkscape:window-width="939" borderopacity="1.0" bordercolor="#666666" pagecolor="#ffffff" inkscape:zoom="0.58540973" inkscape:cx="258.12561" inkscape:cy="389.51387" id="base">
	<sodipodi:guide  orientation="horizontal" position="761.5" id="guide1885"></sodipodi:guide>
	<sodipodi:guide  orientation="vertical" position="1.5" id="guide1887"></sodipodi:guide>
	<sodipodi:guide  orientation="horizontal" position="1.5" id="guide1889"></sodipodi:guide>
	<sodipodi:guide  orientation="vertical" position="601.5" id="guide1891"></sodipodi:guide>
	<sodipodi:guide  orientation="vertical" position="301.50081" id="guide1893"></sodipodi:guide>
</sodipodi:namedview>
<desc  id="desc22">Coat of Arms of Canton of Freiburg (Fribourg)</desc>
<g id="layer1" inkscape:groupmode="layer" inkscape:label="Fond écu" sodipodi:insensitive="true">
	<path id="path1899_1_" fill="#2B5DF2" d="M1.5,1.5v458.868c0,166.311,134.314,301.132,300,301.132
		c165.686,0,300-134.821,300-301.132V1.5H1.5z"/>
</g>
<g id="layer2" inkscape:groupmode="layer" inkscape:label="Meubles" sodipodi:insensitive="true">
	<path fill="#FCEF3C" stroke="#000000" stroke-width="3" d="M62.008,442.532c-20.902,27.444-22.407,98.717,37.409,144.274
		c59.817,45.554,128.128,25.159,149.029-2.288c20.906-27.45,28.172-68.147-3.682-92.402c-19.19-14.617-38.306-16.248-50.475-15.247
		l45.274-16.402l-13.596-10.354l143.169-187.991l9.84,7.494l18.537-24.342l9.842,7.496l-18.537,24.34l68.36,52.065l24.849-32.629
		l-14.502-11.044l-12.422,16.312l-10.877-8.281l19.917-26.154l25.376,19.327l14.988-19.68l-39.877-30.369l-20.511,26.928
		l-7.764-5.916l20.507-26.928l-16.573-12.622l2.962-3.883l2.363-3.109l3.154-4.14l16.573,12.62l20.509-26.932l7.771,5.917
		l-20.514,26.929l39.878,30.368l14.988-19.677l-25.375-19.326l19.919-26.155l10.874,8.283l-12.425,16.314l14.501,11.042
		l24.85-32.625l-68.361-52.065l-18.538,24.343l-9.839-7.494l18.536-24.342l-9.841-7.491l15.606-20.494
		c1.09-1.432-0.123-4.264-2.749-6.877c5.064-0.245,9.992-2.635,13.307-6.985c5.954-7.819,4.441-18.984-3.373-24.937
		c-7.817-5.953-18.982-4.443-24.938,3.376c-3.313,4.352-4.308,9.739-3.193,14.686c-3.222-1.837-6.273-2.254-7.361-0.822
		l-261.92,343.909l-13.701-10.435l-3.775,48.004c-2.269-11.997-8.922-29.987-28.116-44.604
		C120.214,397.26,82.912,415.081,62.008,442.532z M85.559,460.604c15.578-20.458,36.823-23.1,57.02-7.72
		c20.194,15.383,12.694,44.038,12.694,44.038l8.028,6.112l7.974,6.072c0,0,25.626-14.847,45.825,0.531
		c20.202,15.386,23.296,36.564,7.716,57.023c-15.574,20.456-52.687,20.831-67.964,9.198c-15.004-11.425-24.098-28.684-23.331-33.782
		c-4.771,2.127-23.763-2.086-38.768-13.508C79.477,516.934,69.979,481.06,85.559,460.604z"/>
	<path fill="#FCEF3C" stroke="#000000" stroke-width="3" d="M450.698,421.518c-19.194,14.616-25.848,32.606-28.116,44.604
		l-3.775-48.004l-13.701,10.435L143.186,84.643c-1.088-1.433-4.14-1.016-7.361,0.822c1.114-4.946,0.12-10.334-3.194-14.686
		c-5.956-7.819-17.12-9.329-24.937-3.376c-7.815,5.953-9.328,17.118-3.374,24.937c3.314,4.351,8.242,6.741,13.307,6.985
		c-2.626,2.614-3.839,5.445-2.749,6.877l15.606,20.494l-9.84,7.491l18.537,24.342l-9.839,7.494l-18.538-24.343l-68.362,52.065
		l24.85,32.625l14.501-11.042l-12.424-16.314l10.874-8.283l19.919,26.155l-25.376,19.326l14.989,19.677l39.878-30.368
		l-20.514-26.929l7.771-5.917l20.509,26.932l16.573-12.62l3.154,4.14l2.364,3.109l2.961,3.883l-16.574,12.622l20.507,26.928
		l-7.764,5.916l-20.51-26.928l-39.877,30.369l14.988,19.68l25.376-19.327l19.917,26.154l-10.876,8.281l-12.422-16.312
		l-14.501,11.044l24.848,32.629l68.361-52.065l-18.537-24.34l9.841-7.496l18.538,24.342l9.839-7.494l143.169,187.991l-13.596,10.354
		l45.274,16.402c-12.169-1.001-31.284,0.63-50.475,15.247c-31.854,24.255-24.588,64.952-3.682,92.402
		c20.901,27.447,89.212,47.842,149.029,2.288c59.816-45.558,58.312-116.83,37.409-144.274
		C519.849,415.081,482.547,397.26,450.698,421.518z M508.008,528.569c-15.005,11.422-33.996,15.635-38.768,13.508
		c0.767,5.099-8.327,22.357-23.331,33.782c-15.277,11.633-52.39,11.258-67.964-9.198c-15.58-20.459-12.486-41.638,7.716-57.023
		c20.199-15.378,45.825-0.531,45.825-0.531l7.974-6.072l8.028-6.112c0,0-7.5-28.655,12.694-44.038
		c20.196-15.38,41.441-12.738,57.02,7.72C532.781,481.06,523.284,516.934,508.008,528.569z"/>
</g>
<g id="layer3" inkscape:groupmode="layer" inkscape:label="Reflet final" sodipodi:insensitive="true">
	
		<radialGradient id="path2346_1_" cx="857.2461" cy="186.1196" r="299.9998" gradientTransform="matrix(1.215 0 0 -1.2667 -838.2247 479.8444)" gradientUnits="userSpaceOnUse">
		<stop  offset="0" style="stop-color:#FFFFFF;stop-opacity:0.3137"/>
		<stop  offset="0.19" style="stop-color:#FFFFFF;stop-opacity:0.251"/>
		<stop  offset="0.6" style="stop-color:#6B6B6B;stop-opacity:0.1255"/>
		<stop  offset="1" style="stop-color:#000000;stop-opacity:0.1255"/>
	</radialGradient>
	<path id="path2346" fill="url(#path2346_1_)" d="M1.5,1.5v458.868c0,166.311,134.314,301.132,300,301.132s300-134.821,300-301.132
		V1.5H1.5z"/>
</g>
<g id="layer4" inkscape:groupmode="layer" inkscape:label="Contour final" sodipodi:insensitive="true">
	<path id="path3239" fill="none" stroke="#000000" stroke-width="3" d="M1.5,1.5v458.868c0,166.311,134.314,301.132,300,301.132
		s300-134.821,300-301.132V1.5H1.5z"/>
</g>
</svg>
