<?xml version="1.0" encoding="UTF-8" standalone="no"?>
<!-- Created with Inkscape (http://www.inkscape.org/) -->

<svg
   xmlns:dc="http://purl.org/dc/elements/1.1/"
   xmlns:cc="http://creativecommons.org/ns#"
   xmlns:rdf="http://www.w3.org/1999/02/22-rdf-syntax-ns#"
   xmlns:svg="http://www.w3.org/2000/svg"
   xmlns="http://www.w3.org/2000/svg"
   version="1.1"
   width="700"
   height="800"
   id="svg2">
  <defs
     id="defs4" />
  <metadata
     id="metadata7">
    <rdf:RDF>
      <cc:Work
         rdf:about="">
        <dc:format>image/svg+xml</dc:format>
        <dc:type
           rdf:resource="http://purl.org/dc/dcmitype/StillImage" />
        <dc:title></dc:title>
      </cc:Work>
    </rdf:RDF>
  </metadata>
  <g
     transform="translate(0,-252.4)"
     id="layer1">
    <path
       d="m 682.8,275.1 0,436.4 C 682.8,919.9 500.9,1033 361.9,1033 222.9,1033 40.73,919.9 40.73,711.5 l 0,-436.4 z"
       id="path4049-3-2-9"
       style="fill:#fd312f;fill-opacity:1;stroke:#000000;stroke-width:11.0963;stroke-linecap:butt;stroke-linejoin:miter;stroke-miterlimit:4;stroke-opacity:1;stroke-dasharray:none" />
    <path
       d="m 361.8,275.1 0,757.9 c 0,0 0.1,0 0.1,0 139,0 320.9,-113.1 320.9,-321.5 l 0,-436.4 -321,0 z"
       id="path4049-3-2-9-6"
       style="fill:#000000;stroke:#000000;stroke-width:11.0963;stroke-linecap:butt;stroke-linejoin:miter;stroke-miterlimit:4;stroke-opacity:1;stroke-dasharray:none" />
    <path
       d="m 396.4,337.3 c -89.3,1.1 -153.8,120.6 -153.8,155.4 0,35.1 22.7,78 45,113.8 -33,27 -55.7,57 -55.7,87.8 0,35.9 24.1,65.8 49.8,65.8 21.9,0 27.6,-15.3 32.5,-28.1 1.2,-3.3 -3.2,-8.7 -6,-11.5 -3.4,10.4 -8,23.6 -26.5,23.6 -18.1,0 -27.3,-19.6 -27.3,-44.1 0,-25.4 17.8,-48.8 49.1,-66.9 22.6,33 52,73.3 52,117.7 0,19.4 -4.8,38.2 -19.1,53.2 l -36,0.2 c -17.1,0.1 -27.2,6.3 -33.3,17.8 l -33.2,63 c -2.7,5.1 -4.6,10.2 -4.6,15.3 0,11.2 9.8,22.4 22,22.4 10.8,0 13.9,-5.7 14.8,-12.2 -8.2,-2 -18.5,-3.6 -16.1,-13.2 6.7,-27.7 23.5,-24.9 38.8,-24.9 58.7,0.1 97.4,33.9 135.2,70.3 l 76.1,-103.2 -13.4,-16.7 -32,33.7 C 427.1,830 397.9,807.2 359.4,805.5 386,772.5 408.5,739.1 405.7,694.3 402.8,650.6 388,612 369.4,574 c 48.8,-40.9 105.5,-96.7 105.5,-153.5 0,-50.3 -21.1,-83.9 -78.5,-83.2 z m -46.3,45.2 c 27,0.1 78.4,32.3 78.4,74.4 0,27.8 -36.5,70.1 -68.5,94.6 l -37.7,-89.3 c -4,-9.4 -5.5,-19 -6.1,-30 -0.9,-18.7 5.7,-49.8 33.9,-49.7 z"
       id="path4779"
       style="fill:#fed71c;fill-opacity:1;stroke:#000000;stroke-width:8.8771;stroke-linecap:butt;stroke-linejoin:miter;stroke-miterlimit:4;stroke-opacity:1;stroke-dasharray:none" />
  </g>
</svg>
