<?xml version="1.0" encoding="UTF-8" standalone="no"?>
<!-- Created with Inkscape (http://www.inkscape.org/) -->

<svg
   xmlns:dc="http://purl.org/dc/elements/1.1/"
   xmlns:cc="http://creativecommons.org/ns#"
   xmlns:rdf="http://www.w3.org/1999/02/22-rdf-syntax-ns#"
   xmlns:svg="http://www.w3.org/2000/svg"
   xmlns="http://www.w3.org/2000/svg"
   version="1.1"
   width="1316"
   height="1500"
   id="svg2">
  <metadata
     id="metadata8">
    <rdf:RDF>
      <cc:Work
         rdf:about="">
        <dc:format>image/svg+xml</dc:format>
        <dc:type
           rdf:resource="http://purl.org/dc/dcmitype/StillImage" />
        <dc:title></dc:title>
      </cc:Work>
    </rdf:RDF>
  </metadata>
  <defs
     id="defs6" />
  <g
     transform="translate(4,0)"
     id="g2987">
    <path
       d="M 0,750 0,0 l 658,0 658,0 0,750 0,750 -658,0 -658,0 0,-750 z"
       id="path3003"
       style="fill:#fdfdfd" />
    <path
       d="m 622,1499.3764 c -1.375,-0.1782 -11.05,-0.7705 -21.5,-1.3163 -35.50134,-1.8542 -82.10343,-10.0288 -123.37807,-21.6421 C 291.79418,1424.2731 136.74303,1293.7778 56.011542,1122 33.961021,1075.0816 16.771706,1021.5638 7.512038,971 4.2480308,953.17639 3.1906428,944.87215 1.0106884,919.9414 0.34821987,912.36517 0,751.89691 0,454.1914 L 0,0 l 658,0 658,0 0.017,453.25 c 0.012,314.51605 -0.3128,457.53522 -1.0599,467.25 -5.3511,69.57561 -26.9067,144.9304 -61.0727,213.5 -72.0187,144.5379 -197.2118,258.8287 -350.64599,320.1101 -29.97485,11.972 -71.66127,24.6869 -103.22501,31.4851 -50.19752,10.8115 -89.0779,14.5836 -147.0131,14.2629 -15.675,-0.087 -29.625,-0.3035 -31,-0.4817 z M 1166.7538,1242.25 c 15.1705,-18.2892 39.5065,-53.6345 54.2211,-78.75 10.5112,-17.941 29.1336,-55.584 37.3507,-75.5 7.9978,-19.3848 17.226,-46.083 22.6614,-65.5623 2.2925,-8.2157 4.3888,-15.7259 4.6585,-16.6893 0.4665,-1.6665 -14.5904,-1.7394 -309.82761,-1.5 L 665.5,1004.5 l -0.25732,120 c -0.14153,66 -0.0432,120.5625 0.21861,121.25 0.37899,0.9954 51.08409,1.25 248.91421,1.25 l 248.4383,0 3.94,-4.75 z m 135.0002,-611 0.254,-121.25 -318.504,0 -318.504,0 0,120.83333 c 0,66.45834 0.3007,121.13404 0.66822,121.50156 0.36752,0.36752 143.58002,0.55502 318.25,0.41666 L 1301.5,752.5 l 0.254,-121.25 z m 0,-495.00155 0.2539,-122.251556 L 983.75397,14.248447 665.5,14.5 l -0.25731,121 c -0.14152,66.55 -0.0429,121.5632 0.21922,122.25156 0.38042,0.99917 64.55727,1.20082 318.2573,1 L 1301.5,258.5 l 0.254,-122.25155 z"
       id="path3001"
       style="fill:#fdf300" />
    <path
       d="m 622,1499.3764 c -1.375,-0.1782 -11.05,-0.7705 -21.5,-1.3163 -35.50134,-1.8542 -82.10343,-10.0288 -123.37807,-21.6421 C 291.79418,1424.2731 136.74303,1293.7778 56.011542,1122 33.961021,1075.0816 16.771706,1021.5638 7.512038,971 4.2480308,953.17639 3.1906428,944.87215 1.0106884,919.9414 0.34821987,912.36517 0,751.89691 0,454.1914 L 0,0 l 658,0 658,0 0.017,453.25 c 0.012,314.51605 -0.3128,457.53522 -1.0599,467.25 -5.3511,69.57561 -26.9067,144.9304 -61.0727,213.5 -72.0187,144.5379 -197.2118,258.8287 -350.64599,320.1101 -29.97485,11.972 -71.66127,24.6869 -103.22501,31.4851 -50.19752,10.8115 -89.0779,14.5836 -147.0131,14.2629 -15.675,-0.087 -29.625,-0.3035 -31,-0.4817 z M 649.5,750 l 0,-735.5 -317.5,0 -317.5,0 0,449.5 c 0,428.61571 0.08452,450.17369 1.819063,464 8.508984,67.82629 25.329116,126.9948 53.159464,187 42.845233,92.3789 112.772713,177.8563 197.021473,240.8335 95.26239,71.21 207.27639,114.849 325.22915,126.7046 17.94667,1.8038 42.50257,3.2653 51.77085,3.0811 l 6,-0.1192 0,-735.5 z m -501.04784,415.7359 c -0.26778,-0.6978 -0.36656,-12.9614 -0.21952,-27.2523 L 148.5,1112.5 l 207.39468,-0.2524 c 153.92763,-0.1873 207.74829,0.041 208.76633,0.886 1.11102,0.9221 1.32105,6.1007 1.10533,27.2524 L 565.5,1166.5 l -208.28048,0.2524 c -167.52985,0.2029 -208.37574,0 -208.76736,-1.0165 z m 31.29784,-64.816 c -1.56266,-0.9102 -1.75,-2.9195 -1.75,-18.7696 0,-12.4725 0.35681,-18.1071 1.2,-18.9503 0.92425,-0.9243 41.68734,-1.2 177.39301,-1.2 159.74249,0 176.24968,0.1477 176.8,1.5818 0.33385,0.87 0.60699,9.4041 0.60699,18.9648 0,16.1626 -0.1358,17.4557 -1.93426,18.4182 -2.67264,1.4304 -349.85885,1.3861 -352.31574,-0.045 z M 210,1052.0212 c -1.31692,-0.8324 -1.52847,-14.9865 -1.73329,-115.96351 -0.14532,-71.6433 0.12864,-115.96735 0.72651,-117.53985 l 0.9598,-2.52446 147.27349,0.25331 L 504.5,816.5 l 0.25416,116.89252 c 0.18602,85.55058 -0.0479,117.25648 -0.87244,118.24998 -1.55062,1.8684 -81.81976,2.0195 -83.68172,0.1575 -0.91192,-0.9119 -1.2,-19.1348 -1.2,-75.90678 l 0,-74.70679 -2.8565,-6.34321 c -5.52267,-12.2638 -21.83894,-30.05362 -32.6435,-35.5916 -15.59826,-7.99505 -37.8251,-8.10996 -50.67843,-0.26202 -17.88197,10.91832 -27.79532,20.98253 -33.3942,33.90236 L 296,900.80089 l 0,74.89955 c 0,56.92186 -0.28803,75.18756 -1.2,76.09956 -1.49878,1.4988 -82.4448,1.7099 -84.8,0.2212 z M 312.2,1051.8 c -0.9118,-0.9118 -1.19717,-18.8645 -1.18823,-74.75 l 0.0118,-73.55 3.73824,-6.61079 c 12.54563,-22.18604 30.13656,-31.745 50.62254,-27.50841 13.95413,2.88578 27.79865,13.33815 35.41926,26.74093 l 3.19643,5.62172 0,75.02129 c 0,67.48706 -0.15885,75.08226 -1.58179,75.62826 -0.86998,0.3339 -21.25498,0.607 -45.3,0.607 -32.66972,0 -44.02147,-0.3033 -44.91821,-1.2 z M 191.03518,805.06574 c -1.31215,-2.45179 -1.3593,-24.08305 -0.0599,-27.50064 L 191.9505,775 l 163.98957,0 c 161.10822,0 164.00775,0.034 165.02475,1.93426 1.49204,2.78791 1.3518,27.34912 -0.16482,28.86574 -0.92356,0.92356 -38.92551,1.2 -164.96482,1.2 -160.88601,0 -163.78301,-0.034 -164.8,-1.93426 z M 209.75,764.9199 c -1.64528,-0.95829 -1.75,-6.1851 -1.75,-87.34715 0,-71.45639 0.23368,-86.5218 1.35648,-87.45364 0.99485,-0.82565 40.51676,-1.05824 148.25,-0.87244 L 504.5,589.5 l 0.25555,86.89085 c 0.18637,63.36737 -0.0498,87.2588 -0.87244,88.25 -0.94148,1.1344 -25.20861,1.35412 -146.75555,1.32874 -97.0556,-0.0203 -146.21125,-0.37037 -147.37756,-1.04969 z m 166.0123,-105.14776 0.2623,-36.72786 -2.2623,-0.55732 c -1.24427,-0.30652 -9.9123,-0.42898 -19.2623,-0.27214 l -17,0.28518 -0.26219,37.27164 -0.2622,37.27163 19.2622,-0.27163 L 375.5,696.5 375.7623,659.77214 z M 191.31529,578.75 c -1.26807,-1.9746 -1.61536,-24.90703 -0.42402,-28 l 1.05923,-2.75 163.82475,0 c 126.08592,0 164.10118,0.27643 165.02475,1.2 1.66924,1.66924 1.66924,27.93076 0,29.6 -1.79031,1.79031 -328.33469,1.74076 -329.48471,-0.05 z m 18.35138,-41.41667 C 209.3,536.96667 209,494.71481 209,443.44032 c 0,-84.08774 0.15506,-93.28584 1.58179,-93.83333 0.86998,-0.33385 67.15498,-0.60699 147.3,-0.60699 112.00305,0 145.99586,0.27765 146.91821,1.2 1.73975,1.73975 1.73975,184.86025 0,186.6 -0.92242,0.92242 -35.11852,1.2 -147.83333,1.2 -80.64834,0 -146.93334,-0.3 -147.3,-0.66667 z M 376,420 l 0,-37 -19.5,0 -19.5,0 0,36.33333 c 0,19.98334 0.3,36.63334 0.66667,37 0.36666,0.36667 9.14166,0.66667 19.5,0.66667 L 376,457 376,420 z M 190.97525,336.4349 C 190.43886,335.0241 190,328.97839 190,323 c 0,-5.97839 0.43886,-12.0241 0.97525,-13.4349 L 191.9505,307 l 163.98957,0 c 161.10822,0 164.00775,0.034 165.02475,1.93426 1.49204,2.78791 1.3518,27.34912 -0.16482,28.86574 -0.92357,0.92357 -38.93883,1.2 -165.02475,1.2 l -163.82475,0 -0.97525,-2.5651 z M 166.66667,297.33333 C 166.3,296.96667 166,268.22177 166,233.45578 c 0,-52.26252 0.23699,-63.40757 1.36826,-64.34644 0.97716,-0.81097 11.33876,-1.06035 36.25,-0.87245 L 238.5,168.5 239,198 l 0.5,29.5 37.75,0.26203 c 20.7625,0.14411 37.84541,0.14411 37.96202,0 0.1166,-0.14412 0.4541,-13.53703 0.75,-29.76203 l 0.53798,-29.5 39,-0.26362 c 35.77651,-0.24183 39.10332,-0.12272 40.25,1.44113 0.93042,1.2689 1.25,8.94239 1.25,30.01362 L 397,228 l 38,0 38,0 0,-28.8 c 0,-21.06667 0.32222,-29.12222 1.2,-30 1.71956,-1.71956 69.88044,-1.71956 71.6,0 1.73403,1.73403 1.73403,125.86597 0,127.6 -0.92485,0.92485 -44.45185,1.2 -189.83333,1.2 -103.74834,0 -188.93334,-0.3 -189.3,-0.66667 z M 1166.7538,1242.25 c 15.1705,-18.2892 39.5065,-53.6345 54.2211,-78.75 10.5112,-17.941 29.1336,-55.584 37.3507,-75.5 7.9978,-19.3848 17.226,-46.083 22.6614,-65.5623 2.2925,-8.2157 4.3888,-15.7259 4.6585,-16.6893 0.4665,-1.6665 -14.5904,-1.7394 -309.82761,-1.5 L 665.5,1004.5 l -0.25732,120 c -0.14153,66 -0.0432,120.5625 0.21861,121.25 0.37899,0.9954 51.08409,1.25 248.91421,1.25 l 248.4383,0 3.94,-4.75 z m 135.0002,-611 0.254,-121.25 -318.504,0 -318.504,0 0,120.83333 c 0,66.45834 0.3007,121.13404 0.66822,121.50156 0.36752,0.36752 143.58002,0.55502 318.25,0.41666 L 1301.5,752.5 l 0.254,-121.25 z m 0,-495.00155 0.2539,-122.251556 L 983.75397,14.248447 665.5,14.5 l -0.25731,121 c -0.14152,66.55 -0.0429,121.5632 0.21922,122.25156 0.38042,0.99917 64.55727,1.20082 318.2573,1 L 1301.5,258.5 l 0.254,-122.25155 z"
       id="path2999"
       style="fill:#a4a2a0" />
    <path
       d="m 627.5,1499.4095 c -67.40185,-4.0105 -122.09625,-14.2482 -181,-33.8796 C 212.29959,1387.4758 38.916366,1184.3993 5.0687741,948.5 -0.31352063,910.98834 0,941.66584 0,452.52844 L 0,0 l 658.01064,0 658.01066,0 -0.2873,458.75 -0.2873,458.75 -2.6822,19 c -10.219,72.3892 -27.6302,130.3154 -57.7107,192 -76.8643,157.6222 -215.7658,279.0621 -384.43931,336.1109 -51.40089,17.3848 -99.35528,27.4046 -157.61449,32.9329 -15.44845,1.4659 -71.61946,2.6917 -85.5,1.8657 z M 649.5,750 l 0,-735.5 -317.5,0 -317.5,0 0,449.5 c 0,428.61571 0.08452,450.17369 1.819063,464 8.508984,67.82629 25.329116,126.9948 53.159464,187 42.845233,92.3789 112.772713,177.8563 197.021473,240.8335 95.26239,71.21 207.27639,114.849 325.22915,126.7046 17.94667,1.8038 42.50257,3.2653 51.77085,3.0811 l 6,-0.1192 0,-735.5 z m -501.04784,415.7359 c -0.26778,-0.6978 -0.36656,-12.9614 -0.21952,-27.2523 L 148.5,1112.5 l 207.39468,-0.2524 c 153.92763,-0.1873 207.74829,0.041 208.76633,0.886 1.11102,0.9221 1.32105,6.1007 1.10533,27.2524 L 565.5,1166.5 l -208.28048,0.2524 c -167.52985,0.2029 -208.37574,0 -208.76736,-1.0165 z m 31.29784,-64.816 c -1.56266,-0.9102 -1.75,-2.9195 -1.75,-18.7696 0,-12.4725 0.35681,-18.1071 1.2,-18.9503 0.92425,-0.9243 41.68734,-1.2 177.39301,-1.2 159.74249,0 176.24968,0.1477 176.8,1.5818 0.33385,0.87 0.60699,9.4041 0.60699,18.9648 0,16.1626 -0.1358,17.4557 -1.93426,18.4182 -2.67264,1.4304 -349.85885,1.3861 -352.31574,-0.045 z M 210,1052.0212 c -1.31692,-0.8324 -1.52847,-14.9865 -1.73329,-115.96351 -0.14532,-71.6433 0.12864,-115.96735 0.72651,-117.53985 l 0.9598,-2.52446 147.27349,0.25331 L 504.5,816.5 l 0.25416,116.89252 c 0.18602,85.55058 -0.0479,117.25648 -0.87244,118.24998 -1.55062,1.8684 -81.81976,2.0195 -83.68172,0.1575 -0.91192,-0.9119 -1.2,-19.1348 -1.2,-75.90678 l 0,-74.70679 -2.8565,-6.34321 c -5.52267,-12.2638 -21.83894,-30.05362 -32.6435,-35.5916 -15.59826,-7.99505 -37.8251,-8.10996 -50.67843,-0.26202 -17.88197,10.91832 -27.79532,20.98253 -33.3942,33.90236 L 296,900.80089 l 0,74.89955 c 0,56.92186 -0.28803,75.18756 -1.2,76.09956 -1.49878,1.4988 -82.4448,1.7099 -84.8,0.2212 z M 312.2,1051.8 c -0.9118,-0.9118 -1.19717,-18.8645 -1.18823,-74.75 l 0.0118,-73.55 3.73824,-6.61079 c 12.54563,-22.18604 30.13656,-31.745 50.62254,-27.50841 13.95413,2.88578 27.79865,13.33815 35.41926,26.74093 l 3.19643,5.62172 0,75.02129 c 0,67.48706 -0.15885,75.08226 -1.58179,75.62826 -0.86998,0.3339 -21.25498,0.607 -45.3,0.607 -32.66972,0 -44.02147,-0.3033 -44.91821,-1.2 z M 191.03518,805.06574 c -1.31215,-2.45179 -1.3593,-24.08305 -0.0599,-27.50064 L 191.9505,775 l 163.98957,0 c 161.10822,0 164.00775,0.034 165.02475,1.93426 1.49204,2.78791 1.3518,27.34912 -0.16482,28.86574 -0.92356,0.92356 -38.92551,1.2 -164.96482,1.2 -160.88601,0 -163.78301,-0.034 -164.8,-1.93426 z M 209.75,764.9199 c -1.64528,-0.95829 -1.75,-6.1851 -1.75,-87.34715 0,-71.45639 0.23368,-86.5218 1.35648,-87.45364 0.99485,-0.82565 40.51676,-1.05824 148.25,-0.87244 L 504.5,589.5 l 0.25555,86.89085 c 0.18637,63.36737 -0.0498,87.2588 -0.87244,88.25 -0.94148,1.1344 -25.20861,1.35412 -146.75555,1.32874 -97.0556,-0.0203 -146.21125,-0.37037 -147.37756,-1.04969 z m 166.0123,-105.14776 0.2623,-36.72786 -2.2623,-0.55732 c -1.24427,-0.30652 -9.9123,-0.42898 -19.2623,-0.27214 l -17,0.28518 -0.26219,37.27164 -0.2622,37.27163 19.2622,-0.27163 L 375.5,696.5 375.7623,659.77214 z M 191.31529,578.75 c -1.26807,-1.9746 -1.61536,-24.90703 -0.42402,-28 l 1.05923,-2.75 163.82475,0 c 126.08592,0 164.10118,0.27643 165.02475,1.2 1.66924,1.66924 1.66924,27.93076 0,29.6 -1.79031,1.79031 -328.33469,1.74076 -329.48471,-0.05 z m 18.35138,-41.41667 C 209.3,536.96667 209,494.71481 209,443.44032 c 0,-84.08774 0.15506,-93.28584 1.58179,-93.83333 0.86998,-0.33385 67.15498,-0.60699 147.3,-0.60699 112.00305,0 145.99586,0.27765 146.91821,1.2 1.73975,1.73975 1.73975,184.86025 0,186.6 -0.92242,0.92242 -35.11852,1.2 -147.83333,1.2 -80.64834,0 -146.93334,-0.3 -147.3,-0.66667 z M 376,420 l 0,-37 -19.5,0 -19.5,0 0,36.33333 c 0,19.98334 0.3,36.63334 0.66667,37 0.36666,0.36667 9.14166,0.66667 19.5,0.66667 L 376,457 376,420 z M 190.97525,336.4349 C 190.43886,335.0241 190,328.97839 190,323 c 0,-5.97839 0.43886,-12.0241 0.97525,-13.4349 L 191.9505,307 l 163.98957,0 c 161.10822,0 164.00775,0.034 165.02475,1.93426 1.49204,2.78791 1.3518,27.34912 -0.16482,28.86574 -0.92357,0.92357 -38.93883,1.2 -165.02475,1.2 l -163.82475,0 -0.97525,-2.5651 z M 166.66667,297.33333 C 166.3,296.96667 166,268.22177 166,233.45578 c 0,-52.26252 0.23699,-63.40757 1.36826,-64.34644 0.97716,-0.81097 11.33876,-1.06035 36.25,-0.87245 L 238.5,168.5 239,198 l 0.5,29.5 37.75,0.26203 c 20.7625,0.14411 37.84541,0.14411 37.96202,0 0.1166,-0.14412 0.4541,-13.53703 0.75,-29.76203 l 0.53798,-29.5 39,-0.26362 c 35.77651,-0.24183 39.10332,-0.12272 40.25,1.44113 0.93042,1.2689 1.25,8.94239 1.25,30.01362 L 397,228 l 38,0 38,0 0,-28.8 c 0,-21.06667 0.32222,-29.12222 1.2,-30 1.71956,-1.71956 69.88044,-1.71956 71.6,0 1.73403,1.73403 1.73403,125.86597 0,127.6 -0.92485,0.92485 -44.45185,1.2 -189.83333,1.2 -103.74834,0 -188.93334,-0.3 -189.3,-0.66667 z M 1173.6509,1235.25 c 37.1772,-47.7048 65.5114,-96.6911 88.0412,-152.2124 6.7797,-16.7074 18.063,-50.3711 22.4128,-66.8685 2.7467,-10.4171 3.0296,-12.4712 1.8232,-13.2347 -2.3339,-1.477 -619.24947,-1.213 -620.7281,0.2656 -0.92012,0.9201 -1.2,29.4519 -1.2,122.3333 0,66.6234 0.3,121.4334 0.66667,121.8 0.36666,0.3667 112.80245,0.6667 249.8573,0.6667 l 249.19063,0 9.9363,-12.75 z M 1302.5,631 l 0,-122.5 -317,-0.27294 c -174.35,-0.15012 -318.0125,-0.029 -319.25,0.26905 l -2.25,0.54199 0,121.81429 c 0,66.99785 0.3007,122.11497 0.66821,122.48249 0.36752,0.36752 144.03002,0.55502 319.25,0.41667 L 1302.5,753.5 l 0,-122.5 z m 0,-494.5 0,-123 -319,0 -319,0 -0.25729,122 c -0.14151,67.1 -0.0429,122.5632 0.21921,123.25155 0.38042,0.99918 64.75725,1.20083 319.25729,1 L 1302.5,259.5 l 0,-123 z"
       id="path2997"
       style="fill:#aca313" />
    <path
       d="m 627.5,1499.4095 c -67.40185,-4.0105 -122.09625,-14.2482 -181,-33.8796 C 212.29959,1387.4758 38.916366,1184.3993 5.0687741,948.5 -0.31352063,910.98834 0,941.66584 0,452.52844 L 0,0 l 658.01064,0 658.01066,0 -0.2873,458.75 -0.2873,458.75 -2.6822,19 c -10.219,72.3892 -27.6302,130.3154 -57.7107,192 -76.8643,157.6222 -215.7658,279.0621 -384.43931,336.1109 -51.40089,17.3848 -99.35528,27.4046 -157.61449,32.9329 -15.44845,1.4659 -71.61946,2.6917 -85.5,1.8657 z M 650.5,750 l 0,-736.5 -318.5,0 -318.5,0 0,450.5 0,450.5 2.327952,18 c 8.835547,68.3175 26.558172,128.528 55.657413,189.0894 79.722275,165.9182 232.434815,292.6328 412.014635,341.8726 51.39924,14.0934 117.43079,23.7414 158.5,23.1586 l 8.5,-0.1206 0,-736.5 z m -501.04845,414.7343 c -0.26813,-0.6987 -0.36691,-12.5123 -0.21953,-26.2523 L 149.5,1113.5 l 206.39466,-0.2524 c 153.22914,-0.1874 206.74814,0.041 207.76689,0.8865 1.10973,0.921 1.32117,5.9426 1.10533,26.2524 L 564.5,1165.5 l -207.28048,0.2524 c -166.86129,0.2031 -207.37553,0 -207.76797,-1.0181 z M 180.75,1099.9199 c -1.55714,-0.907 -1.74831,-2.8597 -1.73469,-17.7196 0.008,-9.1852 0.37326,-17.2641 0.81075,-17.9531 0.63336,-0.9975 36.64321,-1.2013 176.73468,-1 L 532.5,1063.5 l 0.27467,17.4954 c 0.24445,15.571 0.0859,17.6334 -1.44113,18.75 -2.22959,1.6303 -347.78876,1.8023 -350.58354,0.1745 z m 29.71122,-49.1699 c -0.26181,-0.6875 -0.36019,-53.45 -0.21862,-117.25 l 0.2574,-116 146.5,0 146.5,0 0.25419,116.4384 c 0.2019,92.4902 -0.004,116.6022 -1,117.2347 -2.16235,1.3729 -80.16506,1.016 -81.55419,-0.3731 -0.91186,-0.9119 -1.20019,-19.1009 -1.20079,-75.75 l -7.9e-4,-74.55 -3.02393,-6.39207 c -3.51168,-7.42306 -14.79618,-21.96411 -22.23643,-28.65353 -6.84632,-6.15543 -15.04999,-10.16504 -24.49583,-11.97255 -15.16357,-2.90161 -28.228,-1.25714 -38.24223,4.8137 -18.06796,10.9532 -26.74836,19.71775 -33.1512,33.47259 l -3.8488,8.26813 0,74.78187 c 0,56.83036 -0.28806,75.06996 -1.2,75.98186 -1.77305,1.7731 -82.66303,1.7245 -83.33878,-0.05 z m 102.57338,-0.6853 c -0.69386,-1.2965 -0.95305,-25.9712 -0.78518,-74.75005 L 312.5,902.5 315.6991,897 c 6.11298,-10.50963 13.92657,-18.7873 21.1631,-22.42006 18.27386,-9.17354 36.70161,-5.91213 52.43875,9.2808 3.75699,3.62706 8.37622,9.13856 10.26497,12.24777 l 3.43408,5.65311 0,74.5122 c 0,67.02288 -0.15899,74.57318 -1.58179,75.11918 -0.86998,0.3339 -20.87915,0.607 -44.46481,0.607 -41.38204,0 -42.91929,-0.068 -43.9188,-1.9353 z M 192.22327,791.25 192.5,776.5 l 163,-0.25698 c 152.3594,-0.2402 163.0816,-0.14612 164.25,1.44113 1.30312,1.77028 1.82921,23.64289 0.64301,26.73406 C 519.84293,805.85169 504.41716,806 355.86628,806 l -163.91975,0 0.27674,-14.75 z M 210.2,763.8 c -1.87722,-1.87722 -1.72383,-171.12037 0.1565,-172.68091 0.99482,-0.82563 40.25618,-1.05825 147.25,-0.87244 L 503.5,590.5 l 0.25559,86.43753 c 0.20252,68.48883 -0.005,86.60306 -1,87.23469 -0.69057,0.43843 -66.52809,0.80405 -146.30559,0.81247 C 244.94951,764.99646 211.12244,764.72244 210.2,763.8 z m 166.562,-104.02794 0.26201,-37.72793 -2.26201,-0.55661 c -1.2441,-0.30614 -10.362,-0.42857 -20.262,-0.27207 l -18,0.28455 -0.26257,36.99604 c -0.14442,20.34783 -0.0424,37.56987 0.22675,38.27122 0.37874,0.98697 4.95827,1.21388 20.26258,1.00396 L 376.5,697.5 376.762,659.77206 z M 192.4382,577.69955 c -0.27447,-0.71525 -0.37284,-7.35275 -0.21861,-14.75 L 192.5,549.5 l 163,-0.25698 c 152.3594,-0.2402 163.0816,-0.14612 164.25,1.44113 1.69648,2.30465 1.73912,25.42673 0.05,27.11585 -1.8357,1.8357 -326.65708,1.73603 -327.3618,-0.10045 z M 210.46065,535.75 c -0.26212,-0.6875 -0.3605,-42.65 -0.21862,-93.25 l 0.25797,-92 145.8935,-0.25335 c 106.99382,-0.18581 146.25518,0.0468 147.25,0.87244 1.12378,0.93265 1.3565,16.70292 1.3565,91.92157 0,49.93767 -0.27314,91.50757 -0.60699,92.37755 C 503.84334,536.85063 489.95903,537 357.36163,537 241.14295,537 210.83892,536.74214 210.46065,535.75 z m 166.3017,-115.68335 c 0.20523,-29.28253 -0.0125,-37.60783 -1,-38.23468 -2.12529,-1.34914 -37.17974,-1.01458 -38.56235,0.36803 -0.88966,0.88966 -1.2,10.67407 -1.2,37.83333 0,20.14834 0.30923,36.94257 0.68718,37.32052 0.37795,0.37795 9.49045,0.56545 20.25,0.41667 L 376.5,457.5 376.76235,420.06665 z M 192.4382,336.69955 c -0.27447,-0.71525 -0.37284,-7.35275 -0.21861,-14.75 L 192.5,308.5 l 163,-0.25698 c 152.3594,-0.2402 163.0816,-0.14612 164.25,1.44113 1.30312,1.77028 1.82921,23.64289 0.64301,26.73406 C 519.84294,337.85167 504.46081,338 356.36163,338 223.16322,338 192.84493,337.75948 192.4382,336.69955 z M 167.66667,296.33333 C 167.3,295.96667 167,267.67177 167,233.45578 c 0,-51.42582 0.23728,-62.40781 1.36868,-63.3468 0.97644,-0.81037 11.0785,-1.0604 35.25,-0.87244 L 237.5,169.5 238,199 l 0.5,29.5 39,0 39,0 0.5,-29.5 0.5,-29.5 38.5,0 38.5,0 0.53798,29.5 c 0.2959,16.225 0.6334,29.6125 0.75,29.75 C 395.90459,228.8875 413.55,229 435,229 l 39,0 0,-28.8 c 0,-21.06667 0.32222,-29.12222 1.2,-30 1.71859,-1.71859 67.88141,-1.71859 69.6,0 1.73374,1.73374 1.73374,123.86626 0,125.6 -0.92481,0.92481 -44.22963,1.2 -188.83333,1.2 -103.19834,0 -187.93334,-0.3 -188.3,-0.66667 z M 1173.6509,1235.25 c 37.1772,-47.7048 65.5114,-96.6911 88.0412,-152.2124 6.7797,-16.7074 18.063,-50.3711 22.4128,-66.8685 2.7467,-10.4171 3.0296,-12.4712 1.8232,-13.2347 -2.3339,-1.477 -619.24947,-1.213 -620.7281,0.2656 -0.92012,0.9201 -1.2,29.4519 -1.2,122.3333 0,66.6234 0.3,121.4334 0.66667,121.8 0.36666,0.3667 112.80245,0.6667 249.8573,0.6667 l 249.19063,0 9.9363,-12.75 z M 1302.5,631 l 0,-122.5 -317,-0.27294 c -174.35,-0.15012 -318.0125,-0.029 -319.25,0.26905 l -2.25,0.54199 0,121.81429 c 0,66.99785 0.3007,122.11497 0.66821,122.48249 0.36752,0.36752 144.03002,0.55502 319.25,0.41667 L 1302.5,753.5 l 0,-122.5 z m 0,-494.5 0,-123 -319,0 -319,0 -0.25729,122 c -0.14151,67.1 -0.0429,122.5632 0.21921,123.25155 0.38042,0.99918 64.75725,1.20083 319.25729,1 L 1302.5,259.5 l 0,-123 z"
       id="path2995"
       style="fill:#625f5e" />
    <path
       d="m 632.5,1499.3353 c -7.15,-0.1871 -13.9,-0.7543 -15,-1.2605 -1.1,-0.5061 -6.5,-1.191 -12,-1.522 -55.23377,-3.3238 -122.95309,-18.261 -181.38681,-40.0094 C 391.93352,1444.5666 347.2061,1423.1774 318.5,1406.038 230.98377,1353.7852 157.24322,1283.5339 102.75323,1200.5 59.416899,1134.4624 29.165985,1062.4368 13.082738,987 8.6304538,966.11702 3,928.98961 3,920.51408 3,918.673 2.4375,916.97918 1.75,916.75002 0.75293744,916.41769 0.44662105,823.62337 0.23620479,458.16669 L -0.02759043,0 658,0 l 658.0276,0 -0.2638,458.0365 c -0.1916,332.66249 -0.5659,458.2318 -1.3674,458.75 -0.607,0.39243 -1.4122,4.3135 -1.7893,8.7135 -2.9589,34.52286 -13.6074,84.0694 -26.6452,123.9771 -66.9928,205.0612 -239.7088,367.225 -453.31482,425.6194 -39.9529,10.9221 -88.34794,19.2798 -124.64708,21.5262 -5.775,0.3574 -10.95,0.9889 -11.5,1.4033 -1.18351,0.8919 -45.39273,1.7963 -64,1.3093 z M 650.5,750 l 0,-736.5 -318.5,0 -318.5,0 0,450.5 0,450.5 2.327952,18 c 8.835547,68.3175 26.558172,128.528 55.657413,189.0894 79.722275,165.9182 232.434815,292.6328 412.014635,341.8726 51.39924,14.0934 117.43079,23.7414 158.5,23.1586 l 8.5,-0.1206 0,-736.5 z m -501.04845,414.7343 c -0.26813,-0.6987 -0.36691,-12.5123 -0.21953,-26.2523 L 149.5,1113.5 l 206.39466,-0.2524 c 153.22914,-0.1874 206.74814,0.041 207.76689,0.8865 1.10973,0.921 1.32117,5.9426 1.10533,26.2524 L 564.5,1165.5 l -207.28048,0.2524 c -166.86129,0.2031 -207.37553,0 -207.76797,-1.0181 z M 180.75,1099.9199 c -1.55714,-0.907 -1.74831,-2.8597 -1.73469,-17.7196 0.008,-9.1852 0.37326,-17.2641 0.81075,-17.9531 0.63336,-0.9975 36.64321,-1.2013 176.73468,-1 L 532.5,1063.5 l 0.27467,17.4954 c 0.24445,15.571 0.0859,17.6334 -1.44113,18.75 -2.22959,1.6303 -347.78876,1.8023 -350.58354,0.1745 z m 29.71122,-49.1699 c -0.26181,-0.6875 -0.36019,-53.45 -0.21862,-117.25 l 0.2574,-116 146.5,0 146.5,0 0.25419,116.4384 c 0.2019,92.4902 -0.004,116.6022 -1,117.2347 -2.16235,1.3729 -80.16506,1.016 -81.55419,-0.3731 -0.91186,-0.9119 -1.20019,-19.1009 -1.20079,-75.75 l -7.9e-4,-74.55 -3.02393,-6.39207 c -3.51168,-7.42306 -14.79618,-21.96411 -22.23643,-28.65353 -6.84632,-6.15543 -15.04999,-10.16504 -24.49583,-11.97255 -15.16357,-2.90161 -28.228,-1.25714 -38.24223,4.8137 -18.06796,10.9532 -26.74836,19.71775 -33.1512,33.47259 l -3.8488,8.26813 0,74.78187 c 0,56.83036 -0.28806,75.06996 -1.2,75.98186 -1.77305,1.7731 -82.66303,1.7245 -83.33878,-0.05 z m 102.57338,-0.6853 c -0.69386,-1.2965 -0.95305,-25.9712 -0.78518,-74.75005 L 312.5,902.5 315.6991,897 c 6.11298,-10.50963 13.92657,-18.7873 21.1631,-22.42006 18.27386,-9.17354 36.70161,-5.91213 52.43875,9.2808 3.75699,3.62706 8.37622,9.13856 10.26497,12.24777 l 3.43408,5.65311 0,74.5122 c 0,67.02288 -0.15899,74.57318 -1.58179,75.11918 -0.86998,0.3339 -20.87915,0.607 -44.46481,0.607 -41.38204,0 -42.91929,-0.068 -43.9188,-1.9353 z M 192.22327,791.25 192.5,776.5 l 163,-0.25698 c 152.3594,-0.2402 163.0816,-0.14612 164.25,1.44113 1.30312,1.77028 1.82921,23.64289 0.64301,26.73406 C 519.84293,805.85169 504.41716,806 355.86628,806 l -163.91975,0 0.27674,-14.75 z M 210.2,763.8 c -1.87722,-1.87722 -1.72383,-171.12037 0.1565,-172.68091 0.99482,-0.82563 40.25618,-1.05825 147.25,-0.87244 L 503.5,590.5 l 0.25559,86.43753 c 0.20252,68.48883 -0.005,86.60306 -1,87.23469 -0.69057,0.43843 -66.52809,0.80405 -146.30559,0.81247 C 244.94951,764.99646 211.12244,764.72244 210.2,763.8 z m 166.562,-104.02794 0.26201,-37.72793 -2.26201,-0.55661 c -1.2441,-0.30614 -10.362,-0.42857 -20.262,-0.27207 l -18,0.28455 -0.26257,36.99604 c -0.14442,20.34783 -0.0424,37.56987 0.22675,38.27122 0.37874,0.98697 4.95827,1.21388 20.26258,1.00396 L 376.5,697.5 376.762,659.77206 z M 192.4382,577.69955 c -0.27447,-0.71525 -0.37284,-7.35275 -0.21861,-14.75 L 192.5,549.5 l 163,-0.25698 c 152.3594,-0.2402 163.0816,-0.14612 164.25,1.44113 1.69648,2.30465 1.73912,25.42673 0.05,27.11585 -1.8357,1.8357 -326.65708,1.73603 -327.3618,-0.10045 z M 210.46065,535.75 c -0.26212,-0.6875 -0.3605,-42.65 -0.21862,-93.25 l 0.25797,-92 145.8935,-0.25335 c 106.99382,-0.18581 146.25518,0.0468 147.25,0.87244 1.12378,0.93265 1.3565,16.70292 1.3565,91.92157 0,49.93767 -0.27314,91.50757 -0.60699,92.37755 C 503.84334,536.85063 489.95903,537 357.36163,537 241.14295,537 210.83892,536.74214 210.46065,535.75 z m 166.3017,-115.68335 c 0.20523,-29.28253 -0.0125,-37.60783 -1,-38.23468 -2.12529,-1.34914 -37.17974,-1.01458 -38.56235,0.36803 -0.88966,0.88966 -1.2,10.67407 -1.2,37.83333 0,20.14834 0.30923,36.94257 0.68718,37.32052 0.37795,0.37795 9.49045,0.56545 20.25,0.41667 L 376.5,457.5 376.76235,420.06665 z M 192.4382,336.69955 c -0.27447,-0.71525 -0.37284,-7.35275 -0.21861,-14.75 L 192.5,308.5 l 163,-0.25698 c 152.3594,-0.2402 163.0816,-0.14612 164.25,1.44113 1.30312,1.77028 1.82921,23.64289 0.64301,26.73406 C 519.84294,337.85167 504.46081,338 356.36163,338 223.16322,338 192.84493,337.75948 192.4382,336.69955 z M 167.66667,296.33333 C 167.3,295.96667 167,267.67177 167,233.45578 c 0,-51.42582 0.23728,-62.40781 1.36868,-63.3468 0.97644,-0.81037 11.0785,-1.0604 35.25,-0.87244 L 237.5,169.5 238,199 l 0.5,29.5 39,0 39,0 0.5,-29.5 0.5,-29.5 38.5,0 38.5,0 0.53798,29.5 c 0.2959,16.225 0.6334,29.6125 0.75,29.75 C 395.90459,228.8875 413.55,229 435,229 l 39,0 0,-28.8 c 0,-21.06667 0.32222,-29.12222 1.2,-30 1.71859,-1.71859 67.88141,-1.71859 69.6,0 1.73374,1.73374 1.73374,123.86626 0,125.6 -0.92481,0.92481 -44.22963,1.2 -188.83333,1.2 -103.19834,0 -187.93334,-0.3 -188.3,-0.66667 z M 1169.1435,1242.75 c 9.3071,-11.151 24.3408,-31.8531 36.1283,-49.75 33.0021,-50.1069 58.0614,-103.5017 75.2575,-160.3542 7.1849,-23.7539 8.3806,-29.4584 6.4331,-30.6902 -2.3663,-1.4967 -621.26417,-1.2538 -622.7624,0.2444 -0.92023,0.9202 -1.2,29.6741 -1.2,123.3333 0,67.1734 0.3,122.4334 0.66667,122.8 0.36666,0.3667 113.07526,0.6667 250.46354,0.6667 l 249.79689,0 5.2164,-6.25 z M 1303.5,631 l 0,-123.5 -318,-0.27294 c -174.9,-0.15011 -319.0125,-0.029 -320.25,0.26905 l -2.25,0.54199 0,122.81429 c 0,67.54785 0.30069,123.11497 0.66821,123.48249 0.36752,0.36751 144.48002,0.55501 320.25,0.41666 L 1303.5,754.5 l 0,-123.5 z m 0,-494.5 0,-124 -320,0 -320,0 -0.25727,123 c -0.1415,67.65 -0.0429,123.5632 0.21921,124.25155 0.3804,0.99918 64.95721,1.20082 320.25727,1 L 1303.5,260.5 l 0,-124 z"
       id="path2993"
       style="fill:#817a15" />
    <path
       d="m 632.5,1499.3353 c -7.15,-0.1871 -13.9,-0.7543 -15,-1.2605 -1.1,-0.5061 -6.5,-1.191 -12,-1.522 -55.23377,-3.3238 -122.95309,-18.261 -181.38681,-40.0094 C 391.93352,1444.5666 347.2061,1423.1774 318.5,1406.038 230.98377,1353.7852 157.24322,1283.5339 102.75323,1200.5 59.416899,1134.4624 29.165985,1062.4368 13.082738,987 8.6304538,966.11702 3,928.98961 3,920.51408 3,918.673 2.4375,916.97918 1.75,916.75002 0.75293744,916.41769 0.44662105,823.62337 0.23620479,458.16669 L -0.02759043,0 658,0 l 658.0276,0 -0.2638,458.0365 c -0.1916,332.66249 -0.5659,458.2318 -1.3674,458.75 -0.607,0.39243 -1.4122,4.3135 -1.7893,8.7135 -2.9589,34.52286 -13.6074,84.0694 -26.6452,123.9771 -66.9928,205.0612 -239.7088,367.225 -453.31482,425.6194 -39.9529,10.9221 -88.34794,19.2798 -124.64708,21.5262 -5.775,0.3574 -10.95,0.9889 -11.5,1.4033 -1.18351,0.8919 -45.39273,1.7963 -64,1.3093 z m 18.90038,-14.5853 c 0.24117,-1.2375 0.32696,-4.725 0.19065,-7.75 -0.13632,-3.025 -0.32506,-333.6625 -0.41944,-734.75 L 651,13 332,13 13,13 13,461.52844 C 13,950.34351 12.641741,918.25359 18.503651,954.5 42.054934,1100.1265 117.15843,1232.0097 233,1331.1598 c 100.11749,85.6917 227.04957,139.9273 357.5574,152.7771 26.02623,2.5626 27.59634,2.6617 45.67355,2.8829 14.54551,0.1779 14.73647,0.1519 15.16943,-2.0698 z M 150.2,1164.8 c -1.26852,-1.2685 -1.8081,-46.0517 -0.59301,-49.2182 0.55079,-1.4353 19.76312,-1.5818 207.5,-1.5818 L 564,1114 l 0,25.393 c 0,22.2326 -0.19687,25.4686 -1.58179,26 -0.86998,0.3339 -93.70498,0.607 -206.3,0.607 -157.89194,0 -204.99269,-0.2745 -205.91821,-1.2 z m 30.46945,-65.4639 C 180.30125,1098.9679 180,1090.9148 180,1081.4403 c 0,-14.7857 0.22411,-17.3123 1.58179,-17.8333 2.40791,-0.924 347.73257,-0.6942 349.19258,0.2324 0.97057,0.616 1.20896,4.9629 1,18.2347 L 531.5,1099.5 l -175.08055,0.2528 c -96.2943,0.139 -175.3818,-0.048 -175.75,-0.4167 z M 210.4612,1049.75 c -0.26182,-0.6875 -0.3602,-53 -0.21862,-116.25 l 0.25742,-115 145.93891,-0.25336 c 116.09094,-0.20154 146.10166,0.003 146.73469,1 1.04349,1.64351 1.03852,228.87096 -0.005,230.51486 -0.6275,0.9885 -9.55137,1.2049 -41.23469,1 L 421.5,1050.5 421,975 l -0.5,-75.5 -3.09508,-6.10741 c -3.74583,-7.3915 -13.96472,-20.24259 -22.00404,-27.67188 -8.3064,-7.6761 -16.52719,-11.56111 -28.37429,-13.40923 -8.6406,-1.34791 -10.69487,-1.34671 -19.20545,0.0112 -7.91539,1.26298 -10.67147,2.2193 -16.26807,5.6448 -18.73211,11.46531 -28.49277,21.73669 -34.41238,36.21296 L 294,901.86096 l 0,74.56952 0,74.56952 -41.53138,0 c -32.30456,0 -41.63715,-0.2777 -42.00742,-1.25 z m 103.20547,0.5833 C 313.3,1049.9667 313,1016.6299 313,976.2516 l 0,-73.41507 3.60746,-6.16827 c 1.98411,-3.39254 6.13277,-9.0498 9.21925,-12.57167 12.809,-14.61589 33.64513,-18.15305 51.67329,-8.77209 7.71727,4.01568 18.16322,14.47982 22.2767,22.31548 l 3.2233,6.13997 0,72.02824 c 0,39.61551 -0.27314,72.74001 -0.60699,73.61001 -0.54069,1.409 -5.38312,1.5818 -44.33333,1.5818 -24.04949,0 -44.02635,-0.3 -44.39301,-0.6667 z M 193.21977,805.15699 c -0.96017,-0.60929 -1.21017,-4.16789 -1,-14.23469 L 192.5,777.5 l 163.5,0 163.5,0 0.28023,13.4223 c 0.21017,10.0668 -0.0398,13.6254 -1,14.23469 -0.70413,0.44681 -73.95523,0.81238 -162.78023,0.81238 -88.825,0 -162.0761,-0.36557 -162.78023,-0.81238 z m 17.4469,-41.82366 C 210.3,762.96667 210,724.04017 210,676.83001 l 0,-85.83665 146.75,0.25332 146.75,0.25332 0.2751,84 c 0.15131,46.2 0.0302,85.0125 -0.26905,86.25 l -0.54415,2.25 -145.81429,0 c -80.19785,0 -146.11428,-0.3 -146.48094,-0.66667 z M 377,659.47971 l 0,-38.52029 -20.75,0.27029 -20.75,0.27029 -0.26257,36.99604 c -0.14442,20.34783 -0.046,37.56033 0.21861,38.25 0.36414,0.94894 5.4754,1.25396 21.01258,1.25396 L 377,698 377,659.47971 z M 193.91041,577.77143 c -1.84296,-0.68201 -1.95092,-1.57656 -1.68958,-14 L 192.5,550.5 356.25,550.24702 520,549.99403 l 0,14.00299 c 0,10.5341 -0.30966,14.00373 -1.25,14.00601 -176.04685,0.42661 -323.34474,0.32159 -324.83959,-0.2316 z m 16.69658,-43.35322 c -0.79327,-2.06721 -0.79327,-179.76921 0,-181.83642 0.54967,-1.43242 14.43121,-1.58179 147,-1.58179 L 504,351 l 0,92.5 0,92.5 -146.39301,0 c -132.56879,0 -146.45033,-0.14937 -147,-1.58179 z M 376.32282,457.75 c 1.5626,-1.14555 1.68303,-4.38358 1.44113,-38.75 L 377.5,381.5 l -20.5,0 -20.5,0 -0.2622,37.93344 c -0.20518,29.68267 0.0123,38.10772 1,38.73469 2.17539,1.38093 37.14122,1.00687 39.08502,-0.41813 z M 193.21977,337.15699 c -0.96017,-0.60929 -1.21017,-4.16789 -1,-14.23469 L 192.5,309.5 356.25,309.24702 520,308.99403 l 0,13.896 c 0,11.74884 -0.24441,13.98978 -1.58179,14.50298 -2.41367,0.92621 -323.73439,0.69301 -325.19844,-0.23602 z M 185.75,296.22693 168,295.95385 l 0,-62.98988 0,-62.98989 34.75,0.26296 34.75,0.26296 0.26567,28.95066 c 0.1985,21.63207 0.57769,29.14887 1.5,29.73469 1.61224,1.02406 74.85642,1.02406 76.46866,0 0.92231,-0.58582 1.3015,-8.10262 1.5,-29.73469 L 317.5,170.5 l 38.5,0 38.5,0 0.26567,28.95066 c 0.1985,21.63207 0.57769,29.14887 1.5,29.73469 2.14641,1.36336 76.15344,0.99554 77.53433,-0.38535 0.87778,-0.87778 1.2,-8.93333 1.2,-30 l 0,-28.8 35,0 35,0 0,63 0,63 -16.75,0.1205 c -37.54596,0.2701 -326.03432,0.35974 -342.5,0.10643 z M 1169.1435,1242.75 c 9.3071,-11.151 24.3408,-31.8531 36.1283,-49.75 33.0021,-50.1069 58.0614,-103.5017 75.2575,-160.3542 7.1849,-23.7539 8.3806,-29.4584 6.4331,-30.6902 -2.3663,-1.4967 -621.26417,-1.2538 -622.7624,0.2444 -0.92023,0.9202 -1.2,29.6741 -1.2,123.3333 0,67.1734 0.3,122.4334 0.66667,122.8 0.36666,0.3667 113.07526,0.6667 250.46354,0.6667 l 249.79689,0 5.2164,-6.25 z M 1303.5,631 l 0,-123.5 -318,-0.27294 c -174.9,-0.15011 -319.0125,-0.029 -320.25,0.26905 l -2.25,0.54199 0,122.81429 c 0,67.54785 0.30069,123.11497 0.66821,123.48249 0.36752,0.36751 144.48002,0.55501 320.25,0.41666 L 1303.5,754.5 l 0,-123.5 z m 0,-494.5 0,-124 -320,0 -320,0 -0.25727,123 c -0.1415,67.65 -0.0429,123.5632 0.21921,124.25155 0.3804,0.99918 64.95721,1.20082 320.25727,1 L 1303.5,260.5 l 0,-124 z"
       id="path2991"
       style="fill:#665f10" />
    <path
       d="m 632.5,1499.3353 c -7.15,-0.1871 -13.9,-0.7543 -15,-1.2605 -1.1,-0.5061 -6.5,-1.191 -12,-1.522 -55.23377,-3.3238 -122.95309,-18.261 -181.38681,-40.0094 C 391.93352,1444.5666 347.2061,1423.1774 318.5,1406.038 230.98377,1353.7852 157.24322,1283.5339 102.75323,1200.5 59.416899,1134.4624 29.165985,1062.4368 13.082738,987 8.6304538,966.11702 3,928.98961 3,920.51408 3,918.673 2.4375,916.97918 1.75,916.75002 0.75293744,916.41769 0.44662105,823.62337 0.23620479,458.16669 L -0.02759043,0 658,0 l 658.0276,0 -0.2638,458.0365 c -0.1916,332.66249 -0.5659,458.2318 -1.3674,458.75 -0.607,0.39243 -1.4122,4.3135 -1.7893,8.7135 -2.9589,34.52286 -13.6074,84.0694 -26.6452,123.9771 -66.9928,205.0612 -239.7088,367.225 -453.31482,425.6194 -39.9529,10.9221 -88.34794,19.2798 -124.64708,21.5262 -5.775,0.3574 -10.95,0.9889 -11.5,1.4033 -1.18351,0.8919 -45.39273,1.7963 -64,1.3093 z M 651.5,750 651.5,12.5 332,12.5 12.5,12.5 12.205543,460 c -0.210298,319.5991 0.01959,450.78684 0.804335,459 10.532064,110.229 53.012412,217.9295 122.076242,309.5 110.34561,146.3054 279.06736,240.3742 460.91388,256.9772 22.31807,2.0377 25.34286,2.1908 41.5,2.1008 l 14,-0.078 0,-737.5 z m -501.04946,413.7317 c -0.26869,-0.7002 -0.36748,-11.8388 -0.21953,-24.7524 L 150.5,1115.5 l 206.26747,-0.2524 206.26748,-0.2524 -0.26748,24.7524 -0.26747,24.7524 -205.78047,0.2524 c -165.8745,0.2034 -205.8752,0.01 -206.26899,-1.0207 z m 30.77585,-81.9817 0.27361,-17.25 174.5,0 174.5,0 0.27361,17.25 0.27362,17.25 -175.04723,0 -175.04723,0 0.27362,-17.25 z M 211,934.49666 l 0,-115.50335 145.75,0.25335 145.75,0.25334 0,115 0,115 -40.25,0.2613 -40.25,0.2614 -0.028,-74.26136 L 421.944,901.5 419.04278,895 c -3.41336,-7.64741 -15.04103,-22.96984 -22.84029,-30.09793 -8.07978,-7.38446 -17.49099,-11.76777 -29.18165,-13.59149 -8.6746,-1.35321 -10.67305,-1.34837 -19.41846,0.0471 -8.25167,1.31663 -10.774,2.19701 -16.42553,5.73307 -19.6362,12.28599 -28.60243,21.64669 -34.58132,36.10269 l -3.59552,8.6934 0,74.0566 0,74.05666 -41,0 -41,0 0,-115.50339 z m 103,41.9987 0,-73.52566 2.97189,-5.2659 c 1.63454,-2.89625 5.62854,-8.422 8.87555,-12.27945 4.84319,-5.75371 7.16346,-7.59423 12.91698,-10.2462 11.99048,-5.52677 26.10318,-5.31936 37.69363,0.55396 6.87156,3.48208 18.00212,14.48045 22.13867,21.87574 l 3.41642,6.10785 -0.25657,72.89215 L 401.5,1049.5 l -43.75,0.2605 -43.75,0.2605 0,-73.52564 z M 193.66967,804.33634 C 193.30135,803.96802 193,797.89167 193,790.83333 L 193,778 l 163.02903,0 163.02902,0 -0.27902,13.25 -0.27903,13.25 -162.08033,0.253 c -89.14418,0.13915 -162.38168,-0.0484 -162.75,-0.41666 z M 211,677.50334 211,592 l 146.00562,0 146.00561,0 -0.25561,85.25 L 502.5,762.5 356.75,762.75334 211,763.00669 211,677.50334 z M 377.5,659.5 l 0,-39 -20.37212,-0.27109 c -14.1824,-0.18873 -20.79076,0.0763 -21.75,0.87244 -1.12482,0.93352 -1.37788,7.90131 -1.37788,37.93931 0,20.23767 0.27652,37.51637 0.61449,38.39711 0.5413,1.41061 3.13188,1.56923 21.75,1.33178 L 377.5,698.5 l 0,-39 z M 193.43743,576.69754 c -0.27616,-0.71966 -0.37506,-6.90852 -0.21977,-13.75301 L 193.5,550.5 l 162.5,0 162.5,0 0,13.5 0,13.5 -162.28023,0.25301 c -132.94882,0.20729 -162.37098,0.0165 -162.78234,-1.05547 z M 211.46059,533.75 c -0.26216,-0.6875 -0.36053,-41.75 -0.21862,-91.25 l 0.25803,-90 145.75,-0.25334 145.75,-0.25335 0,91.50335 0,91.50334 -145.53138,0 c -115.50424,0 -145.62973,-0.25791 -146.00803,-1.25 z M 378.76215,420.61711 c 0.18992,-27.44437 -0.055,-38.26507 -0.88893,-39.26987 -0.92721,-1.11722 -5.15972,-1.33449 -21.76215,-1.11711 L 335.5,380.5 l -0.26227,37.99684 c -0.14424,20.89827 -0.0424,38.56975 0.22628,39.26996 0.37895,0.98753 5.26066,1.21256 21.76226,1.00316 L 378.5,458.5 378.76215,420.61711 z M 193.43743,335.69754 c -0.27616,-0.71966 -0.37506,-6.90852 -0.21977,-13.75301 L 193.5,309.5 l 162.5,0 162.5,0 0,13.5 0,13.5 -162.28023,0.25301 c -132.94882,0.20729 -162.37098,0.0165 -162.78234,-1.05547 z M 170.25,295.25102 C 169.26796,294.92287 169,281.56057 169,232.91667 L 169,171 l 34,0 34,0 0,28.8 c 0,21.06667 0.32222,29.12222 1.2,30 1.72253,1.72253 76.87747,1.72253 78.6,0 0.87778,-0.87778 1.2,-8.93333 1.2,-30 l 0,-28.8 38,0 38,0 0,28.96482 c 0,27.61321 0.0903,29.01312 1.93426,30 2.6422,1.41406 75.48928,1.41406 78.13148,0 1.844,-0.98688 1.93426,-2.38679 1.93426,-30 L 476,171 l 34,0 34,0 0,62 0,62 -15.25,0.11546 c -48.4554,0.36687 -357.45807,0.48371 -358.5,0.13556 z M 1169.1435,1242.75 c 9.3071,-11.151 24.3408,-31.8531 36.1283,-49.75 33.0021,-50.1069 58.0614,-103.5017 75.2575,-160.3542 7.1849,-23.7539 8.3806,-29.4584 6.4331,-30.6902 -2.3663,-1.4967 -621.26417,-1.2538 -622.7624,0.2444 -0.92023,0.9202 -1.2,29.6741 -1.2,123.3333 0,67.1734 0.3,122.4334 0.66667,122.8 0.36666,0.3667 113.07526,0.6667 250.46354,0.6667 l 249.79689,0 5.2164,-6.25 z M 1303.5,631 l 0,-123.5 -318,-0.27294 c -174.9,-0.15011 -319.0125,-0.029 -320.25,0.26905 l -2.25,0.54199 0,122.81429 c 0,67.54785 0.30069,123.11497 0.66821,123.48249 0.36752,0.36751 144.48002,0.55501 320.25,0.41666 L 1303.5,754.5 l 0,-123.5 z m 0,-494.5 0,-124 -320,0 -320,0 -0.25727,123 c -0.1415,67.65 -0.0429,123.5632 0.21921,124.25155 0.3804,0.99918 64.95721,1.20082 320.25727,1 L 1303.5,260.5 l 0,-124 z"
       id="path2989"
       style="fill:#1e1915" />
  </g>
</svg>
