<?xml version="1.0" encoding="UTF-8" standalone="no"?>
<svg
   xmlns:dc="http://purl.org/dc/elements/1.1/"
   xmlns:cc="http://creativecommons.org/ns#"
   xmlns:rdf="http://www.w3.org/1999/02/22-rdf-syntax-ns#"
   xmlns:svg="http://www.w3.org/2000/svg"
   xmlns="http://www.w3.org/2000/svg"
   xmlns:sodipodi="http://sodipodi.sourceforge.net/DTD/sodipodi-0.dtd"
   xmlns:inkscape="http://www.inkscape.org/namespaces/inkscape"
   width="478pt"
   height="567pt"
   viewBox="0 0 478 567"
   version="1.1"
   id="svg2"
   inkscape:version="0.48.2 r9819"
   sodipodi:docname="2001-30_Wappen_Wil_SG.svg">
  <metadata
     id="metadata136">
    <rdf:RDF>
      <cc:Work
         rdf:about="">
        <dc:format>image/svg+xml</dc:format>
        <dc:type
           rdf:resource="http://purl.org/dc/dcmitype/StillImage" />
      </cc:Work>
    </rdf:RDF>
  </metadata>
  <defs
     id="defs134" />
  <sodipodi:namedview
     pagecolor="#ffffff"
     bordercolor="#666666"
     borderopacity="1"
     objecttolerance="10"
     gridtolerance="10"
     guidetolerance="10"
     inkscape:pageopacity="0"
     inkscape:pageshadow="2"
     inkscape:window-width="640"
     inkscape:window-height="480"
     id="namedview132"
     showgrid="false"
     inkscape:zoom="0.3329806"
     inkscape:cx="298.75"
     inkscape:cy="354.375"
     inkscape:window-x="0"
     inkscape:window-y="0"
     inkscape:window-maximized="0"
     inkscape:current-layer="svg2" />
  <path
     fill="#151517"
     d=" M 0.00 0.00 L 478.00 0.00 L 478.00 341.54 C 476.50 360.05 473.71 378.51 468.33 396.32 C 457.11 434.25 436.21 469.22 408.29 497.22 C 380.50 525.07 345.79 545.99 308.08 557.28 C 291.01 562.53 273.32 565.37 255.57 567.00 L 224.14 567.00 C 183.62 564.33 143.76 551.43 109.70 529.25 C 71.64 504.74 40.80 469.18 21.95 428.02 C 9.38 400.69 2.01 370.94 0.58 340.89 C 0.26 337.86 0.02 334.83 0.00 331.80 L 0.00 0.00 Z"
     id="path4" />
  <path
     fill="#fdfdfd"
     d=" M 5.01 5.00 C 82.94 5.00 160.87 5.00 238.80 5.00 C 238.80 190.67 238.81 376.33 238.80 562.00 C 204.76 562.51 170.73 554.54 139.93 540.15 C 100.69 521.78 66.84 492.18 43.21 455.88 C 25.13 428.26 13.06 396.73 8.07 364.10 C 6.09 352.49 5.71 340.69 5.02 328.96 C 5.00 220.97 5.01 112.99 5.01 5.00 Z"
     id="path6" />
  <path
     fill="#151517"
     d=" M 53.25 53.73 C 57.01 56.38 59.33 60.42 60.97 64.62 C 61.42 60.95 61.24 57.25 61.06 53.57 C 64.61 56.24 66.59 60.23 67.89 64.37 C 68.54 60.79 68.36 57.15 68.19 53.54 C 73.66 57.05 75.41 63.85 75.40 69.98 C 76.80 82.99 75.86 96.24 72.75 108.94 C 70.95 115.94 66.70 123.12 59.54 125.61 C 55.59 126.73 50.59 126.67 47.59 123.47 C 43.55 119.29 41.28 113.69 40.23 108.04 C 38.42 96.83 38.51 85.35 39.68 74.09 C 39.50 68.12 38.58 62.09 35.98 56.66 C 40.68 58.49 43.96 62.38 46.47 66.61 C 46.32 62.57 45.45 58.63 44.18 54.82 C 48.80 57.01 51.62 61.32 54.01 65.65 C 53.91 63.15 53.75 60.67 53.57 58.18 C 53.87 58.24 54.47 58.37 54.77 58.43 C 55.44 61.61 55.07 65.05 54.32 68.20 C 56.41 68.06 58.50 67.96 60.60 67.87 C 59.49 64.40 58.03 61.08 56.26 57.91 L 56.19 57.21 C 55.01 57.09 53.82 57.27 52.63 57.33 C 52.79 56.43 53.10 54.63 53.25 53.73 Z"
     id="path8" />
  <path
     fill="#151517"
     d=" M 124.85 66.96 C 124.82 62.62 125.01 57.81 126.89 53.93 C 137.98 58.45 149.24 62.95 161.14 64.78 C 171.53 65.93 182.25 66.63 191.92 70.98 C 197.29 73.37 202.25 77.37 204.53 82.92 C 200.98 85.12 197.64 87.84 195.56 91.52 C 199.01 89.03 201.44 85.17 205.57 83.64 C 211.16 80.93 219.16 81.80 222.66 87.38 C 226.49 93.92 223.61 103.23 217.02 106.85 C 213.20 109.16 208.62 109.26 204.37 110.16 L 206.57 110.68 C 206.73 120.78 207.21 130.87 206.99 140.97 C 207.73 155.27 209.39 169.62 208.12 183.94 C 206.89 199.28 201.97 214.75 191.74 226.51 C 185.89 233.13 178.36 238.90 169.53 240.61 C 149.74 243.61 129.66 241.67 109.86 239.86 C 93.76 237.95 77.85 234.73 61.90 231.85 C 55.50 230.60 49.08 229.28 42.93 227.10 C 37.63 225.08 34.01 220.31 31.76 215.29 C 26.32 203.25 22.15 190.55 20.29 177.45 C 18.13 172.08 14.02 167.76 9.99 163.73 C 14.67 163.22 19.08 165.03 22.91 167.57 C 20.86 164.42 18.49 161.51 16.10 158.63 C 21.09 158.25 25.42 160.89 29.07 163.99 C 27.30 160.36 25.15 156.93 22.70 153.72 C 26.64 154.00 30.01 156.04 33.26 158.08 C 32.90 158.57 32.55 159.05 32.19 159.53 C 30.38 157.65 28.14 156.29 25.67 155.50 C 27.68 158.54 29.49 161.73 30.59 165.23 C 32.24 164.29 33.88 163.35 35.53 162.41 C 34.99 162.04 33.92 161.32 33.38 160.95 C 33.94 160.47 34.51 160.00 35.07 159.52 C 33.60 156.20 31.88 153.01 30.09 149.85 C 34.61 150.96 38.41 153.65 41.52 157.04 C 40.62 153.41 39.01 150.05 37.60 146.61 C 46.67 148.45 50.63 157.62 53.57 165.37 C 56.47 174.32 58.44 183.56 60.26 192.79 C 54.51 195.15 50.82 201.48 51.24 207.60 C 52.80 202.26 54.58 195.13 60.99 193.91 C 76.42 190.77 92.05 188.74 107.63 186.45 C 125.26 183.80 142.58 179.52 159.99 175.75 L 159.88 174.81 C 139.26 179.58 118.58 184.17 97.62 187.16 C 100.72 171.33 110.42 156.29 125.17 149.08 C 129.27 146.73 134.01 146.05 138.34 144.31 C 142.52 137.44 144.81 129.61 147.28 122.01 C 140.77 119.11 134.53 115.56 128.91 111.18 C 124.77 107.84 123.22 101.90 124.94 96.90 C 132.71 102.05 141.18 106.04 149.82 109.51 C 150.44 107.65 151.04 105.78 151.32 103.83 C 148.76 102.40 145.97 101.45 143.37 100.11 C 144.77 99.81 146.16 99.51 147.56 99.22 C 149.02 99.87 150.38 100.73 151.79 101.48 C 151.92 95.91 151.29 89.69 146.79 85.82 C 145.61 88.86 144.81 92.01 144.09 95.19 C 142.16 91.03 140.85 86.53 140.98 81.91 L 140.35 81.83 C 139.28 85.15 138.39 88.53 137.53 91.92 C 135.77 87.37 134.75 82.60 133.55 77.88 C 132.51 81.05 131.88 84.33 131.14 87.58 C 129.11 83.97 128.20 79.88 127.70 75.81 C 127.47 72.62 124.61 70.27 124.85 66.96 Z"
     id="path10" />
  <path
     fill="#fdfdfd"
     d=" M 62.69 56.39 C 65.18 59.82 66.35 63.91 67.34 67.97 C 65.33 67.97 63.33 67.97 61.32 68.00 C 62.39 64.23 62.80 60.31 62.69 56.39 Z"
     id="path12" />
  <path
     fill="#fdfdfd"
     d=" M 69.85 56.20 C 72.87 60.10 74.18 65.02 74.22 69.90 C 72.31 69.09 70.33 68.49 68.31 68.01 C 69.42 64.17 69.83 60.18 69.85 56.20 Z"
     id="path14" />
  <path
     fill="#fdfdfd"
     d=" M 46.50 57.41 C 49.86 60.42 51.77 64.52 53.60 68.54 C 51.55 68.71 49.42 69.31 47.42 68.54 C 48.19 64.80 46.90 61.10 46.50 57.41 Z"
     id="path16" />
  <path
     fill="#f2bf3d"
     d=" M 297.34 65.38 C 306.94 62.14 316.91 59.88 327.03 59.18 C 331.59 59.41 333.03 64.57 336.33 66.87 C 336.31 69.05 337.27 71.04 337.99 73.05 C 339.94 78.28 340.96 83.79 342.10 89.24 C 332.39 89.50 322.67 90.49 313.26 92.94 C 310.38 82.60 305.16 72.82 297.34 65.38 Z"
     id="path18" />
  <path
     fill="#f2bf3d"
     d=" M 330.32 58.84 C 345.63 57.94 361.08 59.53 375.80 63.84 C 382.33 73.70 381.84 86.20 379.37 97.28 C 368.04 91.96 355.57 89.68 343.12 89.25 C 341.40 81.66 340.12 73.77 336.33 66.87 C 334.98 63.75 332.74 61.18 330.32 58.84 Z"
     id="path20" />
  <path
     fill="#fdfdfd"
     d=" M 38.59 59.12 C 42.14 61.98 44.51 65.89 46.51 69.93 C 44.64 70.56 42.85 71.39 41.08 72.25 C 40.42 67.84 39.77 63.43 38.59 59.12 Z"
     id="path22" />
  <path
     fill="#7b192e"
     d=" M 103.20 61.10 C 106.45 60.23 109.79 61.07 112.86 62.18 C 110.55 63.65 108.09 65.85 108.65 68.91 C 109.37 74.38 114.77 77.05 118.58 80.26 C 127.51 87.64 137.74 93.15 147.56 99.22 C 146.16 99.51 144.77 99.81 143.37 100.11 C 138.26 98.29 133.45 95.63 128.52 93.34 C 119.80 88.98 110.97 84.56 103.38 78.38 C 100.57 76.06 97.97 72.82 97.92 69.02 C 98.23 65.78 99.92 62.22 103.20 61.10 Z"
     id="path24" />
  <path
     fill="#b3092c"
     d=" M 103.55 62.74 C 105.19 62.41 106.87 62.41 108.53 62.29 C 107.28 66.51 106.38 71.73 110.00 75.08 C 117.52 82.32 126.31 88.10 134.92 93.95 C 125.69 90.39 116.84 85.80 108.61 80.32 C 104.81 77.68 100.31 74.66 99.73 69.64 C 99.75 66.94 101.00 63.95 103.55 62.74 Z"
     id="path26" />
  <path
     fill="#f2bf3d"
     d=" M 285.12 63.24 C 287.37 60.28 291.61 62.29 294.02 64.06 C 305.35 72.59 311.21 86.45 314.01 100.00 C 317.34 114.95 317.40 131.31 326.11 144.50 C 325.32 141.33 323.81 138.43 322.62 135.41 C 318.35 125.04 317.67 113.72 315.63 102.81 C 324.48 99.92 333.75 98.32 343.08 98.65 C 343.55 107.08 343.35 115.55 342.17 123.92 C 341.75 129.36 340.44 135.38 343.49 140.34 C 342.47 134.91 342.32 129.39 343.08 123.91 C 344.23 115.55 344.44 107.11 344.12 98.68 C 355.34 99.00 366.63 101.98 376.24 107.82 C 374.47 114.07 371.73 120.00 368.91 125.84 C 366.11 131.56 361.84 137.05 361.95 143.72 C 363.48 140.03 364.30 136.05 366.37 132.59 C 370.84 124.85 374.38 116.61 377.27 108.16 C 386.94 113.78 395.46 121.39 401.97 130.50 C 396.73 136.46 390.78 141.72 385.10 147.25 C 391.96 143.13 397.27 137.04 402.58 131.17 C 407.78 139.28 411.63 148.31 413.03 157.88 C 405.52 160.64 397.84 163.04 389.92 164.31 C 386.40 164.92 382.47 165.66 380.31 168.83 C 383.17 167.38 386.04 165.82 389.28 165.37 C 397.43 164.10 405.34 161.64 413.12 158.94 C 413.80 167.15 413.28 175.48 411.19 183.46 C 404.43 182.59 397.69 181.54 391.11 179.76 C 387.23 178.69 383.05 178.47 379.17 179.66 C 382.87 180.07 386.66 179.57 390.30 180.51 C 397.09 182.30 404.02 183.57 411.01 184.29 C 408.77 192.04 405.14 199.30 400.56 205.93 C 399.54 205.15 398.52 204.37 397.51 203.59 L 397.32 204.65 C 394.61 200.74 390.37 198.36 386.86 195.27 C 383.24 192.04 379.00 189.34 374.07 188.80 C 377.33 190.59 380.96 191.75 383.88 194.13 C 388.36 197.63 392.62 201.42 397.32 204.65 C 398.18 205.31 399.02 205.99 399.89 206.66 C 394.72 213.41 388.09 218.87 380.82 223.23 C 378.96 220.28 378.50 216.22 375.52 214.15 C 376.54 212.73 375.91 210.49 374.10 210.14 C 373.42 207.40 372.08 204.85 370.10 202.82 C 370.13 200.96 368.77 199.28 366.90 199.05 C 366.90 197.67 366.20 197.02 364.81 197.11 C 364.81 198.50 365.51 199.15 366.90 199.05 C 367.06 200.83 368.20 202.60 370.10 202.82 C 370.68 205.60 372.04 208.17 374.10 210.14 C 373.49 211.68 374.59 213.05 375.52 214.15 C 377.03 217.31 378.36 220.54 379.91 223.68 C 373.14 226.97 365.91 229.46 358.38 230.19 C 356.55 220.62 356.97 210.84 355.81 201.20 C 355.49 200.97 354.84 200.52 354.51 200.30 C 356.32 210.19 355.56 220.37 357.39 230.27 C 349.65 231.17 341.78 230.26 334.22 228.51 C 336.22 219.79 341.06 212.08 343.42 203.48 C 343.99 201.50 344.01 199.42 343.72 197.40 C 342.24 208.21 336.06 217.47 333.35 227.91 C 326.04 226.76 319.26 222.86 313.49 218.31 C 315.21 214.95 317.10 211.56 320.10 209.16 C 325.82 204.41 331.68 199.60 335.82 193.33 C 335.55 193.31 335.01 193.27 334.73 193.24 C 330.41 199.35 324.61 204.16 318.90 208.90 C 316.05 211.29 314.40 214.67 312.62 217.85 C 306.14 212.22 301.15 204.98 298.25 196.90 C 302.75 192.90 308.20 190.12 313.97 188.50 L 313.14 187.79 C 319.41 187.44 325.84 186.62 331.70 184.25 C 325.46 185.11 319.18 186.00 313.14 187.79 C 307.55 189.29 302.46 192.19 297.95 195.77 C 295.37 187.77 295.21 179.23 296.03 170.94 C 296.34 169.82 295.95 167.45 297.86 167.81 C 306.75 167.42 315.11 171.01 323.47 173.53 C 326.02 174.35 328.76 174.33 331.32 173.55 C 323.50 173.62 316.55 169.73 309.05 168.19 C 305.03 167.19 300.90 166.73 296.78 166.55 C 298.51 160.18 301.72 154.29 306.15 149.40 C 309.51 153.92 313.12 159.33 319.06 160.44 C 321.74 161.01 323.70 158.66 325.51 157.12 C 328.37 160.99 330.55 166.49 336.09 166.89 C 334.19 165.48 331.82 164.61 330.43 162.63 C 328.94 160.51 327.57 158.30 325.96 156.27 C 330.30 153.27 335.06 150.86 340.22 149.64 C 339.26 153.93 338.49 158.89 342.10 162.24 C 341.51 160.16 340.73 158.15 339.97 156.13 C 340.47 153.89 340.87 151.64 341.29 149.39 C 346.67 148.84 352.11 149.62 357.10 151.75 C 353.82 154.65 349.92 157.72 350.07 162.58 C 351.69 158.35 354.46 154.89 358.15 152.27 C 362.46 154.73 366.29 158.04 368.90 162.30 C 364.68 163.06 359.35 162.63 357.15 167.18 C 360.63 164.17 365.07 163.50 369.51 163.27 C 371.11 167.56 372.29 172.12 371.59 176.74 C 367.51 174.91 362.83 171.64 358.44 174.62 C 363.08 173.36 367.24 175.68 371.26 177.66 C 370.10 183.15 366.55 187.65 362.25 191.07 C 361.17 186.66 361.46 181.16 356.75 178.80 C 359.88 182.47 360.82 187.08 361.13 191.77 C 356.52 193.59 351.52 193.94 346.67 192.95 C 349.36 189.73 352.67 186.18 351.61 181.58 C 350.91 183.58 350.55 185.70 349.67 187.64 C 348.40 189.43 346.76 190.92 345.20 192.47 C 342.02 190.41 339.23 187.76 337.58 184.31 C 341.11 183.60 345.17 182.66 346.55 178.85 C 343.85 181.20 340.79 183.21 337.06 183.08 C 336.46 178.45 337.13 173.12 341.09 170.08 C 343.90 167.42 349.52 166.89 351.36 170.91 C 351.82 173.46 349.23 174.65 347.77 176.22 C 349.94 175.71 353.31 175.73 353.94 172.99 C 355.16 167.45 348.12 163.97 343.49 165.56 C 334.49 167.78 331.41 179.78 335.77 187.26 C 340.22 195.76 351.53 198.68 360.12 195.23 C 370.27 191.27 376.86 179.63 374.71 168.88 C 372.75 155.67 359.81 146.16 346.90 145.68 C 338.93 145.12 331.20 148.21 324.83 152.82 C 323.54 146.00 320.64 139.66 318.69 133.03 C 314.89 120.53 312.89 107.59 310.32 94.80 C 307.51 82.42 300.22 69.13 287.00 65.82 C 298.60 71.97 305.22 84.48 307.73 96.96 C 310.28 111.08 312.29 125.41 316.94 139.04 C 318.65 144.25 320.84 149.44 321.04 154.99 C 321.31 156.21 319.62 157.27 318.65 156.45 C 312.11 153.46 308.41 146.80 305.45 140.59 C 303.55 136.87 302.98 132.70 302.51 128.61 C 301.17 117.28 299.66 105.96 297.41 94.77 C 295.57 85.65 292.73 76.40 286.92 68.97 C 285.62 67.34 284.34 65.42 285.12 63.24 Z"
     id="path28" />
  <path
     fill="#151517"
     d=" M 194.93 71.47 C 198.42 67.80 202.66 63.91 208.08 64.13 C 213.21 64.84 218.37 68.47 219.36 73.80 C 220.18 76.67 218.95 79.55 218.19 82.29 C 213.95 81.03 209.59 81.01 205.44 82.63 C 203.35 77.81 199.45 74.03 194.93 71.47 Z"
     id="path30" />
  <path
     fill="#f2bf3d"
     d=" M 377.25 64.23 C 393.41 69.63 407.61 79.79 419.09 92.26 C 420.06 103.44 414.28 113.66 408.25 122.60 C 400.98 112.26 391.56 103.33 380.17 97.68 C 382.66 86.64 383.18 74.31 377.25 64.23 Z"
     id="path32" />
  <path
     fill="#fdfdfd"
     d=" M 128.58 74.24 C 130.07 75.14 131.57 76.04 133.07 76.95 C 132.08 79.43 131.22 81.95 130.35 84.47 C 129.63 81.08 128.96 77.68 128.58 74.24 Z"
     id="path34" />
  <path
     fill="#fdfdfd"
     d=" M 134.84 77.98 C 136.45 78.93 138.07 79.88 139.68 80.85 C 138.78 83.29 138.01 85.77 137.37 88.30 C 136.19 84.95 135.53 81.45 134.84 77.98 Z"
     id="path36" />
  <path
     fill="#fdfdfd"
     d=" M 175.13 80.07 C 178.61 78.53 183.43 80.96 183.08 85.05 C 183.72 89.45 177.61 92.98 174.26 89.82 C 170.70 87.60 171.24 81.62 175.13 80.07 Z"
     id="path38" />
  <path
     fill="#fdfdfd"
     d=" M 141.72 82.18 C 143.19 83.18 144.64 84.21 146.08 85.26 C 145.21 87.52 144.42 89.82 143.52 92.07 C 142.69 88.81 141.99 85.53 141.72 82.18 Z"
     id="path40" />
  <path
     fill="#f2bf3d"
     d=" M 313.44 93.94 C 322.73 91.36 332.39 90.36 342.01 90.21 C 342.32 91.83 342.64 93.46 342.98 95.08 C 334.19 94.79 325.34 95.25 316.87 97.76 C 314.16 99.29 314.06 95.63 313.44 93.94 Z"
     id="path42" />
  <path
     fill="#f2bf3d"
     d=" M 343.05 90.15 C 355.43 90.61 367.85 92.86 379.11 98.21 C 378.66 100.03 378.20 101.85 377.79 103.67 C 367.25 98.31 355.61 95.67 343.85 95.06 C 343.59 93.42 343.32 91.78 343.05 90.15 Z"
     id="path44" />
  <path
     fill="#f2bf3d"
     d=" M 420.32 93.65 C 429.21 104.24 436.38 116.39 440.34 129.69 C 440.67 130.97 441.19 132.37 440.61 133.67 C 437.13 142.74 429.59 149.63 421.26 154.29 C 418.89 143.49 414.84 132.97 408.69 123.74 C 414.80 114.81 420.23 104.76 420.32 93.65 Z"
     id="path46" />
  <path
     fill="#f2bf3d"
     d=" M 380.00 98.67 C 387.26 102.47 394.01 107.32 399.54 113.39 C 402.60 116.82 405.88 120.23 407.65 124.55 C 409.05 126.17 410.32 127.93 411.32 129.84 C 415.49 137.79 418.76 146.26 420.37 155.11 L 418.18 154.83 C 418.99 155.44 419.81 156.03 420.65 156.61 C 421.77 165.79 421.41 175.19 418.84 184.12 C 417.50 184.07 416.16 184.03 414.82 183.99 C 417.19 175.28 417.85 166.17 416.86 157.20 L 418.88 157.03 C 418.08 156.51 417.28 155.99 416.48 155.49 C 415.10 145.63 410.96 136.39 405.53 128.12 C 406.14 126.87 406.73 125.60 407.30 124.32 C 406.63 124.99 405.29 126.33 404.62 127.00 C 397.88 117.48 388.75 109.87 378.62 104.17 C 379.07 102.33 379.53 100.50 380.00 98.67 Z"
     id="path48" />
  <path
     fill="#151517"
     d=" M 74.35 106.55 C 94.16 120.47 115.49 132.03 136.35 144.26 C 123.53 146.82 112.10 155.03 105.16 166.05 C 101.05 172.29 98.49 179.38 96.69 186.58 C 80.58 166.83 64.78 146.81 49.74 126.23 C 53.85 127.42 58.58 127.62 62.37 125.35 C 69.28 121.59 72.65 113.87 74.35 106.55 Z"
     id="path50" />
  <path
     fill="#f2bf3d"
     d=" M 421.57 155.29 C 430.15 150.41 437.58 143.30 441.69 134.22 C 444.84 148.10 445.10 162.71 441.62 176.56 C 441.30 178.39 439.54 179.36 438.12 180.30 C 432.54 183.41 426.01 184.03 419.75 184.25 C 422.50 174.84 422.65 164.97 421.57 155.29 Z"
     id="path52" />
  <path
     fill="#f2bf3d"
     d=" M 283.65 172.18 C 286.93 161.03 294.18 151.43 303.49 144.60 C 303.91 145.20 304.76 146.42 305.18 147.02 C 299.53 152.41 295.35 159.29 293.61 166.93 C 290.03 168.15 286.59 169.76 283.65 172.18 Z"
     id="path54" />
  <path
     fill="#fdfdfd"
     d=" M 39.87 148.41 C 44.06 150.51 46.93 154.24 49.32 158.14 C 47.23 157.94 45.15 158.20 43.20 158.99 C 42.38 155.37 41.28 151.83 39.87 148.41 Z"
     id="path56" />
  <path
     fill="#151517"
     d=" M 376.08 154.54 C 375.76 153.28 377.12 151.51 378.45 151.64 C 378.62 152.86 377.38 154.65 376.08 154.54 Z"
     id="path58" />
  <path
     fill="#fdfdfd"
     d=" M 32.83 151.73 C 36.28 153.68 39.18 156.41 41.63 159.50 C 40.02 160.28 38.41 161.05 36.79 161.82 C 35.91 158.30 34.38 155.00 32.83 151.73 Z"
     id="path60" />
  <path
     fill="#fdfdfd"
     d=" M 18.64 159.62 C 22.76 160.70 26.25 163.23 29.48 165.92 C 27.95 167.05 26.41 168.18 24.90 169.33 C 23.38 165.75 21.16 162.56 18.64 159.62 Z"
     id="path62" />
  <path
     fill="#fdfdfd"
     d=" M 12.96 164.73 C 17.13 165.35 20.72 167.67 24.02 170.15 C 22.73 171.65 21.52 173.22 20.46 174.89 C 18.52 171.11 15.66 167.97 12.96 164.73 Z"
     id="path64" />
  <path
     fill="#f2bf3d"
     d=" M 283.46 174.39 C 285.65 170.94 289.68 169.44 293.31 168.03 C 291.98 178.24 292.31 188.76 295.55 198.61 C 292.81 202.12 291.07 206.25 289.60 210.42 C 284.38 199.30 280.82 186.66 283.46 174.39 Z"
     id="path66" />
  <path
     fill="#f2bf3d"
     d=" M 440.50 180.42 C 441.00 179.95 441.00 179.95 440.50 180.42 Z"
     id="path68" />
  <path
     fill="#f2bf3d"
     d=" M 419.45 185.11 C 426.73 185.18 433.98 183.73 440.50 180.42 C 437.88 191.35 433.32 201.83 427.25 211.27 C 426.41 212.88 424.77 213.83 422.96 213.84 C 417.08 214.07 411.43 211.93 406.16 209.53 C 411.87 202.17 416.69 194.05 419.45 185.11 Z"
     id="path70" />
  <path
     fill="#151517"
     d=" M 313.14 187.79 C 319.18 186.00 325.46 185.11 331.70 184.25 C 325.84 186.62 319.41 187.44 313.14 187.79 Z"
     id="path72" />
  <path
     fill="#f2bf3d"
     d=" M 414.49 184.89 C 415.81 184.91 417.14 184.93 418.48 184.95 C 415.72 193.53 411.36 201.67 405.44 208.47 C 404.78 208.36 403.47 208.14 402.81 208.03 C 407.77 200.92 412.11 193.28 414.49 184.89 Z"
     id="path74" />
  <path
     fill="#151517"
     d=" M 374.07 188.80 C 379.00 189.34 383.24 192.04 386.86 195.27 C 390.37 198.36 394.61 200.74 397.32 204.65 C 392.62 201.42 388.36 197.63 383.88 194.13 C 380.96 191.75 377.33 190.59 374.07 188.80 Z"
     id="path76" />
  <path
     fill="#151517"
     d=" M 364.81 197.11 C 366.20 197.02 366.90 197.67 366.90 199.05 C 365.51 199.15 364.81 198.50 364.81 197.11 Z"
     id="path78" />
  <path
     fill="#151517"
     d=" M 366.90 199.05 C 368.77 199.28 370.13 200.96 370.10 202.82 C 368.20 202.60 367.06 200.83 366.90 199.05 Z"
     id="path80" />
  <path
     fill="#f2bf3d"
     d=" M 295.81 199.61 C 299.44 207.79 304.67 215.22 311.59 220.93 C 310.46 225.21 309.87 229.60 309.15 233.96 C 302.39 228.67 296.46 222.26 292.12 214.84 C 288.79 209.74 293.45 204.11 295.81 199.61 Z"
     id="path82" />
  <path
     fill="#7b192e"
     d=" M 370.10 202.82 C 372.08 204.85 373.42 207.40 374.10 210.14 C 372.04 208.17 370.68 205.60 370.10 202.82 Z"
     id="path84" />
  <path
     fill="#f2bf3d"
     d=" M 388.08 222.07 C 393.74 218.38 398.19 213.25 402.70 208.29 C 403.14 208.66 404.04 209.40 404.49 209.77 C 398.48 216.98 391.15 223.29 382.61 227.31 C 383.15 224.53 386.10 223.64 388.08 222.07 Z"
     id="path86" />
  <path
     fill="#7b192e"
     d=" M 374.10 210.14 C 375.91 210.49 376.54 212.73 375.52 214.15 C 374.59 213.05 373.49 211.68 374.10 210.14 Z"
     id="path88" />
  <path
     fill="#f2bf3d"
     d=" M 405.38 210.18 C 411.46 213.21 418.18 215.25 425.05 214.64 C 418.51 223.65 410.29 231.35 400.89 237.31 C 398.72 236.73 396.52 236.15 394.26 236.21 L 395.26 235.48 C 392.28 233.79 389.34 231.99 386.09 230.85 L 387.20 230.61 C 386.24 229.69 385.29 228.77 384.34 227.85 C 392.25 223.14 399.64 217.43 405.38 210.18 Z"
     id="path90" />
  <path
     fill="#151517"
     d=" M 197.77 219.81 C 198.72 218.60 199.27 216.74 200.81 216.18 C 199.55 234.18 196.65 252.44 199.40 270.51 C 201.75 270.26 203.94 269.42 205.88 268.08 C 206.59 272.43 207.47 276.81 206.91 281.24 C 206.06 284.40 203.19 286.25 200.56 287.83 C 200.92 297.85 201.37 307.88 201.49 317.91 C 201.96 327.43 201.38 337.79 206.75 346.16 C 209.13 350.02 213.55 351.89 217.94 352.21 C 220.04 368.82 222.12 385.44 223.33 402.14 C 224.61 410.70 223.78 419.39 224.01 428.00 C 223.75 440.65 214.80 450.81 205.51 458.40 C 198.08 464.67 189.10 471.30 178.78 469.78 C 175.84 473.35 173.41 477.29 171.32 481.41 C 169.43 476.20 170.20 470.62 172.04 465.51 C 168.62 468.65 165.57 472.16 163.04 476.06 C 161.38 470.97 163.28 465.66 165.55 461.08 C 161.91 463.68 158.80 466.89 155.96 470.32 C 155.21 464.85 157.30 459.63 160.38 455.22 C 156.27 457.06 152.67 459.77 149.30 462.70 C 149.33 457.09 152.54 452.40 155.98 448.27 C 151.93 449.68 148.09 451.61 144.38 453.74 C 145.13 446.91 150.41 442.03 155.96 438.69 C 160.52 434.40 166.56 432.38 172.34 430.32 C 177.40 428.63 182.46 426.90 187.68 425.76 C 193.19 431.37 201.38 433.28 209.00 432.10 L 209.02 431.06 C 198.72 433.64 188.21 427.55 183.28 418.58 C 172.00 399.49 162.82 379.25 151.85 359.98 C 144.64 347.35 137.45 334.69 130.28 322.04 C 128.55 318.27 126.33 314.75 124.18 311.21 C 115.95 296.33 110.28 280.22 104.99 264.12 C 102.29 255.85 99.77 247.50 97.99 238.98 C 108.40 240.78 118.96 241.83 129.52 242.23 C 142.69 243.39 156.01 243.28 169.12 241.60 C 181.41 239.31 191.27 230.08 197.77 219.81 Z"
     id="path92" />
  <path
     fill="#f2bf3d"
     d=" M 312.41 221.64 C 318.87 225.81 325.44 229.99 332.83 232.31 C 332.39 237.19 332.98 242.14 334.54 246.79 C 325.82 244.10 317.53 240.10 310.13 234.75 C 310.56 230.33 311.29 225.94 312.41 221.64 Z"
     id="path94" />
  <path
     fill="#f2bf3d"
     d=" M 358.67 233.25 C 366.95 232.38 374.88 229.62 382.32 225.95 C 382.31 226.40 382.29 227.30 382.28 227.75 C 376.39 231.05 369.86 233.31 363.16 234.18 C 363.17 234.35 363.19 234.68 363.20 234.84 C 370.36 234.79 377.01 231.43 383.33 228.37 C 384.24 229.19 385.16 230.03 386.09 230.85 C 388.47 233.11 391.23 234.93 394.26 236.21 C 395.89 236.96 397.60 237.56 399.29 238.19 C 389.43 243.81 378.54 247.77 367.27 249.25 C 365.54 246.84 363.87 244.40 362.22 241.94 C 360.29 239.21 361.78 235.07 358.67 233.25 Z"
     id="path96" />
  <path
     fill="#7b192e"
     d=" M 386.09 230.85 C 389.34 231.99 392.28 233.79 395.26 235.48 L 394.26 236.21 C 391.23 234.93 388.47 233.11 386.09 230.85 Z"
     id="path98" />
  <path
     fill="#f2bf3d"
     d=" M 333.68 233.21 C 335.56 232.78 337.43 232.32 339.32 231.94 C 338.19 232.52 337.07 233.09 335.94 233.65 C 343.46 235.44 351.15 236.29 358.89 235.89 C 359.84 237.98 360.27 240.50 362.22 241.94 C 362.40 245.03 364.78 247.28 366.37 249.73 C 356.27 250.48 345.73 250.37 336.12 246.91 C 333.36 242.99 333.77 237.80 333.68 233.21 Z"
     id="path100" />
  <path
     fill="#fdfdfd"
     d=" M 340.37 233.39 C 343.91 233.18 347.44 233.85 350.99 233.75 C 353.78 233.85 356.72 233.11 359.35 234.37 C 353.03 235.06 346.55 234.92 340.37 233.39 Z"
     id="path102" />
  <path
     fill="#151517"
     d=" M 86.22 313.07 C 94.34 303.44 102.49 293.83 111.20 284.73 C 114.40 293.63 118.55 302.13 122.64 310.64 C 117.02 309.48 111.53 307.79 106.08 305.98 C 111.13 314.30 119.27 320.35 128.02 324.34 C 129.22 324.88 130.41 325.47 131.64 325.97 C 135.90 333.92 140.37 341.77 144.90 349.57 C 137.56 352.22 130.65 355.94 124.00 360.00 C 119.53 363.06 114.32 365.97 112.21 371.26 C 107.10 383.15 103.56 395.63 100.08 408.08 C 98.19 416.24 96.13 424.47 92.20 431.93 C 92.16 422.02 88.46 412.44 82.64 404.52 C 78.13 397.89 73.22 391.55 68.06 385.42 C 69.55 374.64 70.35 363.76 71.35 352.92 C 72.38 346.15 72.26 339.16 74.31 332.57 C 77.00 325.40 81.16 318.81 86.22 313.07 Z"
     id="path104" />
  <path
     fill="#b3092c"
     d=" M 106.08 305.98 C 111.53 307.79 117.02 309.48 122.64 310.64 C 123.02 310.79 123.79 311.07 124.18 311.21 C 126.33 314.75 128.55 318.27 130.28 322.04 C 130.34 323.59 129.58 324.36 128.02 324.34 C 119.27 320.35 111.13 314.30 106.08 305.98 Z"
     id="path106" />
  <path
     fill="#fdfdfd"
     d=" M 285.78 313.99 C 296.73 314.02 307.68 314.02 318.63 313.99 C 316.69 320.42 314.99 327.46 317.20 334.05 C 324.96 359.70 332.74 385.33 340.55 410.96 C 343.92 397.88 347.82 384.94 351.12 371.84 C 347.60 358.99 343.36 346.32 339.56 333.53 C 337.55 326.47 334.13 319.86 329.73 313.99 C 338.81 314.02 347.90 314.01 356.98 314.00 C 356.16 321.48 359.68 328.38 361.56 335.44 C 362.64 330.27 364.41 325.29 365.69 320.17 C 366.33 318.09 365.59 316.00 365.04 314.00 C 372.59 314.01 380.13 314.02 387.68 313.99 C 379.69 321.08 374.65 330.92 372.19 341.22 C 371.00 346.52 368.48 351.66 368.13 357.06 C 372.25 370.96 376.53 384.82 380.84 398.67 C 386.49 379.55 391.46 360.23 396.84 341.03 C 399.57 332.35 400.24 322.79 397.68 314.01 C 406.11 314.00 414.54 314.03 422.98 313.99 C 418.01 321.80 414.79 330.60 412.50 339.53 C 404.06 370.01 395.60 400.49 387.17 430.98 C 386.06 434.91 387.55 438.86 389.64 442.17 C 382.53 442.13 375.42 442.12 368.31 442.17 C 370.41 438.40 370.46 433.88 369.00 429.88 C 365.06 417.84 361.89 405.54 357.70 393.58 C 354.66 404.37 351.67 415.17 348.59 425.95 C 347.08 431.28 347.38 437.23 350.09 442.15 C 340.82 442.15 331.55 442.11 322.28 442.17 C 325.55 435.18 324.19 427.09 322.07 419.97 C 313.97 390.69 304.39 361.85 295.26 332.89 C 293.48 326.03 290.95 319.06 285.78 313.99 Z"
     id="path108" />
  <path
     fill="#151517"
     d=" M 31.23 373.19 C 38.86 369.79 47.18 372.96 54.55 375.48 C 62.41 379.51 67.95 386.67 73.39 393.41 C 80.82 403.18 89.05 413.29 90.88 425.84 C 90.89 428.89 91.85 432.34 89.96 435.04 C 87.49 439.07 82.41 440.29 78.00 440.58 C 67.67 440.30 58.69 434.26 50.97 427.93 C 44.78 422.75 38.40 417.19 35.32 409.52 C 30.86 407.99 26.12 407.63 21.51 406.73 C 23.78 404.46 26.63 402.96 29.60 401.80 L 30.26 402.69 C 30.29 401.71 30.32 400.75 30.36 399.78 C 27.85 400.06 25.33 399.95 22.82 399.76 C 26.30 395.75 31.64 394.77 36.59 393.87 C 32.71 392.03 28.50 391.13 24.28 390.54 C 28.37 386.98 33.88 386.35 39.09 386.53 C 35.37 384.43 31.38 382.86 27.24 381.79 C 28.05 381.14 28.85 380.48 29.64 379.81 C 30.87 380.01 32.07 380.34 33.20 380.88 L 29.81 381.29 C 33.73 382.31 37.45 383.98 40.73 386.36 C 41.39 384.58 42.07 382.82 42.77 381.07 C 39.65 380.18 36.41 379.89 33.19 380.27 C 33.31 379.73 33.33 378.99 34.05 378.94 C 36.41 378.93 38.76 379.04 41.12 379.13 C 37.79 377.03 34.16 375.43 30.39 374.32 C 30.60 374.04 31.02 373.47 31.23 373.19 Z"
     id="path114" />
  <path
     fill="#fdfdfd"
     d=" M 33.15 373.41 C 37.77 372.49 42.49 372.94 47.00 374.17 C 45.69 375.84 44.48 377.60 43.46 379.47 C 40.41 376.82 36.58 375.45 33.15 373.41 Z"
     id="path116" />
  <path
     fill="#fdfdfd"
     d=" M 27.51 389.49 C 31.52 387.67 35.93 387.94 40.21 388.01 C 39.70 389.91 39.20 391.80 38.79 393.73 C 35.33 391.59 31.35 390.65 27.51 389.49 Z"
     id="path118" />
  <path
     fill="#fdfdfd"
     d=" M 25.74 398.57 C 29.50 396.26 33.87 395.56 38.21 395.39 C 37.81 397.24 37.36 399.09 36.94 400.94 C 36.05 400.58 34.27 399.86 33.38 399.50 C 33.36 400.59 33.59 401.66 33.74 402.75 C 34.46 402.55 35.90 402.13 36.62 401.93 C 36.22 404.05 36.00 406.19 35.84 408.35 C 32.03 407.20 28.08 406.64 24.21 405.76 C 27.13 404.26 30.18 402.62 33.60 403.00 C 32.22 401.96 30.34 400.43 32.36 398.95 C 30.15 398.96 27.94 398.78 25.74 398.57 Z"
     id="path120" />
  <path
     fill="#fdfdfd"
     d=" M 145.98 451.30 C 147.70 446.49 151.47 442.99 155.70 440.35 C 155.99 442.54 156.32 444.75 156.94 446.88 C 153.10 447.85 149.48 449.47 145.98 451.30 Z"
     id="path122" />
  <path
     fill="#fdfdfd"
     d=" M 157.63 448.62 C 158.76 450.32 159.87 452.04 161.05 453.72 C 157.23 455.10 153.90 457.41 150.58 459.70 C 152.00 455.47 154.57 451.80 157.63 448.62 Z"
     id="path124" />
  <path
     fill="#fdfdfd"
     d=" M 162.12 455.08 C 163.44 456.59 164.79 458.06 166.18 459.50 C 162.54 461.47 159.66 464.46 156.73 467.32 C 157.45 462.84 159.40 458.68 162.12 455.08 Z"
     id="path126" />
  <path
     fill="#fdfdfd"
     d=" M 167.26 460.62 C 168.81 461.94 170.39 463.24 172.03 464.47 C 168.48 466.57 166.00 469.91 163.43 473.05 C 163.59 468.61 165.16 464.47 167.26 460.62 Z"
     id="path128" />
  <path
     fill="#fdfdfd"
     d=" M 173.24 465.77 C 174.76 466.84 176.26 467.92 177.76 469.03 C 175.57 471.83 173.62 474.79 171.53 477.66 C 171.07 473.61 172.11 469.62 173.24 465.77 Z"
     id="path130" />
</svg>
