<?xml version="1.0" encoding="iso-8859-1"?>
<!DOCTYPE svg PUBLIC "-//W3C//DTD SVG 1.1//EN" "http://www.w3.org/Graphics/SVG/1.1/DTD/svg11.dtd">
<!-- Auto-generated by fig2svg tool
     Date: Sat Oct 28 16:56:09 2006 -->
<svg xmlns="http://www.w3.org/2000/svg"
     xmlns:xlink="http://www.w3.org/1999/xlink"
     width="438" height="480" viewBox="21 15 438 480">
<metadata>
xmlns:rdf="http://www.w3.org/1999/02/22-rdf-syntax-ns#"
         xmlns:dc="http://purl.org/dc/elements/1.1/">

 dc:title="Wappen Hinterrhein (CH-GR)"
 dc:date="2006-10-28"
 dc:format="image/svg+xml"
 dc:language="de">
 dc:creator="http://de.wikipedia.org/wiki/Benutzer:Bernina" 
</metadata>
<title>
Wappen Hinterrhein (CH-GR)
</title>
<defs>
<path id="bart-1"
      d="M3150,540 L2070,540 L2070,810 L2340,810 L2340,1080 L2070,1080
         L2070,1350 L2610,1350 L2610,990 L2880,990 L2880,1350 L3150,1350
         L3150,1620 L2880,1620 L2880,1980 L2610,1980 L2610,1620 L2070,1620
         L2070,1890 L2340,1890 L2340,2160 L2070,2160 L2070,2430 L3150,2430
         L3150,1980 L3420,1980 L3420,3285 L3780,3285 L3780,540 L3420,540
         L3420,990 L3150,990 L3150,540 Z" />
<path id="rund-1" d="M3510,4536 A112,112 0.0 1 0 3690,4536" />
<path id="rund-2"
      d="M4410,3780 A90,90 0.0 0 0 4320,3870 A90,90 0.0 0 0 4410,3960
         L4590,3960 A90,90 0.0 0 0 4680,3870 A90,90 0.0 0 0 4590,3780
         L4410,3780 Z" />
<path id="rund-3"
      d="M2610,3780 A90,90 0.0 0 0 2520,3870 A90,90 0.0 0 0 2610,3960
         L2790,3960 A90,90 0.0 0 0 2880,3870 A90,90 0.0 0 0 2790,3780
         L2610,3780 Z" />
<path id="rund-4"
      d="M3375,2790 A90,90 0.0 0 0 3285,2880 A90,90 0.0 0 0 3375,2970
         L3825,2970 A90,90 0.0 0 0 3915,2880 A90,90 0.0 0 0 3825,2790
         L3375,2790 Z" />
<path id="griff-1"
      d="M3330,4500 L3870,4500 A630,630 0.0 0 0 3870,3240 L3330,3240
         A630,630 0.0 0 0 3330,4500 Z" />
<path id="H-1" d="M3294,4500 L3294,3240" />
<path id="H-2" d="M3906,4500 L3906,3240" />
<path id="H-3" d="M3330,3870 L3870,3870" />
<clipPath id="clippath">
<path d="M360,4140 A3240,3240 0.0 0 0 6840,4140 L6840,270 L360,270 L360,4140 Z" />
</clipPath>
<style type="text/css">
  <![CDATA[
  .Rand1 { stroke: #202020; stroke-width:15; }
  .Rand2 { stroke: #202020; stroke-width:30; }
  .Rand4 { stroke: #202020; stroke-width:60; }
  .Rand6 { stroke: #202020; stroke-width:90; }
  .Silber14 { stroke: #ffffff; stroke-width:210 }
  .Silber12 { stroke: #ffffff; stroke-width:180 }
  .Rand18 { stroke: #202020; stroke-width:270 }
  .Rand16 { stroke: #202020; stroke-width:240 }
  .Blau { fill: #0000ff; }
  .Rot { fill: #ff0000; }
  .Silber { fill: #ffffff; }
  ]]>
</style>
</defs>
<g stroke="none" stroke-miterlimit="10" stroke-width="10"
   stroke-linecap="butt" stroke-linejoin="miter"
   fill="none" fill-rule="evenodd" transform="scale(0.066667)">
<g clip-path="url(#clippath)">
<path id="feld-1" class="Rot"
      d="M-225,-225 L-225,7425 L7425,7425 L7425,-225 L-225,-225 Z" />
<path id="welle1-1" class="Silber Rand2"
      d="M8640,5310 C8220,4950 7800,4590 7380,4620
         C6960,4650 6540,5070 6120,5070 C5700,5070 5280,4650 4860,4650
         C4440,4650 4020,5070 3600,5070 C3180,5070 2760,4650 2340,4650
         C1920,4650 1500,5070 1080,5070 C660,5070 240,4650 -180,4620
         C-600,4590 -1020,4950 -1440,5310 L-1440,6390
         C-1020,6030 -600,5670 -180,5700 C240,5730 660,6150 1080,6150
         C1500,6150 1920,5730 2340,5730 C2760,5730 3180,6150 3600,6150
         C4020,6150 4440,5730 4860,5730 C5280,5730 5700,6150 6120,6150
         C6540,6150 6960,5730 7380,5700 C7800,5670 8220,6030 8640,6390
         L8640,5310 Z" />
<path id="welle2-1" class="Blau Rand1"
      d="M8640,5580 C8220,5220 7800,4860 7380,4890
         C6960,4920 6540,5340 6120,5340 C5700,5340 5280,4920 4860,4920
         C4440,4920 4020,5340 3600,5340 C3180,5340 2760,4920 2340,4920
         C1920,4920 1500,5340 1080,5340 C660,5340 240,4920 -180,4890
         C-600,4860 -1020,5220 -1440,5580 L-1440,6120
         C-1020,5760 -600,5400 -180,5430 C240,5460 660,5880 1080,5880
         C1500,5880 1920,5460 2340,5460 C2760,5460 3180,5880 3600,5880
         C4020,5880 4440,5460 4860,5460 C5280,5460 5700,5880 6120,5880
         C6540,5880 6960,5460 7380,5430 C7800,5400 8220,5760 8640,6120
         L8640,5580 Z" />
<use class="Rand4" xlink:href="#bart-1" />
<use class="Rand4" xlink:href="#rund-1" />
<use class="Rand4" xlink:href="#rund-2" />
<use class="Rand4" xlink:href="#rund-3" />
<use class="Rand4" xlink:href="#rund-4" />
<use class="Rand18" xlink:href="#griff-1" />
<use class="Rand16" xlink:href="#H-1" />
<use class="Rand16" xlink:href="#H-2" />
<use class="Rand16" xlink:href="#H-3" />
<use class="Silber" xlink:href="#bart-1" />
<use class="Silber" xlink:href="#rund-1" />
<use class="Silber" xlink:href="#rund-2" />
<use class="Silber" xlink:href="#rund-3" />
<use class="Silber" xlink:href="#rund-4" />
<use class="Silber14" xlink:href="#griff-1" />
<use class="Silber12" xlink:href="#H-1" />
<use class="Silber12" xlink:href="#H-2" />
<use class="Silber12" xlink:href="#H-3" />
</g>
<path id="clip-boundary" class="Rand6"
      d="M360,4140 A3240,3240 0.0 0 0 6840,4140 L6840,270 L360,270 L360,4140 Z" />
</g>
</svg>
