<?xml version="1.0" encoding="UTF-8" standalone="no"?>
<!-- Created with Inkscape (http://www.inkscape.org/) -->

<svg
   xmlns:svg="http://www.w3.org/2000/svg"
   xmlns="http://www.w3.org/2000/svg"
   version="1.1"
   width="438"
   height="480"
   viewBox="21 15 438 480"
   id="svg4584">
  <title
     id="title4588">
Wappen Nufenen (CH-GR)
</title>
  <defs
     id="defs4590">
    <clipPath
       id="clippath">
      <path
         d="m 360,4140 a 3240,3240 0 0 0 6480,0 l 0,-3870 -6480,0 0,3870 z"
         id="path4593" />
    </clipPath>
    <style
       type="text/css"
       id="style4595" />
  </defs>
  <g
     transform="scale(0.066667,0.066667)"
     clip-path="url(#clippath)"
     id="g4599"
     style="fill:none;stroke:none">
    <path
       d="m -225,-225 0,7650 7650,0 0,-7650 -7650,0 z"
       id="feld-1"
       style="fill:#ff0000" />
    <path
       d="m 1848,4102 224,404 c 383.17,578 766.33,1157 796,1426 29.67,269 -294.17,228 -618,188 -120,-330 -240,-660 -407,-951.33 -167,-291.34 -381,-544 -490.67,-689 -109.66,-145 -115,-182.34 -81.33,-230 C 1304.67,4202 1377.33,4144 1450,4086 l 398,16 z"
       id="axt1-1"
       style="fill:#ffffff;stroke:#202020;stroke-width:30" />
    <path
       d="M 2388,4270 C 3332,3446.67 4276,2623.33 4868,2106.67 5460,1590 5700,1380 5910,1275 c 210,-105 390,-105 495,-165 105,-60 135,-180 135,-270 0,-90 -30,-150 -150,-150 -120,0 -330,60 -840,465 -510,405 -1320,1155 -1845,1545 -525,390 -765,420 -1002,531.67 -237,111.66 -471,305 -705,498.33 l 390,540 z"
       id="stiel-1"
       style="fill:#ffef00;stroke:#202020;stroke-width:30" />
    <path
       d="m 1980,3690 -540,360 c 180,240 360,480 495,735 135,255 225,525 270,825 45,300 45,630 45,960 210,-60 420,-120 615,-270 195,-150 375,-390 510,-585 135,-195 225,-345 315,-495 -240,0 -480,0 -702,-90 -222,-90 -426,-270 -544.33,-389 -118.34,-119 -151,-177 -139,-237 12,-60 68.66,-122 125.33,-184 l -450,-630 z"
       id="axt2-1"
       style="fill:#ffffff;stroke:#202020;stroke-width:30" />
    <path
       d="m 1440,4365 270,360 35,-30 -265,-360 -40,30 z"
       id="axt3-1"
       style="fill:#000000;stroke:#202020;stroke-width:15" />
  </g>
  <path
     d="m 24.00012,276.00138 a 216.00108,216.00108 0 0 0 432.00216,0 l 0,-258.00129 -432.00216,0 0,258.00129 z"
     id="clip-boundary"
     style="fill:none;stroke:#202020;stroke-width:6.00003004;stroke-linecap:butt;stroke-linejoin:miter;stroke-miterlimit:10" />
</svg>
