<?xml version="1.0" encoding="UTF-8" standalone="no"?>
<!-- Created with Inkscape (http://www.inkscape.org/) -->
<svg
   xmlns:svg="http://www.w3.org/2000/svg"
   xmlns="http://www.w3.org/2000/svg"
   version="1.0"
   width="222.51208"
   height="260.63828"
   id="svg2780">
  <defs
     id="defs2782" />
  <g
     transform="translate(-14.418831,-796.81291)"
     id="layer1">
    <path
       d="M 15.418831,797.81291 L 19.428137,966.2285 C 22.29192,1086.5254 229.05782,1086.5254 231.92161,966.2285 L 235.93092,797.81291 L 15.418831,797.81291 z"
       id="path3282"
       style="fill:#ce3129;fill-opacity:1;fill-rule:evenodd;stroke:#000000;stroke-width:1.99999988;stroke-linecap:butt;stroke-miterlimit:4;stroke-dashoffset:0;stroke-opacity:1" />
    <path
       d="M 47.006748,199.52851 C 28.804743,175.56229 52.308428,150.41176 74.437742,173.34437 C 94.781428,194.42654 104.03694,168.32083 103.9884,159.44882 L 103.73903,113.869 C 103.69146,105.17434 95.936461,97.407558 88.083932,95.540106 L 87.959245,72.223761 C 96.833605,79.639785 104.20279,80.372032 104.23778,71.974389 L 104.48715,12.124948 C 119.29006,11.633736 132.85064,17.716534 144.63615,25.591072 L 144.38678,49.032103 C 144.30657,56.571652 150.53797,54.121623 155.85792,47.78524 L 155.85792,72.473134 C 151.41071,75.821143 145.63364,80.944153 145.63364,85.814571 L 145.63364,108.75686 C 145.63364,115.85236 152.09707,109.2949 155.85792,105.55109 L 155.85792,129.57948 C 144.97513,134.44165 144.83516,145.43227 145.01021,157.01047 C 145.34001,178.69873 159.44882,184.42147 173.43869,172.59626 C 203.05558,147.56201 220.03093,183.64904 200.745,197.65821 C 212.59843,169.72842 192.00117,163.93434 175.05961,177.16535 C 193.63875,176.16141 196.98018,182.58929 192.5157,192.67076 C 190.90582,176.66661 175.83473,183.10387 164.83534,186.18707 C 149.13311,190.5885 138.41095,182.22845 134.91061,171.47408 C 134.03815,182.78378 134.45203,200.91355 156.85541,196.66072 C 183.75555,191.5306 191.15776,202.74458 181.29393,220.10176 C 185.68155,201.62371 178.12852,198.79501 150.37172,202.14692 C 181.60507,228.99547 127.71552,246.62483 131.17002,213.61807 C 140.11136,241.49542 170.11735,217.39554 140.39681,203.64316 C 125.70116,196.84314 124.89734,185.93832 124.93571,175.21467 C 122.54063,182.87637 116.13795,192.55803 110.09803,196.28667 C 98.849276,203.23088 128.83711,223.99324 106.29921,236.80972 C 117.59255,220.23942 98.076432,207.06257 102.49217,200.90006 C 92.956441,206.25053 82.946557,216.83501 93.764124,234.44068 C 77.439234,221.06351 83.235104,206.77649 94.211424,198.98125 C 103.84536,192.13936 112.53021,184.92669 110.22272,175.46405 C 106.75841,183.75053 98.138364,194.88189 83.041099,189.42891 C 57.008121,180.02607 57.609836,193.5525 68.577484,207.88249 C 48.088838,196.65426 55.189508,175.90869 73.564938,180.20213 C 53.149606,159.01314 37.160689,177.16535 47.006748,199.52851 z"
       transform="translate(0,804.33069)"
       id="path2476"
       style="fill:#f8db31;fill-opacity:1;fill-rule:evenodd;stroke:#000000;stroke-width:0.99921262;stroke-linecap:butt;stroke-linejoin:round;stroke-miterlimit:4;stroke-dasharray:none;stroke-opacity:1" />
  </g>
</svg>
