<?xml version="1.0" encoding="utf-8"?>
<!-- Generator: Adobe Illustrator 14.0.0, SVG Export Plug-In . SVG Version: 6.00 Build 43363)  -->
<!DOCTYPE svg PUBLIC "-//W3C//DTD SVG 1.1//EN" "http://www.w3.org/Graphics/SVG/1.1/DTD/svg11.dtd">
<svg version="1.1" id="Livello_1" xmlns="http://www.w3.org/2000/svg" xmlns:xlink="http://www.w3.org/1999/xlink" x="0px" y="0px"
	 width="297.638px" height="298.589px" viewBox="0 0 297.638 298.589" enable-background="new 0 0 297.638 298.589"
	 xml:space="preserve">
<g>
	<g>
		<g>
			<path fill="#FFFFFF" d="M67.823,207.987c-1.704-4.943-2.84-9.888-3.313-15.066l20.165-7.533l17.987,3.296l20.354,5.649
				l20.922-5.885l17.798-2.59l14.675,2.59l17.04,4.473l13.539-0.706l18.177-5.179l14.579-1.884l8.71,2.118l9.846,5.65
				c-0.378,5.414-1.515,10.358-3.313,15.302l-8.047-2.354l-23.668-0.235l-19.408,6.592l-21.017-1.413l-23.289-4.708l-21.68,4.473
				l-15.621,2.354l-23.763-7.062l-15.81,0.706l-13.728,3.061L67.823,207.987"/>
			<path fill="#54AD4D" d="M110.52,187.978c5.396,1.883,10.035,3.295,14.201,3.295c4.544,0,10.13-1.647,16-3.53
				c6.816-2.354,13.917-4.474,20.733-4.474s13.916,2.119,20.732,4.474c5.87,1.883,11.455,3.53,16,3.53
				c4.166,0,8.805-1.412,14.201-3.295c6.91-2.354,14.674-4.944,23.762-4.944c4.734,0,11.834,1.648,17.041,3.061
				C250.444,146.545,210.303,115,161.453,115c-48.851,0-88.992,31.545-91.737,71.094c5.207-1.412,12.307-3.061,17.041-3.061
				C95.845,183.033,103.608,185.623,110.52,187.978"/>
			<path fill="#FFCC00" d="M161.453,35.196H69.527v55.557v74.154c4.733-11.771,12.686-22.364,23.573-31.31
				c18.271-15.302,42.507-23.541,68.353-23.541s50.081,8.239,68.353,23.541c10.888,8.945,18.84,19.539,23.573,31.31V90.753V35.196
				H161.453"/>
			<polyline fill="#E2001A" points="148.293,142.308 161.453,155.49 174.612,142.308 148.293,142.308 			"/>
			<path fill="#0088C9" d="M210.588,231.764c-5.303,1.647-10.131,3.531-14.863,3.531c-5.018,0-10.604-1.884-16.474-4.002
				c-5.964-1.884-12.212-4.002-17.798-4.002s-11.834,2.118-17.798,4.002c-5.87,2.118-11.456,4.002-16.473,4.002
				c-4.733,0-9.562-1.884-14.769-3.531c-6.059-2.119-12.97-4.708-20.639-4.708c-1.988,0-4.639,0.471-7.384,1.177
				c3.124,4.002,6.532,8.004,10.414,11.771c17.798,16.949,41.466,26.366,66.649,26.366c25.182,0,48.85-9.417,66.648-26.366
				c3.881-3.767,7.289-7.769,10.414-11.771c-2.746-0.706-5.396-1.177-7.385-1.177C223.463,227.056,216.552,229.645,210.588,231.764"
				/>
			<path fill="#FFCC00" d="M211.439,212.225c-5.302,1.883-10.319,3.767-15.147,3.767c-5.018,0-10.698-1.884-16.662-4.002
				c-6.153-2.119-12.497-4.237-18.177-4.237c-5.681,0-12.023,2.118-18.177,4.237c-5.964,2.118-11.645,4.002-16.662,4.002
				c-4.828,0-9.846-1.884-15.147-3.767c-6.154-2.119-13.159-4.473-20.922-4.473c-4.26,0-11.266,1.883-16.094,3.296
				c1.894,4.237,4.26,8.475,6.911,12.712c3.692-0.941,7.479-1.648,10.414-1.648c8.521,0,15.811,2.59,22.248,4.709
				c5.018,1.883,9.278,3.295,13.159,3.295c4.26,0,9.373-1.647,14.864-3.53c6.343-2.119,12.97-4.238,19.408-4.238
				s13.064,2.119,19.407,4.238c5.491,1.883,10.698,3.53,14.864,3.53c3.881,0,8.141-1.412,13.158-3.295
				c6.438-2.119,13.729-4.709,22.248-4.709c2.936,0,6.723,0.707,10.414,1.648c2.65-4.237,5.018-8.475,6.911-12.712
				c-4.828-1.413-11.834-3.296-16.095-3.296C224.599,207.752,217.594,210.105,211.439,212.225"/>
			<path d="M250.35,206.339c-5.112-1.647-12.971-3.767-17.988-3.767c-8.615,0-16.094,2.59-22.626,4.944
				c-5.112,1.883-9.468,3.295-13.443,3.295c-4.261,0-9.562-1.647-15.053-3.53c-6.532-2.119-13.254-4.474-19.786-4.474
				c-6.533,0-13.254,2.354-19.787,4.474c-5.491,1.883-10.792,3.53-15.053,3.53c-3.976,0-8.331-1.412-13.443-3.295
				c-6.532-2.354-14.011-4.944-22.626-4.944c-5.018,0-12.875,2.119-17.988,3.767c-2.367,0.707-4.166,1.178-4.828,1.413
				c0.663,1.647,1.23,3.296,1.894,4.708c1.893,4.473,4.071,8.475,6.627,12.477c0.947,1.648,1.894,3.061,2.935,4.473
				c3.503,5.18,7.574,9.888,12.118,14.125c18.745,17.891,43.644,27.778,70.152,27.778c26.508,0,51.406-9.888,70.151-27.778
				c4.544-4.237,8.615-8.945,12.118-14.125c1.041-1.412,2.082-2.824,2.935-4.473c2.556-4.002,4.733-8.004,6.627-12.477
				c0.663-1.412,1.231-3.061,1.894-4.708C254.516,207.517,252.717,207.046,250.35,206.339z M228.102,240.003
				c-17.799,16.949-41.467,26.366-66.648,26.366c-25.183,0-48.851-9.417-66.649-26.366c-3.882-3.767-7.29-7.769-10.414-11.771
				c2.746-0.706,5.396-1.177,7.384-1.177c7.668,0,14.58,2.589,20.639,4.708c5.207,1.647,10.035,3.531,14.769,3.531
				c5.018,0,10.604-1.884,16.473-4.002c5.964-1.884,12.212-4.002,17.798-4.002s11.834,2.118,17.798,4.002
				c5.87,2.118,11.456,4.002,16.474,4.002c4.732,0,9.561-1.884,14.863-3.531c5.964-2.119,12.875-4.708,20.543-4.708
				c1.988,0,4.639,0.471,7.385,1.177C235.391,232.234,231.982,236.236,228.102,240.003z M241.545,223.76
				c-3.691-0.941-7.479-1.648-10.414-1.648c-8.52,0-15.811,2.59-22.248,4.709c-5.018,1.883-9.277,3.295-13.158,3.295
				c-4.166,0-9.373-1.647-14.864-3.53c-6.343-2.119-12.97-4.238-19.407-4.238s-13.065,2.119-19.408,4.238
				c-5.491,1.883-10.604,3.53-14.864,3.53c-3.881,0-8.142-1.412-13.159-3.295c-6.438-2.119-13.728-4.709-22.248-4.709
				c-2.935,0-6.722,0.707-10.414,1.648c-2.651-4.237-5.018-8.475-6.911-12.712c4.828-1.413,11.834-3.296,16.094-3.296
				c7.763,0,14.769,2.354,20.922,4.473c5.302,1.883,10.319,3.767,15.147,3.767c5.018,0,10.698-1.884,16.662-4.002
				c6.154-2.119,12.497-4.237,18.177-4.237c5.68,0,12.023,2.118,18.177,4.237c5.964,2.118,11.645,4.002,16.662,4.002
				c4.828,0,9.846-1.884,15.147-3.767c6.154-2.119,13.159-4.473,20.922-4.473c4.261,0,11.267,1.883,16.095,3.296
				C246.562,215.285,244.195,219.522,241.545,223.76"/>
			<path d="M255.936,30.252h-94.482H66.971h-2.461v2.589v57.911v96.989v3.06v2.119c2.177-0.706,15.431-4.943,22.248-4.943
				c8.237,0,15.621,2.589,22.153,4.708c5.585,1.883,10.792,3.767,15.81,3.767c5.302,0,11.266-1.884,17.514-4.002
				c6.438-2.119,13.16-4.237,19.219-4.237s12.78,2.118,19.219,4.237c6.248,2.118,12.212,4.002,17.514,4.002
				c5.018,0,10.225-1.884,15.811-3.767c6.531-2.119,13.916-4.708,22.152-4.708c6.816,0,20.07,4.237,22.248,4.943v-2.119v-3.06
				V90.753V32.842v-2.589H255.936z M176.979,73.097c0,8.475-6.91,15.537-15.525,15.537s-15.526-7.062-15.526-15.537
				c0-8.71,6.911-15.537,15.526-15.537S176.979,64.387,176.979,73.097z M210.967,127.006l-40.236,40.255l-1.23,1.178l-8.047,8.004
				l-8.047-8.004c-0.096,0-1.231-1.178-1.231-1.178l-40.235-40.255l-3.692-3.767l-13.917-13.889l8.047-8.004l16.757,16.714
				l3.881,4.002l37.207,37.194l1.23,1.178l1.23-1.178l37.206-37.194l3.882-4.002l16.756-16.714l8.048,8.004l-13.917,13.889
				L210.967,127.006z M148.293,142.308h26.319l-13.159,13.183L148.293,142.308z M178.115,138.776h-33.325l-18.082-18.126
				c10.698-3.531,22.437-5.65,34.745-5.65c12.307,0,24.047,2.119,34.744,5.65L178.115,138.776z M69.527,90.753V35.196h90.127v18.833
				c-2.178,0.236-4.26,0.707-6.154,1.648l-10.224-17.656l-3.124,1.648l10.319,17.891c-1.798,1.177-3.313,2.825-4.544,4.473
				l-17.798-10.358l-1.799,3.061l17.798,10.358c-0.852,1.883-1.42,4.002-1.609,6.121h-20.544v3.531h20.544
				c0.189,2.354,0.757,4.237,1.609,6.356L126.33,91.224l1.799,3.061l17.798-10.123c1.23,1.648,2.746,3.061,4.544,4.473
				l-10.319,17.656l3.124,1.883L153.5,90.282c1.895,0.941,3.977,1.647,6.154,1.647v18.127c-12.875,0.235-25.372,2.589-36.922,6.591
				L103.608,97.58l-1.23-1.177l-1.231,1.177l-10.603,10.593l-1.231,1.177l1.231,1.177l14.485,14.596
				c-4.166,2.354-8.237,5.179-11.929,8.475c-10.887,8.945-18.84,19.539-23.573,31.31V90.753z M236.148,183.033
				c-9.088,0-16.852,2.59-23.762,4.944c-5.396,1.883-10.035,3.295-14.201,3.295c-4.545,0-10.13-1.647-16-3.53
				c-6.816-2.354-13.916-4.474-20.732-4.474s-13.917,2.119-20.733,4.474c-5.87,1.883-11.455,3.53-16,3.53
				c-4.166,0-8.804-1.412-14.201-3.295c-6.911-2.354-14.674-4.944-23.763-4.944c-4.733,0-11.834,1.648-17.041,3.061
				c1.609-23.541,16.662-44.492,39.004-57.205l39.762,39.549l1.23,1.177l10.51,10.594l1.23,1.177l1.23-1.177l10.508-10.594
				l1.231-1.177l39.763-39.549c22.342,12.712,37.395,33.664,39.004,57.205C247.982,184.682,240.883,183.033,236.148,183.033z
				 M253.379,90.753v74.154c-4.733-11.771-12.686-22.364-23.573-31.31c-3.692-3.296-7.763-6.121-11.929-8.475l14.484-14.596
				l1.231-1.177l-1.231-1.177L221.759,97.58l-1.231-1.177l-1.23,1.177l-19.123,19.068c-11.551-4.002-24.047-6.356-36.922-6.591
				V91.93c2.178,0,4.26-0.706,6.153-1.647l10.319,17.891l3.029-1.883l-10.319-17.656c1.799-1.413,3.313-2.825,4.544-4.473
				l17.799,10.123l1.799-3.061l-17.799-10.123c0.853-2.119,1.42-4.002,1.609-6.356h20.544v-3.531h-20.544
				c-0.189-2.119-0.757-4.237-1.609-6.121l17.799-10.358l-1.799-3.061l-17.799,10.358c-1.23-1.648-2.745-3.295-4.544-4.473
				l10.319-17.891l-3.029-1.648l-10.319,17.656c-1.894-0.941-3.976-1.412-6.153-1.648V35.196h90.127V90.753"/>
			<path fill="#E2001A" d="M162.684,159.257l-1.23,1.178l-1.23-1.178l-57.845-57.911l-8.047,8.004l57.844,57.91
				c0,0,1.136,1.178,1.231,1.178l8.047,8.004l8.047-8.004l1.23-1.178l57.845-57.91l-8.048-8.004L162.684,159.257"/>
			<polyline fill="none" points="64.509,30.252 64.509,271.312 258.396,271.312 258.396,30.252 			"/>
		</g>
	</g>
</g>
</svg>
