<?xml version="1.0" encoding="UTF-8" standalone="no"?>
<svg
   xmlns:dc="http://purl.org/dc/elements/1.1/"
   xmlns:cc="http://creativecommons.org/ns#"
   xmlns:rdf="http://www.w3.org/1999/02/22-rdf-syntax-ns#"
   xmlns:svg="http://www.w3.org/2000/svg"
   xmlns="http://www.w3.org/2000/svg"
   xmlns:xlink="http://www.w3.org/1999/xlink"
   xmlns:sodipodi="http://sodipodi.sourceforge.net/DTD/sodipodi-0.dtd"
   xmlns:inkscape="http://www.inkscape.org/namespaces/inkscape"
   height="763"
   width="603"
   version="1.0"
   id="svg20"
   sodipodi:version="0.32"
   inkscape:version="0.48.2 r9819"
   sodipodi:docname="Blason_Vide_CH_3D.svg"
   inkscape:output_extension="org.inkscape.output.svg.inkscape"
   sodipodi:modified="true">
  <metadata
     id="metadata31">
    <rdf:RDF>
      <cc:Work
         rdf:about="">
        <dc:format>image/svg+xml</dc:format>
        <dc:type
           rdf:resource="http://purl.org/dc/dcmitype/StillImage" />
        <dc:date></dc:date>
        <dc:creator>
          <cc:Agent>
            <dc:title></dc:title>
          </cc:Agent>
        </dc:creator>
        <cc:license
           rdf:resource="" />
        <dc:coverage />
        <dc:description></dc:description>
        <dc:subject>
          <rdf:Bag />
        </dc:subject>
        <dc:language></dc:language>
        <dc:title></dc:title>
      </cc:Work>
    </rdf:RDF>
  </metadata>
  <defs
     id="defs29">
    <linearGradient
       id="linearGradient2893">
      <stop
         style="stop-color: rgb(255, 255, 255); stop-opacity: 0.313726;"
         offset="0"
         id="stop2895" />
      <stop
         id="stop2897"
         offset="0.19"
         style="stop-color: rgb(255, 255, 255); stop-opacity: 0.25098;" />
      <stop
         style="stop-color: rgb(107, 107, 107); stop-opacity: 0.12549;"
         offset="0.60000002"
         id="stop2901" />
      <stop
         style="stop-color: rgb(0, 0, 0); stop-opacity: 0.12549;"
         offset="1"
         id="stop2899" />
    </linearGradient>
    <radialGradient
       inkscape:collect="always"
       xlink:href="#linearGradient2893"
       id="radialGradient3236"
       gradientUnits="userSpaceOnUse"
       gradientTransform="matrix(1.21503, 1.53158e-24, 1.46468e-23, 1.26667, -839.192, -490.489)"
       cx="858.04236"
       cy="579.93323"
       fx="858.04236"
       fy="579.93323"
       r="300" />
  </defs>
  <sodipodi:namedview
     inkscape:window-height="952"
     inkscape:window-width="1280"
     inkscape:pageshadow="2"
     inkscape:pageopacity="0.0"
     guidetolerance="10.0"
     gridtolerance="10.0"
     objecttolerance="10.0"
     borderopacity="1.0"
     bordercolor="#666666"
     pagecolor="#ffffff"
     id="base"
     inkscape:zoom="0.67103539"
     inkscape:cx="154.11638"
     inkscape:cy="370.87718"
     inkscape:window-x="-4"
     inkscape:window-y="-4"
     inkscape:current-layer="layer1"
     showgrid="false"
     inkscape:window-maximized="1" />
  <desc
     id="desc22">Coat of Arms of Canton of Freiburg (Fribourg)</desc>
  <g
     inkscape:groupmode="layer"
     id="layer1"
     inkscape:label="Fond écu"
     style="display:inline">
    <path
       id="path1899"
       d="m 1.5,1.49998 0,458.86792 C 1.5,626.6785 135.81456,761.5 301.49999,761.5 467.18543,761.5 601.5,626.6785 601.5,460.3679 l 0,-458.86792 -600,0 z"
       style="fill:#000000;fill-opacity:1"
       inkscape:connector-curvature="0" />
    <path
       style="fill:#fcef3c;fill-opacity:1;display:inline"
       d="m 1.5,355.49998 0,104.86792 C 1.5,626.6785 135.81456,761.5 301.49999,761.5 467.18543,761.5 601.5,626.6785 601.5,460.3679 l 0,-104.86792 z"
       id="path2997"
       inkscape:connector-curvature="0"
       sodipodi:nodetypes="cssscc" />
  </g>
  <g
     inkscape:groupmode="layer"
     id="layer2"
     inkscape:label="Meubles"
     style="display:inline"
     sodipodi:insensitive="true">
    <g
       style="display:inline"
       id="g6885"
       transform="matrix(0.86932168,0,0,0.86932168,34.269472,22.704483)">
      <path
         sodipodi:nodetypes="ccccccccccccccccccccccccccccccccccc"
         id="path18199"
         d="m 301.63629,41.854716 c -15.69007,43.957812 -20.16363,87.915584 -79.91825,131.873394 11.33647,10.58339 18.62625,22.45405 45.02412,-5.45273 -4.60339,14.01557 -12.9834,26.22925 2.56879,31.97553 -21.99998,42.59601 -58.26497,64.75072 -107.53164,55.57655 8.88926,26.1295 20.66177,47.54095 61.02927,22.16065 l -16.35816,23.25116 c 13.31973,3.4e-4 26.63941,1.00113 39.95913,-13.08647 -42.38691,45.72407 -86.10246,88.3079 -159.836547,59.93869 41.465307,70.1504 49.025807,65.62854 105.000787,33.06608 l -29.79448,38.86858 c 36.9989,3.79405 44.55464,-26.06116 63.21033,-43.23077 -42.11797,61.3069 -98.64352,128.69607 -212.882156,63.21033 30.657726,67.419 63.879264,123.04447 123.149016,58.84819 l -18.88901,36.68748 c 68.64212,7.97845 60.01951,-0.49169 87.55204,-51.21435 l -6.54324,46.5024 c 52.18826,-29.75845 76.09179,-61.68068 96.62621,-104.26 32.47701,40.59772 65.80508,80.13161 109.7127,106.44105 l -2.18109,-42.14022 c 31.38321,55.92054 46.46667,58.52316 103.16949,52.30495 l -24.34175,-37.77807 c 62.68405,43.44437 93.50789,1.44469 107.53165,-62.11979 -54.43885,42.11515 -139.45834,37.70378 -210.7011,-53.04564 23.1346,22.14928 46.2692,55.94266 69.40376,31.23479 l -25.08245,-32.67515 c 70.15407,45.70773 79.05564,-13.07408 102.81965,-46.50236 -35.07823,24.31853 -105.64734,28.14575 -171.48271,-50.86459 11.04786,5.41097 26.7225,12.76654 37.7704,6.68327 L 379.7477,277.48159 c 31.11499,37.30732 58.2181,-1.78881 69.37936,-18.38254 -74.6372,9.94126 -94.20269,-26.92848 -111.89379,-65.39138 13.26991,-0.55684 13.59448,-10.36034 6.54324,-25.43229 12.30372,21.47368 27.64196,23.22322 45.76167,6.89304 -60.77025,-34.75494 -61.7321,-84.976385 -87.90189,-133.313704 z"
         style="fill:#5ab532;fill-opacity:1;fill-rule:evenodd;stroke:#000000;stroke-width:3;stroke-linecap:butt;stroke-linejoin:miter;stroke-miterlimit:4;stroke-opacity:1;stroke-dasharray:none"
         inkscape:connector-curvature="0" />
      <path
         sodipodi:nodetypes="csccscc"
         id="path22634"
         d="m 271.84185,450.61485 c 0,0 -0.47218,19.24097 -2.5309,65.83196 -1.7964,40.65503 -53.10229,204.45022 -88.40496,186.79165 127.82207,-3.79608 237.56175,64.7726 222.896,-12.46107 -59.4711,-40.04984 -70.93626,-135.15994 -75.64286,-154.35102 -8.27743,-33.75107 -5.45273,-85.81152 -5.45273,-85.81152 z"
         style="fill:#5ab532;fill-opacity:1;fill-rule:evenodd;stroke:#000000;stroke-width:3;stroke-linecap:butt;stroke-linejoin:miter;stroke-miterlimit:4;stroke-opacity:1;stroke-dasharray:none"
         inkscape:connector-curvature="0" />
      <path
         sodipodi:nodetypes="cccccccccccc"
         id="path21747"
         d="m 218.4464,420.02615 c 16.76182,28.32282 17.59691,31.35944 46.5024,17.79847 l -14.72437,27.97956 c 13.68322,9.3116 33.36645,20.88014 47.04967,38.86862 l 0,-104.62621 0,104.62621 c 14.41027,-17.63618 34.82054,-32.12231 49.23077,-41.04967 l -16.16468,-29.07011 c 30.41445,16.75647 32.17123,22.79874 51.21435,-10.16468 -44.44533,-17.341 -44.76328,-54.17294 -65.39138,-82.09935 l -27.96319,0 c -21.79796,29.7877 -39.92993,69.35134 -69.75357,77.73716 z"
         style="fill:#5ab532;fill-opacity:1;fill-rule:evenodd;stroke:#000000;stroke-width:3;stroke-linecap:butt;stroke-linejoin:miter;stroke-miterlimit:4;stroke-opacity:1;stroke-dasharray:none"
         inkscape:connector-curvature="0" />
      <path
         sodipodi:nodetypes="cccccccccccccc"
         id="path20860"
         d="m 292.56215,277.98811 c -15.89984,20.14353 -28.68889,41.8425 -55.22674,56.66705 l 34.15663,27.61339 9.07414,-18.88906 -9.07414,18.88906 29.0537,18.88902 1.09055,-65.39142 -1.09055,65.39142 27.61339,-21.07011 -5.45273,-16.70797 5.45273,16.70797 31.23476,-26.52284 c -29.76166,-15.86521 -33.83439,-36.0119 -47.94272,-54.48596 7.80985,0 -7.6348,-1.09055 -18.88902,-1.09055 z"
         style="fill:#5ab532;fill-opacity:1;fill-rule:evenodd;stroke:#000000;stroke-width:3;stroke-linecap:butt;stroke-linejoin:miter;stroke-miterlimit:4;stroke-opacity:1;stroke-dasharray:none"
         inkscape:connector-curvature="0" />
      <path
         sodipodi:nodetypes="ccccccc"
         id="path19973"
         d="m 300.19594,202.78181 c -6.51362,20.96143 -18.19489,39.33908 -36.33768,54.48596 8.45328,17.45389 23.81664,31.45278 37.77803,46.1526 l 0,-50.86455 0,50.86455 c 14.57192,-13.76367 30.26009,-23.06221 42.14022,-47.59291 -25.11245,-15.69268 -32.09142,-33.54113 -43.58057,-53.04565 z"
         style="fill:#5ab532;fill-opacity:1;fill-rule:evenodd;stroke:#000000;stroke-width:3;stroke-linecap:butt;stroke-linejoin:miter;stroke-miterlimit:4;stroke-opacity:1;stroke-dasharray:none"
         inkscape:connector-curvature="0" />
      <path
         sodipodi:nodetypes="ccccccc"
         id="path19086"
         d="m 303.81738,120.68242 c -3.22642,28.40517 -14.21006,53.70738 -31.97553,76.29685 l 29.79444,34.50644 0,-42.14022 0,42.14022 35.59698,-35.24718 c -17.28217,-19.4416 -26.14185,-42.64152 -33.41589,-75.55611 z"
         style="fill:#5ab532;fill-opacity:1;fill-rule:evenodd;stroke:#000000;stroke-width:3;stroke-linecap:butt;stroke-linejoin:miter;stroke-miterlimit:4;stroke-opacity:1;stroke-dasharray:none"
         inkscape:connector-curvature="0" />
    </g>
    <path
       style="fill:#5ab532;fill-opacity:1;stroke:#000000;stroke-width:3;stroke-linecap:butt;stroke-linejoin:miter;stroke-miterlimit:4;stroke-opacity:1;stroke-dasharray:none;display:inline"
       d="m 449.59375,520.1875 c 0,0 -41.02485,23.52332 -58.40625,31.9375 -28.31445,13.41211 -26.24453,22.25039 -30.91846,38.00195 -12.49765,-22.99453 -42.86279,15.6543 -42.86279,15.6543 0,0 -17.30586,-8.7702 -25.99158,-12.44284 C 247.74877,575.02931 235.86533,543.97685 226.5,532 c -11.92188,-14.90234 -22.06238,-20.02453 -22.06238,-20.02453 0,0 -13.30725,11.45666 -31.56262,29.71203 -4.71254,4.71254 -32.7832,49.92774 -52.15625,72.28125 -8.70959,10.04953 -34.441654,19.04841 -60.125,25.90625 C 115.27003,713.68159 202.82879,761.5 301.5,761.5 c 105.98103,0 199.13212,-55.15563 252.5,-138.4375 -6.15071,-15.41222 -26.1926,-31.77719 -39.125,-44.09375 -15.64746,-14.90235 -21.61718,-12.6836 -39.5,-21.625 -17.88281,-8.94141 -7.44336,-12.66015 -17.875,-27.5625 -5.21582,-7.45117 -7.90625,-9.59375 -7.90625,-9.59375 z"
       id="path3801"
       inkscape:connector-curvature="0"
       sodipodi:nodetypes="cccccccsscscsssc" />
    <path
       style="fill:none;stroke:#000000;stroke-width:3;stroke-linecap:butt;stroke-linejoin:miter;stroke-miterlimit:4;stroke-opacity:1;stroke-dasharray:none;display:inline"
       d="m 317.46649,605.79192 c 0,0 -24.26288,15.63581 -44.00848,19.73396 -19.74561,4.09814 -23.47119,25.33398 -40.23633,28.31445"
       id="path3810"
       inkscape:connector-curvature="0" />
    <path
       style="fill:none;stroke:#000000;stroke-width:3;stroke-linecap:butt;stroke-linejoin:miter;stroke-miterlimit:4;stroke-opacity:1;stroke-dasharray:none;display:inline"
       d="m 248.12402,661.66406 c 0,0 -30.17724,17.1377 -44.33447,28.68701"
       id="path3812"
       inkscape:connector-curvature="0" />
    <path
       style="fill:none;stroke:#000000;stroke-width:3;stroke-linecap:butt;stroke-linejoin:miter;stroke-miterlimit:4;stroke-opacity:1;stroke-dasharray:none;display:inline"
       d="m 360.32237,589.78354 c 0,0 -2.04573,18.57794 -21.27675,33.33051"
       id="path3814"
       inkscape:connector-curvature="0" />
  </g>
  <g
     inkscape:groupmode="layer"
     id="layer3"
     inkscape:label="Reflet final"
     style="display:inline"
     sodipodi:insensitive="true">
    <path
       style="fill:url(#radialGradient3236) #000000;fill-opacity:1"
       d="m 1.5,1.5 0,458.8679 C 1.5,626.67854 135.81454,761.5 301.49993,761.5 467.1854,761.5 601.5,626.67854 601.5,460.3679 L 601.5,1.5 1.5,1.5 z"
       id="path2346"
       inkscape:connector-curvature="0" />
  </g>
  <g
     inkscape:groupmode="layer"
     id="layer4"
     inkscape:label="Contour final"
     style="display:inline"
     sodipodi:insensitive="true">
    <path
       style="fill:none;stroke:#000000;stroke-width:3;stroke-miterlimit:4;stroke-opacity:1;stroke-dasharray:none"
       d="m 1.5,1.5 0,458.86794 C 1.5,626.67854 135.81454,761.5 301.49993,761.5 467.1854,761.5 601.5,626.67854 601.5,460.36794 L 601.5,1.5 1.5,1.5 z"
       id="path3239"
       inkscape:connector-curvature="0" />
  </g>
</svg>
