<?xml version="1.0" encoding="UTF-8" standalone="no"?>
<!-- Created with Inkscape (http://www.inkscape.org/) -->
<svg
   xmlns:svg="http://www.w3.org/2000/svg"
   xmlns="http://www.w3.org/2000/svg"
   xmlns:xlink="http://www.w3.org/1999/xlink"
   version="1.0"
   width="603"
   height="763"
   id="svg20">
  <defs
     id="defs29">
    <linearGradient
       id="linearGradient2893">
      <stop
         style="stop-color:white;stop-opacity:0.3137255"
         offset="0"
         id="stop2895" />
      <stop
         style="stop-color:white;stop-opacity:0.25098041"
         offset="0.19"
         id="stop2897" />
      <stop
         style="stop-color:#6b6b6b;stop-opacity:0.1254902"
         offset="0.60000002"
         id="stop2901" />
      <stop
         style="stop-color:black;stop-opacity:0.1254902"
         offset="1"
         id="stop2899" />
    </linearGradient>
    <linearGradient
       id="linearGradient2955">
      <stop
         style="stop-color:white;stop-opacity:0"
         offset="0"
         id="stop2965" />
      <stop
         style="stop-color:black;stop-opacity:0.64583331"
         offset="1"
         id="stop2959" />
    </linearGradient>
    <radialGradient
       cx="858.04236"
       cy="579.93323"
       r="300"
       fx="858.04236"
       fy="579.93323"
       id="radialGradient3236"
       xlink:href="#linearGradient2893"
       gradientUnits="userSpaceOnUse"
       gradientTransform="matrix(1.215027,0,0,1.266667,-839.1924,-490.4894)" />
  </defs>
  <desc
     id="desc22">Coat of Arms of Canton of Freiburg (Fribourg)</desc>
  <g
     id="layer1">
    <path
       d="M 1.5,1.49998 L 1.5,460.3679 C 1.5,626.6785 135.81456,761.5 301.49999,761.5 C 467.18543,761.5 601.5,626.6785 601.5,460.3679 L 601.5,1.49998 L 1.5,1.49998 z "
       style="fill:#fcef3c;fill-opacity:1"
       id="path1899" />
  </g>
  <g
     id="layer2">
    <path
       d="M 299.71711,760.35517 C 200.36724,758.51507 134.57224,719.87633 72.861015,655.07213 C 54.548679,577.11787 187.4009,539.54518 212.18594,586.11054 L 299.71711,759.51037 L 212.18594,586.11054 C 191.95336,487.83616 405.27114,518.31985 388.75645,586.11054 L 300.56199,759.69907 L 388.75645,586.11054 C 422.91904,522.9667 559.51553,574.25485 532.98191,650.19163 C 459.76422,737.08806 379.68729,758.65437 299.71711,760.35517 z "
       style="fill:#5ab532;fill-opacity:1;fill-rule:evenodd;stroke:black;stroke-width:4.01766396px;stroke-linecap:butt;stroke-linejoin:miter;stroke-opacity:1"
       id="path10882" />
    <path
       d="M 75.845697,392.70581 C 48.513414,374.12735 37.772505,400.7443 38.679365,415.58225 C 42.552455,405.99731 57.003089,405.48434 70.939089,413.46025 L 75.845697,392.70581 z "
       style="fill:#e2090f;fill-opacity:0.94117647;fill-rule:evenodd;stroke:black;stroke-width:4.1664052px;stroke-linecap:butt;stroke-linejoin:miter;stroke-opacity:1"
       id="path23393" />
    <path
       d="M 57.544514,429.79456 C 35.909039,430.63613 10.7907,429.25943 31.495649,470.1544 C 36.551749,456.78399 45.290408,449.77877 59.997818,453.56632 L 57.544514,429.79456 z "
       style="fill:#e2090f;fill-opacity:0.94117647;fill-rule:evenodd;stroke:black;stroke-width:4.1664052px;stroke-linecap:butt;stroke-linejoin:miter;stroke-opacity:1"
       id="path23395" />
    <path
       d="M 57.058086,471.12726 C 31.264456,503.53685 57.796581,519.89224 77.734995,518.5157 C 67.932569,507.19828 64.982296,498.68578 76.254588,488.04665 L 57.058086,471.12726 z "
       style="fill:#e2090f;fill-opacity:0.94117647;fill-rule:evenodd;stroke:black;stroke-width:4.1664052px;stroke-linecap:butt;stroke-linejoin:miter;stroke-opacity:1"
       id="path23397" />
    <path
       d="M 160.73178,509.85158 C 151.12555,520.57378 137.66969,523.39664 126.17387,520.63769 C 136.45527,533.74541 185.83391,546.06188 178.77915,510.5142 L 160.73178,509.85158 z "
       style="fill:#e2090f;fill-opacity:0.94117647;fill-rule:evenodd;stroke:black;stroke-width:4.1664052px;stroke-linecap:butt;stroke-linejoin:miter;stroke-opacity:1"
       id="path24284" />
    <path
       d="M 225.27227,420.15754 L 132.79358,437.30959 C 117.39142,422.65693 108.93579,415.28393 97.938602,397.21382 C 87.603376,380.23134 56.470331,389.0412 67.8442,425.8306 C 92.039305,444.53522 114.96478,439.98205 132.79358,437.30959 C 115.05503,439.87755 92.174005,445.12993 67.8442,426.69505 C 52.289052,421.04099 53.067211,445.6424 59.51139,458.14162 C 85.998518,462.5493 99.237103,460.47834 117.4013,455.18605 C 99.006535,460.34377 86.128385,463.31712 59.51139,458.14162 C 42.335135,471.90421 64.740062,490.36563 74.287712,491.47286 C 84.915919,492.7054 113.19681,477.5956 134.50668,462.30802 C 141.23401,478.97364 137.73444,495.63926 155.3387,512.30488 L 179.18804,515.16708 C 190.85618,489.89358 162.18898,477.35753 153.6256,458.47293 L 180.33713,458.14162 C 193.76621,484.60083 211.70454,500.61766 245.69541,479.46007 C 227.14428,477.97108 210.02352,473.7803 201.16916,453.97521 C 216.42012,449.291 231.67108,449.10052 246.92204,438.6138 L 225.27227,420.15754 z "
       style="fill:#e20909;fill-opacity:1;fill-rule:evenodd;stroke:black;stroke-width:4.1664052px;stroke-linecap:butt;stroke-linejoin:miter;stroke-opacity:1"
       id="path22506" />
    <path
       d="M 212.97617,387.27294 L 213.66837,416.47757 L 244.25737,442.22124 C 262.99074,458.53192 281.72406,424.51819 300.45742,413.01662 C 275.83293,396.8755 242.51302,395.22682 212.97617,387.27294 z "
       style="fill:#e20909;fill-opacity:1;fill-rule:evenodd;stroke:black;stroke-width:4.1664052px;stroke-linecap:butt;stroke-linejoin:miter;stroke-opacity:1"
       id="path19827" />
    <path
       d="M 125.43367,63.150922 C 144.33331,32.997732 170.81515,16.811791 210.39729,24.757917 C 197.86016,37.330252 185.88333,45.420327 174.43655,49.269919 C 201.55755,48.829321 225.88919,41.764057 244.31362,20.66909 C 244.16738,34.335398 243.61379,47.939044 229.59379,59.470945 C 252.44681,53.194964 275.52182,47.190216 288.81878,29.234594 C 285.04889,44.651334 284.26423,61.773967 265.94234,68.875271 C 294.37914,78.568995 307.55285,52.648873 323.55289,33.32342 C 309.17588,108.28417 283.03356,155.2933 191.99749,95.410604 C 169.3562,84.901473 135.42462,80.471751 125.43367,63.150922 z "
       style="fill:#e20909;fill-opacity:1;fill-rule:evenodd;stroke:black;stroke-width:4.1664052px;stroke-linecap:butt;stroke-linejoin:miter;stroke-opacity:1"
       id="path26945" />
    <path
       d="M 385.92839,394.95333 C 398.87141,397.09837 411.81439,395.54867 424.75737,386.64706 L 404.61755,360.27751 L 424.75737,386.64706 C 431.61544,381.74395 437.5559,375.46443 440.74407,365.05654 L 415.06673,342.21423 L 440.74407,365.05654 C 456.76698,312.01467 397.20968,308.06517 357.41597,315.08618 C 519.8811,273.71161 466.64828,424.43361 415.75889,425.54233 C 581.34324,466.15095 535.41421,180.43843 358.10818,316.4706 C 477.40414,172.42743 639.32939,385.14237 453.96199,453.98846 C 588.02032,502.471 609.64121,372.20293 569.24379,285.82252 L 546.98077,312.31744 C 548.94128,290.04301 549.88705,267.88131 543.39917,246.54557 C 501.09237,200.83927 432.31064,195.7138 354.64723,308.85649 C 355.66754,193.00881 568.19523,119.09616 546.98077,312.31744 C 708.47905,137.51796 339.55014,13.038611 346.27463,300.48389 C 317.21796,150.48785 446.65774,6.0019278 563.65964,165.80106 C 630.18884,-31.926315 168.87406,-51.809025 342.35454,305.61969 L 385.92839,394.95333 z "
       style="fill:#e20909;fill-opacity:1;fill-rule:nonzero;stroke:black;stroke-width:4.1664052px;stroke-linecap:butt;stroke-linejoin:miter;stroke-opacity:1"
       id="path20714" />
    <path
       d="M 319.08242,437.30959 C 341.61117,463.48703 378.45794,487.13775 359.49255,520.63769 C 313.72805,523.04671 305.0001,484.49796 276.16445,499.80567 L 273.71115,527.17982 L 276.16445,499.80567 C 247.5927,498.07315 244.30087,516.20343 245.9281,538.19863 C 255.05648,533.99518 262.64967,523.65104 273.71115,527.17982 C 301.81163,529.11357 333.62284,541.50542 359.92252,520.63769 C 333.63872,541.66754 302.03937,529.0275 273.71115,527.17982 C 272.74216,538.79459 269.16651,547.16673 277.79997,559.84844 C 269.40112,546.34808 273.77806,538.59719 273.71115,527.17982 C 261.77598,535.05291 232.78697,554.99949 264.32786,580.27157 C 267.39213,571.38021 265.41617,556.31374 277.79997,559.84844 C 304.48567,554.70418 338.12235,557.19664 359.49255,541.46972 C 337.8712,557.22131 315.02155,553.82044 288.43097,559.0307 L 305.15309,587.22259 L 289.6576,563.52841 C 280.20357,573.08702 268.55676,609.57198 310.46859,609.66906 C 304.31068,600.96027 300.67258,595.93142 304.76528,587.22259 C 339.31269,598.32614 369.84711,559.28855 373.37355,542.69639 C 385.80252,559.50733 392.23079,581.61299 421.98862,583.13377 L 448.13615,577.81827 L 421.98862,583.13377 C 423.85855,592.39477 419.3937,601.65581 412.5843,610.91681 C 432.39485,608.68179 448.82077,602.70587 448.13615,577.81827 C 433.07064,555.46084 410.40839,544.47815 389.20923,530.66239 L 389.20923,513.91924 C 412.75154,509.22087 436.85511,501.12242 434.71441,463.03614 C 418.57309,472.32593 411.59632,496.2648 386.1235,486.89148 C 387.71432,467.0633 379.35184,446.7665 357.53476,432.14004 L 319.08242,437.30959 z "
       style="fill:#e20909;fill-opacity:1;fill-rule:evenodd;stroke:black;stroke-width:4.1664052px;stroke-linecap:butt;stroke-linejoin:miter;stroke-opacity:1"
       id="path21619" />
    <path
       d="M 139.01402,76.789399 C 91.199192,5.3763838 49.751128,52.248607 59.155412,88.947677 C 81.568963,60.492672 107.16294,77.86554 126.29253,116.14043 C 90.942541,112.41287 64.933341,117.09203 60.311923,141.0202 C 73.156783,131.1734 102.05193,135.08395 124.55776,133.518 C 135.19864,120.86242 137.07402,97.750666 139.01402,76.789399 z "
       style="fill:#e20909;fill-opacity:1;fill-rule:evenodd;stroke:black;stroke-width:4.1664052px;stroke-linecap:butt;stroke-linejoin:miter;stroke-opacity:1"
       id="path25171" />
    <path
       d="M 59.034045,237.09558 C 32.539751,273.08511 31.104466,307.60057 48.969969,340.98072 L 63.928571,315.25417 C 66.350502,338.80436 62.646318,364.71073 97.48638,375.79241 L 95.528545,343.91741 C 152.26681,405.608 221.74812,384.02931 296.99647,416.47757 L 281.05898,386.83538 L 296.99647,416.47757 L 309.99724,441.50024 L 367.32381,435.3518 L 359.49255,395.64554 C 285.69931,349.85217 139.73423,352.32409 160.96135,260.58931 C 139.58486,352.26801 285.4222,350.1821 359.49255,395.64554 C 373.4428,402.92262 386.15996,410.58935 395.28318,427.52054 C 378.17608,241.14945 251.61233,284.41215 225.41522,221.862 C 238.32437,222.9178 251.23347,222.32238 264.14258,213.05184 C 189.12333,207.46153 264.10075,95.095832 135.50983,72.122192 C 138.60559,93.528431 135.03394,114.32854 117.88085,133.89398 C 152.20649,153.39184 183.57289,143.62087 195.97357,98.855888 C 183.66788,143.70765 152.1949,153.23347 117.88085,133.89398 L 59.034045,237.09558 z "
       style="fill:#e20909;fill-opacity:1;fill-rule:evenodd;stroke:black;stroke-width:4.1664052px;stroke-linecap:butt;stroke-linejoin:miter;stroke-opacity:1"
       id="path18940" />
    <path
       d="M 660.49528,597.6333 C 660.49548,598.40246 660.40294,599.11357 660.25256,599.4984 C 660.10219,599.88324 659.91685,599.88324 659.76648,599.4984 C 659.6161,599.11357 659.52356,598.40246 659.52376,597.6333 C 659.52356,596.86414 659.6161,596.15303 659.76648,595.7682 C 659.91685,595.38336 660.10219,595.38336 660.25256,595.7682 C 660.40294,596.15303 660.49548,596.86414 660.49528,597.6333 z "
       transform="matrix(16.64392,0,0,4.384116,-10828.08,-2516.45)"
       style="fill:black;fill-opacity:1;fill-rule:nonzero;stroke:black;stroke-width:0.46253011;stroke-miterlimit:4;stroke-dasharray:none;stroke-opacity:1"
       id="path26058" />
    <path
       d="M 123.23414,111.84357 C 93.839692,94.728397 32.337138,111.99531 30.268977,69.848168 C 10.443263,74.838521 0.34114779,112.33371 34.51296,117.39172 C 65.188242,119.46293 77.654709,92.910011 123.23414,111.84357 z "
       style="fill:#e20909;fill-opacity:1;fill-rule:evenodd;stroke:black;stroke-width:4.1664052px;stroke-linecap:butt;stroke-linejoin:miter;stroke-opacity:1"
       id="path27832" />
    <path
       d="M 51.256158,191.90059 C 44.345926,213.62597 47.809875,227.69671 58.460956,236.48329 C 55.632259,240.01977 52.174767,247.8832 49.149457,249.04704 C 19.052723,260.62548 1.266798,199.73718 51.256158,191.90059 C 65.453017,172.20166 81.373684,173.17922 119.14527,136.99712 C 145.81018,189.14693 99.393177,254.65006 68.583904,241.58226 C 65.973817,240.4752 61.063501,238.24763 58.822267,236.54282 C 47.829165,228.1811 44.479334,213.5406 51.256158,191.90059 z "
       style="fill:#e20909;fill-opacity:1;fill-rule:evenodd;stroke:black;stroke-width:4.1664052px;stroke-linecap:butt;stroke-linejoin:miter;stroke-opacity:1"
       id="path28723" />
  </g>
  <g
     style="display:inline"
     id="layer3">
    <path
       d="M 1.5,1.5 L 1.5,460.3679 C 1.5,626.67854 135.81454,761.5 301.49993,761.5 C 467.1854,761.5 601.5,626.67854 601.5,460.3679 L 601.5,1.5 L 1.5,1.5 z "
       style="fill:url(#radialGradient3236);fill-opacity:1"
       id="path2346" />
  </g>
  <g
     style="display:inline"
     id="layer4">
    <path
       d="M 1.5,1.5 L 1.5,460.36794 C 1.5,626.67854 135.81454,761.5 301.49993,761.5 C 467.1854,761.5 601.5,626.67854 601.5,460.36794 L 601.5,1.5 L 1.5,1.5 z "
       style="fill:none;fill-opacity:1;stroke:black;stroke-width:3;stroke-miterlimit:4;stroke-dasharray:none;stroke-opacity:1"
       id="path3239" />
  </g>
</svg>
