<?xml version="1.0" encoding="UTF-8" standalone="no"?>
<!-- Created with Inkscape (http://www.inkscape.org/) -->
<svg
   xmlns:svg="http://www.w3.org/2000/svg"
   xmlns="http://www.w3.org/2000/svg"
   xmlns:xlink="http://www.w3.org/1999/xlink"
   version="1.0"
   width="603"
   height="763"
   id="svg20">
  <defs
     id="defs29">
    <linearGradient
       id="linearGradient2893">
      <stop
         style="stop-color:white;stop-opacity:0.3137255"
         offset="0"
         id="stop2895" />
      <stop
         style="stop-color:white;stop-opacity:0.25098041"
         offset="0.19"
         id="stop2897" />
      <stop
         style="stop-color:#6b6b6b;stop-opacity:0.1254902"
         offset="0.60000002"
         id="stop2901" />
      <stop
         style="stop-color:black;stop-opacity:0.1254902"
         offset="1"
         id="stop2899" />
    </linearGradient>
    <radialGradient
       cx="858.04236"
       cy="579.93323"
       r="300"
       fx="858.04236"
       fy="579.93323"
       id="radialGradient3236"
       xlink:href="#linearGradient2893"
       gradientUnits="userSpaceOnUse"
       gradientTransform="matrix(1.215027,0,0,1.266667,-839.1924,-490.4894)" />
    <radialGradient
       cx="858.04236"
       cy="579.93323"
       r="300"
       fx="858.04236"
       fy="579.93323"
       id="radialGradient2564"
       xlink:href="#linearGradient2893"
       gradientUnits="userSpaceOnUse"
       gradientTransform="matrix(1.215027,0,0,1.266667,-839.1924,-490.4894)" />
    <linearGradient
       id="linearGradient2955">
      <stop
         style="stop-color:white;stop-opacity:0"
         offset="0"
         id="stop2965" />
      <stop
         style="stop-color:black;stop-opacity:0.64583331"
         offset="1"
         id="stop2959" />
    </linearGradient>
    <linearGradient
       id="linearGradient2551">
      <stop
         style="stop-color:white;stop-opacity:0.3137255"
         offset="0"
         id="stop2553" />
      <stop
         style="stop-color:white;stop-opacity:0.25098041"
         offset="0.19"
         id="stop2555" />
      <stop
         style="stop-color:#6b6b6b;stop-opacity:0.1254902"
         offset="0.60000002"
         id="stop2557" />
      <stop
         style="stop-color:black;stop-opacity:0.1254902"
         offset="1"
         id="stop2559" />
    </linearGradient>
  </defs>
  <desc
     id="desc22">Coat of Arms of Canton of Freiburg (Fribourg)</desc>
  <g
     style="display:inline"
     id="layer1">
    <path
       d="M 1.5,1.49998 L 1.5,460.3679 C 1.5,626.6785 135.81456,761.5 301.49999,761.5 C 467.18543,761.5 601.5,626.6785 601.5,460.3679 L 601.5,1.49998 L 1.5,1.49998 z "
       style="fill:white;fill-opacity:1"
       id="path1899" />
  </g>
  <g
     style="display:inline"
     id="layer2">
    <path
       d="M 2.09375,2.09375 L 2.09375,152.84375 L 446.59375,723.96875 C 508.09332,689.78791 556.35662,634.56521 581.75,567.96875 L 140.28125,2.09375 L 2.09375,2.09375 z "
       style="fill:#2b5df2;fill-rule:evenodd;stroke:black;stroke-width:4;stroke-linecap:butt;stroke-linejoin:miter;stroke-miterlimit:4;stroke-dasharray:none;stroke-opacity:1"
       id="path20379" />
    <path
       d="M 466.25667,24.034567 C 470.64518,23.9922 499.83526,89.43445 503.4102,92.01491 C 506.98515,94.59536 577.54217,101.15215 578.93805,105.36978 C 580.33392,109.5874 527.95336,157.95072 526.63699,162.19453 C 525.32062,166.43834 540.97207,236.48459 537.44625,239.13359 C 533.92044,241.7826 472.35739,206.2305 467.96888,206.27286 C 463.58037,206.31523 402.69648,243.04941 399.12153,240.46896 C 395.54658,237.8885 409.87908,167.5528 408.48322,163.33517 C 407.08733,159.11754 353.80758,111.77424 355.12395,107.53044 C 356.44032,103.28663 426.86135,95.36886 430.38716,92.71986 C 433.91298,90.07086 461.86816,24.076932 466.25667,24.034567 z "
       style="fill:#2b5df2;fill-opacity:1;fill-rule:nonzero;stroke:black;stroke-width:4;stroke-linecap:butt;stroke-linejoin:miter;stroke-miterlimit:5;stroke-dasharray:none;stroke-opacity:1"
       id="path18949" />
  </g>
  <g
     style="display:inline"
     id="layer3">
    <path
       d="M 1.5,1.5 L 1.5,460.3679 C 1.5,626.67854 135.81454,761.5 301.49993,761.5 C 467.1854,761.5 601.5,626.67854 601.5,460.3679 L 601.5,1.5 L 1.5,1.5 z "
       style="fill:url(#radialGradient3236);fill-opacity:1"
       id="path2346" />
  </g>
  <g
     style="display:inline"
     id="layer4">
    <path
       d="M 1.5,1.5 L 1.5,460.36794 C 1.5,626.67854 135.81454,761.5 301.49993,761.5 C 467.1854,761.5 601.5,626.67854 601.5,460.36794 L 601.5,1.5 L 1.5,1.5 z "
       style="fill:none;fill-opacity:1;stroke:black;stroke-width:3;stroke-miterlimit:4;stroke-dasharray:none;stroke-opacity:1"
       id="path3239" />
  </g>
</svg>
