<?xml version="1.0" encoding="UTF-8" standalone="no"?>
<svg xmlns:dc="http://purl.org/dc/elements/1.1/" xmlns:cc="http://creativecommons.org/ns#" xmlns:rdf="http://www.w3.org/1999/02/22-rdf-syntax-ns#" xmlns:svg="http://www.w3.org/2000/svg" xmlns="http://www.w3.org/2000/svg" xmlns:xlink="http://www.w3.org/1999/xlink" xmlns:sodipodi="http://sodipodi.sourceforge.net/DTD/sodipodi-0.dtd" xmlns:inkscape="http://www.inkscape.org/namespaces/inkscape" height="763" width="603" version="1.0" id="svg20" sodipodi:version="0.32" inkscape:version="0.48.0 r9654" sodipodi:docname="Lugnez-coat_of_arms.svg" inkscape:output_extension="org.inkscape.output.svg.inkscape">
  <metadata id="metadata31">
    <rdf:RDF>
      <cc:Work rdf:about="">
        <dc:format>image/svg+xml</dc:format>
        <dc:type rdf:resource="http://purl.org/dc/dcmitype/StillImage" />
        <dc:date>07-AUG-2006</dc:date>
        <dc:creator>
          <cc:Agent>
            <dc:title>Jérôme BLUM (wagner51)</dc:title>
          </cc:Agent>
        </dc:creator>
        <cc:license rdf:resource="http://creativecommons.org/licenses/GPL/2.0/" />
        <dc:coverage />
        <dc:description>Gabarit pour le Projet:Blasons de WIkipédia</dc:description>
        <dc:subject>
          <rdf:Bag>
            <rdf:li>blason suisse modèle gabarit projet blasons</rdf:li>
          </rdf:Bag>
        </dc:subject>
        <dc:language>fr</dc:language>
        <dc:title>Gabrit d'un blason suisse</dc:title>
      </cc:Work>
      <cc:License rdf:about="http://creativecommons.org/licenses/GPL/2.0/">
        <cc:permits rdf:resource="http://web.resource.org/cc/Reproduction" />
        <cc:permits rdf:resource="http://web.resource.org/cc/Distribution" />
        <cc:requires rdf:resource="http://web.resource.org/cc/Notice" />
        <cc:permits rdf:resource="http://web.resource.org/cc/DerivativeWorks" />
        <cc:requires rdf:resource="http://web.resource.org/cc/ShareAlike" />
        <cc:requires rdf:resource="http://web.resource.org/cc/SourceCode" />
      </cc:License>
    </rdf:RDF>
  </metadata>
  <defs id="defs29">
    <inkscape:perspective sodipodi:type="inkscape:persp3d" inkscape:vp_x="0 : 381.5 : 1" inkscape:vp_y="0 : 1000 : 0" inkscape:vp_z="603 : 381.5 : 1" inkscape:persp3d-origin="301.5 : 254.33333 : 1" id="perspective28" />
    <linearGradient id="linearGradient2893">
      <stop style="stop-color:#ffffff;stop-opacity:0.3137255;" offset="0" id="stop2895" />
      <stop id="stop2897" offset="0.19" style="stop-color:#ffffff;stop-opacity:0.25098041;" />
      <stop style="stop-color:#6b6b6b;stop-opacity:0.1254902;" offset="0.60000002" id="stop2901" />
      <stop style="stop-color:#000000;stop-opacity:0.1254902;" offset="1" id="stop2899" />
    </linearGradient>
    <linearGradient id="linearGradient2955">
      <stop style="stop-color:white;stop-opacity:0;" offset="0" id="stop2965" />
      <stop style="stop-color:black;stop-opacity:0.64583331;" offset="1" id="stop2959" />
    </linearGradient>
    <radialGradient inkscape:collect="always" xlink:href="#linearGradient2893" id="radialGradient3236" gradientUnits="userSpaceOnUse" gradientTransform="matrix(1.215027,0,0,1.266667,-839.1924,-490.4894)" cx="858.04236" cy="579.93323" fx="858.04236" fy="579.93323" r="300" />
    <inkscape:perspective id="perspective2512" inkscape:persp3d-origin="297.63751 : 280.63 : 1" inkscape:vp_z="595.27502 : 420.94501 : 1" inkscape:vp_y="0 : 1000 : 0" inkscape:vp_x="0 : 420.94501 : 1" sodipodi:type="inkscape:persp3d" />
  </defs>
  <sodipodi:namedview inkscape:window-height="753" inkscape:window-width="1280" inkscape:pageshadow="2" inkscape:pageopacity="0.0" guidetolerance="10.0" gridtolerance="10.0" objecttolerance="10.0" borderopacity="1.0" bordercolor="#666666" pagecolor="#ffffff" id="base" inkscape:zoom="0.61819518" inkscape:cx="241.39351" inkscape:cy="418.48226" inkscape:window-x="-2" inkscape:window-y="24" inkscape:current-layer="layer1" showgrid="false" showguides="true" inkscape:guide-bbox="true" inkscape:window-maximized="1">
    <sodipodi:guide orientation="horizontal" position="761.5" id="guide1885" />
    <sodipodi:guide orientation="vertical" position="1.5" id="guide1887" />
    <sodipodi:guide orientation="horizontal" position="1.5" id="guide1889" />
    <sodipodi:guide orientation="vertical" position="601.5" id="guide1891" />
    <sodipodi:guide orientation="vertical" position="301.50081" id="guide1893" />
  </sodipodi:namedview>
  <desc id="desc22">Coat of Arms of Canton of Freiburg (Fribourg)</desc>
  <g inkscape:groupmode="layer" id="layer1" inkscape:label="Fond écu" sodipodi:insensitive="true">
    <path id="path1899" d="m 1.5,1.49998 0,458.86792 C 1.5,626.6785 135.81456,761.5 301.49999,761.5 467.18543,761.5 601.5,626.6785 601.5,460.3679 l 0,-458.86792 -600,0 z" style="fill:white;fill-opacity:1" inkscape:connector-curvature="0" />
  </g>
  <g inkscape:groupmode="layer" id="layer2" inkscape:label="Meubles" style="display:inline" sodipodi:insensitive="true">
    <path id="path2481" d="m 551.939,5.271 c 0,11.81 -9.574,21.383 -21.385,21.383 -4.262,0 -8.225,-1.262 -11.56,-3.411 2.695,3.578 4.312,8.014 4.312,12.838 0,11.81 -9.574,21.384 -21.384,21.384 -4.263,0 -8.225,-1.262 -11.56,-3.412 2.695,3.578 4.312,8.014 4.312,12.838 0,11.81 -9.574,21.384 -21.385,21.384 -4.262,0 -8.225,-1.262 -11.56,-3.411 2.695,3.577 4.313,8.013 4.313,12.837 0,11.81 -9.574,21.384 -21.384,21.384 -4.265,0 -8.227,-1.262 -11.563,-3.413 2.696,3.578 4.313,8.014 4.313,12.839 0,11.81 -9.573,21.384 -21.384,21.384 -4.262,0 -8.225,-1.262 -11.56,-3.412 2.695,3.578 4.312,8.013 4.312,12.838 0,11.81 -9.574,21.384 -21.385,21.384 -4.263,0 -8.224,-1.262 -11.56,-3.412 2.695,3.578 4.313,8.014 4.313,12.838 0,11.81 -9.574,21.384 -21.385,21.384 -4.264,0 -8.225,-1.262 -11.559,-3.412 2.694,3.579 4.312,8.014 4.312,12.838 0,11.81 -9.574,21.384 -21.385,21.384 -4.262,0 -8.224,-1.262 -11.56,-3.412 2.695,3.578 4.312,8.014 4.312,12.837 0,11.81 -9.573,21.384 -21.384,21.384 -11.81,0 -21.384,-9.574 -21.384,-21.384 0,-4.824 1.617,-9.26 4.312,-12.838 -3.335,2.15 -7.296,3.412 -11.56,3.412 -11.811,0 -21.384,-9.575 -21.384,-21.384 0,-4.824 1.616,-9.26 4.312,-12.838 -3.335,2.15 -7.297,3.412 -11.56,3.412 -11.81,0 -21.384,-9.574 -21.384,-21.384 0,-4.824 1.617,-9.26 4.313,-12.839 -3.335,2.151 -7.298,3.413 -11.561,3.413 -11.81,0 -21.384,-9.574 -21.384,-21.384 0,-4.825 1.616,-9.26 4.311,-12.838 -3.335,2.149 -7.296,3.412 -11.56,3.412 -11.81,0 -21.384,-9.574 -21.384,-21.384 0,-4.824 1.617,-9.26 4.312,-12.838 -3.335,2.149 -7.297,3.412 -11.56,3.412 -11.81,0 -21.384,-9.574 -21.384,-21.384 0,-4.825 1.617,-9.26 4.312,-12.837 -3.335,2.149 -7.297,3.411 -11.56,3.411 -11.81,0 -21.385,-9.574 -21.385,-21.384 0,-4.824 1.617,-9.261 4.313,-12.839 -3.336,2.15 -7.298,3.413 -11.561,3.413 -11.811,0 -21.384,-9.575 -21.384,-21.384 0,-4.824 1.617,-9.26 4.312,-12.838 -3.335,2.149 -7.297,3.411 -11.56,3.411 -11.811,0 -21.384,-9.574 -21.384,-21.383 0,-1.288 0.124,-2.546 0.344,-3.77 l -49.898,0 0,94.099 c 0.883,2.344 1.389,4.873 1.389,7.526 0,2.65 -0.502,5.175 -1.389,7.513 l 0,3.755 c 2.642,-1.175 5.559,-1.841 8.637,-1.841 11.809,0 21.384,9.574 21.384,21.383 0,4.825 -1.618,9.262 -4.313,12.84 3.336,-2.15 7.298,-3.413 11.562,-3.413 11.809,0 21.383,9.574 21.383,21.383 0,4.824 -1.617,9.26 -4.312,12.838 3.335,-2.15 7.297,-3.412 11.561,-3.412 11.809,0 21.384,9.575 21.384,21.384 0,4.824 -1.618,9.26 -4.313,12.838 3.336,-2.15 7.298,-3.412 11.561,-3.412 11.809,0 21.384,9.574 21.384,21.383 0,4.824 -1.617,9.26 -4.312,12.838 3.335,-2.15 7.296,-3.412 11.56,-3.412 11.81,0 21.384,9.575 21.384,21.384 0,4.824 -1.617,9.261 -4.313,12.839 3.335,-2.15 7.297,-3.412 11.562,-3.412 11.809,0 21.383,9.574 21.383,21.383 0,4.825 -1.617,9.261 -4.312,12.839 3.335,-2.15 7.298,-3.412 11.561,-3.412 11.809,0 21.383,9.575 21.383,21.384 0,4.824 -1.617,9.26 -4.312,12.838 3.335,-2.15 7.297,-3.412 11.561,-3.412 11.809,0 21.383,9.575 21.383,21.384 0,11.809 -9.574,21.384 -21.383,21.384 -4.264,0 -8.226,-1.262 -11.561,-3.412 2.695,3.577 4.312,8.014 4.312,12.838 0,11.809 -9.574,21.384 -21.383,21.384 -4.263,0 -8.226,-1.263 -11.561,-3.412 2.695,3.578 4.312,8.014 4.312,12.839 0,11.809 -9.574,21.383 -21.383,21.383 -4.265,0 -8.227,-1.262 -11.562,-3.412 2.696,3.578 4.313,8.014 4.313,12.838 0,11.811 -9.575,21.385 -21.384,21.385 -4.263,0 -8.225,-1.262 -11.56,-3.412 2.694,3.578 4.312,8.014 4.312,12.838 0,11.811 -9.575,21.383 -21.384,21.383 -4.263,0 -8.225,-1.262 -11.561,-3.41 2.695,3.578 4.313,8.014 4.313,12.838 0,11.809 -9.575,21.383 -21.384,21.383 -4.264,0 -8.226,-1.26 -11.561,-3.41 2.695,3.578 4.312,8.014 4.312,12.838 0,11.809 -9.574,21.383 -21.383,21.383 -4.264,0 -8.226,-1.262 -11.562,-3.412 2.696,3.578 4.313,8.014 4.313,12.84 0,5.526 -2.115,10.547 -5.557,14.343 13.265,30.839 31.504,59.016 53.725,83.495 0.009,-11.802 9.578,-21.367 21.383,-21.367 4.263,0 8.226,1.262 11.561,3.412 -2.696,-3.578 -4.313,-8.014 -4.313,-12.84 0,-11.809 9.575,-21.383 21.385,-21.383 4.263,0 8.225,1.262 11.56,3.412 -2.694,-3.578 -4.312,-8.014 -4.312,-12.838 0,-11.811 9.574,-21.385 21.384,-21.385 4.263,0 8.224,1.262 11.56,3.412 -2.695,-3.578 -4.312,-8.014 -4.312,-12.838 0,-11.811 9.574,-21.385 21.384,-21.385 4.263,0 8.225,1.262 11.559,3.412 -2.694,-3.578 -4.311,-8.014 -4.311,-12.838 0,-11.811 9.574,-21.385 21.384,-21.385 4.263,0 8.225,1.264 11.561,3.412 -2.695,-3.578 -4.312,-8.014 -4.312,-12.838 0,-11.811 9.574,-21.383 21.384,-21.383 4.263,0 8.225,1.262 11.56,3.412 -2.695,-3.578 -4.312,-8.016 -4.312,-12.84 0,-11.809 9.574,-21.383 21.384,-21.383 4.263,0 8.225,1.262 11.56,3.412 -2.695,-3.578 -4.312,-8.014 -4.312,-12.838 0,-11.811 9.574,-21.385 21.384,-21.385 11.811,0 21.384,9.574 21.384,21.385 0,4.824 -1.616,9.26 -4.312,12.838 3.336,-2.15 7.297,-3.412 11.56,-3.412 11.811,0 21.385,9.574 21.385,21.383 0,4.824 -1.617,9.262 -4.312,12.84 3.334,-2.15 7.295,-3.412 11.559,-3.412 11.811,0 21.385,9.572 21.385,21.383 0,4.824 -1.617,9.26 -4.313,12.838 3.336,-2.148 7.298,-3.412 11.56,-3.412 11.811,0 21.385,9.574 21.385,21.385 0,4.824 -1.616,9.26 -4.311,12.838 3.335,-2.15 7.297,-3.412 11.559,-3.412 11.811,0 21.384,9.574 21.384,21.385 0,4.824 -1.616,9.26 -4.312,12.838 3.335,-2.15 7.297,-3.412 11.562,-3.412 11.81,0 21.384,9.574 21.384,21.385 0,4.824 -1.617,9.26 -4.313,12.838 3.335,-2.15 7.298,-3.412 11.56,-3.412 11.811,0 21.385,9.574 21.385,21.383 0,4.824 -1.616,9.262 -4.312,12.84 3.335,-2.15 7.297,-3.412 11.56,-3.412 11.806,0 21.377,9.568 21.383,21.372 22.223,-24.48 40.464,-52.659 53.729,-83.501 -3.441,-3.795 -5.557,-8.815 -5.557,-14.342 0,-4.824 1.616,-9.26 4.312,-12.838 -3.335,2.15 -7.298,3.41 -11.56,3.41 -11.811,0 -21.385,-9.572 -21.385,-21.383 0,-4.824 1.616,-9.26 4.313,-12.838 -3.336,2.15 -7.298,3.412 -11.561,3.412 -11.811,0 -21.384,-9.574 -21.384,-21.385 0,-4.824 1.617,-9.26 4.313,-12.838 -3.334,2.148 -7.298,3.412 -11.562,3.412 -11.811,0 -21.385,-9.574 -21.385,-21.385 0,-4.824 1.617,-9.26 4.313,-12.838 -3.335,2.15 -7.298,3.412 -11.56,3.412 -11.811,0 -21.384,-9.574 -21.384,-21.385 0,-4.824 1.616,-9.26 4.312,-12.838 -3.336,2.15 -7.297,3.412 -11.561,3.412 -11.81,0 -21.384,-9.574 -21.384,-21.383 0,-4.824 1.616,-9.261 4.312,-12.839 -3.335,2.149 -7.296,3.412 -11.56,3.412 -11.811,0 -21.384,-9.574 -21.384,-21.384 0,-4.825 1.618,-9.262 4.313,-12.839 -3.335,2.15 -7.297,3.412 -11.561,3.412 -11.81,0 -21.384,-9.574 -21.384,-21.383 0,-11.811 9.574,-21.384 21.384,-21.384 4.263,0 8.225,1.262 11.56,3.411 -2.694,-3.578 -4.312,-8.014 -4.312,-12.837 0,-11.81 9.573,-21.384 21.384,-21.384 4.264,0 8.225,1.262 11.56,3.412 -2.695,-3.578 -4.312,-8.014 -4.312,-12.838 0,-11.81 9.574,-21.384 21.384,-21.384 4.263,0 8.225,1.261 11.561,3.411 -2.695,-3.578 -4.312,-8.014 -4.312,-12.837 0,-11.81 9.573,-21.384 21.384,-21.384 4.262,0 8.225,1.262 11.56,3.411 -2.695,-3.578 -4.313,-8.014 -4.313,-12.837 0,-11.81 9.574,-21.384 21.385,-21.384 4.264,0 8.228,1.262 11.562,3.413 -2.695,-3.578 -4.313,-8.015 -4.313,-12.839 0,-11.81 9.573,-21.384 21.384,-21.384 4.264,0 8.225,1.262 11.561,3.412 -2.696,-3.578 -4.313,-8.014 -4.313,-12.838 0,-11.81 9.574,-21.384 21.385,-21.384 4.263,0 8.225,1.262 11.56,3.412 -2.695,-3.578 -4.312,-8.013 -4.312,-12.838 0,-11.81 9.574,-21.384 21.384,-21.384 3.079,0 5.995,0.667 8.637,1.841 l 0,-3.755 c -0.886,-2.337 -1.389,-4.863 -1.389,-7.512 0,-2.653 0.506,-5.182 1.389,-7.526 l 0,-94.098 -49.903,0 c 0.218,1.224 0.342,2.482 0.342,3.77 z" style="fill:#e20909;fill-opacity:1" inkscape:connector-curvature="0" />
    <path style="fill:none;stroke:black;stroke-width:3;stroke-linejoin:round" d="m 79.687,663.118 c 0.009,-11.802 9.578,-21.367 21.383,-21.367 4.263,0 8.226,1.262 11.561,3.412 -2.696,-3.578 -4.313,-8.014 -4.313,-12.84 0,-11.809 9.575,-21.383 21.385,-21.383 4.263,0 8.225,1.262 11.56,3.412 -2.694,-3.578 -4.312,-8.014 -4.312,-12.838 0,-11.811 9.574,-21.385 21.384,-21.385 4.263,0 8.224,1.262 11.56,3.412 -2.695,-3.578 -4.312,-8.014 -4.312,-12.838 0,-11.811 9.574,-21.385 21.384,-21.385 4.263,0 8.225,1.262 11.559,3.412 -2.694,-3.578 -4.311,-8.014 -4.311,-12.838 0,-11.811 9.574,-21.385 21.384,-21.385 4.263,0 8.225,1.264 11.561,3.412 -2.695,-3.578 -4.312,-8.014 -4.312,-12.838 0,-11.811 9.574,-21.383 21.384,-21.383 4.263,0 8.225,1.262 11.56,3.412 -2.695,-3.578 -4.312,-8.016 -4.312,-12.84 0,-11.809 9.574,-21.383 21.384,-21.383 4.263,0 8.225,1.262 11.56,3.412 -2.695,-3.578 -4.312,-8.014 -4.312,-12.838 0,-11.811 9.574,-21.385 21.384,-21.385 11.811,0 21.384,9.574 21.384,21.385 0,4.824 -1.616,9.26 -4.312,12.838 3.336,-2.15 7.297,-3.412 11.56,-3.412 11.811,0 21.385,9.574 21.385,21.383 0,4.824 -1.617,9.262 -4.312,12.84 3.334,-2.15 7.295,-3.412 11.559,-3.412 11.811,0 21.385,9.572 21.385,21.383 0,4.824 -1.617,9.26 -4.313,12.838 3.336,-2.148 7.298,-3.412 11.56,-3.412 11.811,0 21.385,9.574 21.385,21.385 0,4.824 -1.616,9.26 -4.311,12.838 3.335,-2.15 7.297,-3.412 11.559,-3.412 11.811,0 21.384,9.574 21.384,21.385 0,4.824 -1.616,9.26 -4.312,12.838 3.335,-2.15 7.297,-3.412 11.562,-3.412 11.81,0 21.384,9.574 21.384,21.385 0,4.824 -1.617,9.26 -4.313,12.838 3.335,-2.15 7.298,-3.412 11.56,-3.412 11.811,0 21.385,9.574 21.385,21.383 0,4.824 -1.616,9.262 -4.312,12.84 3.335,-2.15 7.297,-3.412 11.56,-3.412 11.806,0 21.377,9.568 21.383,21.372" id="path2485" inkscape:connector-curvature="0" />
    <path style="fill:none;stroke:black;stroke-width:3;stroke-linejoin:round" d="m 577.034,579.622 c -3.441,-3.795 -5.557,-8.815 -5.557,-14.342 0,-4.824 1.616,-9.26 4.312,-12.838 -3.335,2.15 -7.298,3.41 -11.56,3.41 -11.811,0 -21.385,-9.572 -21.385,-21.383 0,-4.824 1.616,-9.26 4.313,-12.838 -3.336,2.15 -7.298,3.412 -11.561,3.412 -11.811,0 -21.384,-9.574 -21.384,-21.385 0,-4.824 1.617,-9.26 4.313,-12.838 -3.334,2.148 -7.298,3.412 -11.562,3.412 -11.811,0 -21.385,-9.574 -21.385,-21.385 0,-4.824 1.617,-9.26 4.313,-12.838 -3.335,2.15 -7.298,3.412 -11.56,3.412 -11.811,0 -21.384,-9.574 -21.384,-21.385 0,-4.824 1.616,-9.26 4.312,-12.838 -3.336,2.15 -7.297,3.412 -11.561,3.412 -11.81,0 -21.384,-9.574 -21.384,-21.383 0,-4.824 1.616,-9.261 4.312,-12.839 -3.335,2.149 -7.296,3.412 -11.56,3.412 -11.811,0 -21.384,-9.574 -21.384,-21.384 0,-4.825 1.618,-9.262 4.313,-12.839 -3.335,2.15 -7.297,3.412 -11.561,3.412 -11.81,0 -21.384,-9.574 -21.384,-21.383 0,-11.811 9.574,-21.384 21.384,-21.384 4.263,0 8.225,1.262 11.56,3.411 -2.694,-3.578 -4.312,-8.014 -4.312,-12.837 0,-11.81 9.573,-21.384 21.384,-21.384 4.264,0 8.225,1.262 11.56,3.412 -2.695,-3.578 -4.312,-8.014 -4.312,-12.838 0,-11.81 9.574,-21.384 21.384,-21.384 4.263,0 8.225,1.261 11.561,3.411 -2.695,-3.578 -4.312,-8.014 -4.312,-12.837 0,-11.81 9.573,-21.384 21.384,-21.384 4.262,0 8.225,1.262 11.56,3.411 -2.695,-3.578 -4.313,-8.014 -4.313,-12.837 0,-11.81 9.574,-21.384 21.385,-21.384 4.264,0 8.228,1.262 11.562,3.413 -2.695,-3.578 -4.313,-8.015 -4.313,-12.839 0,-11.81 9.573,-21.384 21.384,-21.384 4.264,0 8.225,1.262 11.561,3.412 -2.696,-3.578 -4.313,-8.014 -4.313,-12.838 0,-11.81 9.574,-21.384 21.385,-21.384 4.263,0 8.225,1.262 11.56,3.412 -2.695,-3.578 -4.312,-8.013 -4.312,-12.838 0,-11.81 9.574,-21.384 21.384,-21.384 3.079,0 5.995,0.667 8.637,1.841" id="path2487" inkscape:connector-curvature="0" />
    <path style="fill:none;stroke:black;stroke-width:3;stroke-linejoin:round" d="m 1.499,114.394 c 2.642,-1.175 5.559,-1.841 8.637,-1.841 11.809,0 21.384,9.574 21.384,21.383 0,4.825 -1.618,9.262 -4.313,12.84 3.336,-2.15 7.298,-3.413 11.562,-3.413 11.809,0 21.383,9.574 21.383,21.383 0,4.824 -1.617,9.26 -4.312,12.838 3.335,-2.15 7.297,-3.412 11.561,-3.412 11.809,0 21.384,9.575 21.384,21.384 0,4.824 -1.618,9.26 -4.313,12.838 3.336,-2.15 7.298,-3.412 11.561,-3.412 11.809,0 21.384,9.574 21.384,21.383 0,4.824 -1.617,9.26 -4.312,12.838 3.335,-2.15 7.296,-3.412 11.56,-3.412 11.81,0 21.384,9.575 21.384,21.384 0,4.824 -1.617,9.261 -4.313,12.839 3.335,-2.15 7.297,-3.412 11.562,-3.412 11.809,0 21.383,9.574 21.383,21.383 0,4.825 -1.617,9.261 -4.312,12.839 3.335,-2.15 7.298,-3.412 11.561,-3.412 11.809,0 21.383,9.575 21.383,21.384 0,4.824 -1.617,9.26 -4.312,12.838 3.335,-2.15 7.297,-3.412 11.561,-3.412 11.809,0 21.383,9.575 21.383,21.384 0,11.809 -9.574,21.384 -21.383,21.384 -4.264,0 -8.226,-1.262 -11.561,-3.412 2.695,3.577 4.312,8.014 4.312,12.838 0,11.809 -9.574,21.384 -21.383,21.384 -4.263,0 -8.226,-1.263 -11.561,-3.412 2.695,3.578 4.312,8.014 4.312,12.839 0,11.809 -9.574,21.383 -21.383,21.383 -4.265,0 -8.227,-1.262 -11.562,-3.412 2.696,3.578 4.313,8.014 4.313,12.838 0,11.811 -9.575,21.385 -21.384,21.385 -4.263,0 -8.225,-1.262 -11.56,-3.412 2.694,3.578 4.312,8.014 4.312,12.838 0,11.811 -9.575,21.383 -21.384,21.383 -4.263,0 -8.225,-1.262 -11.561,-3.41 2.695,3.578 4.313,8.014 4.313,12.838 0,11.809 -9.575,21.383 -21.384,21.383 -4.264,0 -8.226,-1.26 -11.561,-3.41 2.695,3.578 4.312,8.014 4.312,12.838 0,11.809 -9.574,21.383 -21.383,21.383 -4.264,0 -8.226,-1.262 -11.562,-3.412 2.696,3.578 4.313,8.014 4.313,12.84 0,5.526 -2.115,10.547 -5.557,14.343" id="path2489" inkscape:connector-curvature="0" />
    <path style="fill:none;stroke:black;stroke-width:3;stroke-linejoin:round" d="m 1.499,95.6 c 0.883,2.344 1.389,4.873 1.389,7.526 0,2.65 -0.502,5.175 -1.389,7.513" id="path2491" inkscape:connector-curvature="0" />
    <path style="fill:none;stroke:black;stroke-width:3;stroke-linejoin:round" d="m 601.498,110.638 c -0.886,-2.337 -1.389,-4.863 -1.389,-7.512 0,-2.653 0.506,-5.182 1.389,-7.526" id="path2493" inkscape:connector-curvature="0" />
    <path style="fill:none;stroke:black;stroke-width:3;stroke-linejoin:round" d="m 551.595,1.501 c 0.221,1.224 0.344,2.482 0.344,3.77 0,11.81 -9.574,21.383 -21.385,21.383 -4.262,0 -8.225,-1.262 -11.56,-3.411 2.695,3.578 4.312,8.014 4.312,12.838 0,11.81 -9.574,21.384 -21.384,21.384 -4.263,0 -8.225,-1.262 -11.56,-3.412 2.695,3.578 4.312,8.014 4.312,12.838 0,11.81 -9.574,21.384 -21.385,21.384 -4.262,0 -8.225,-1.262 -11.56,-3.411 2.695,3.577 4.313,8.013 4.313,12.837 0,11.81 -9.574,21.384 -21.384,21.384 -4.265,0 -8.227,-1.262 -11.563,-3.413 2.696,3.578 4.313,8.014 4.313,12.839 0,11.81 -9.573,21.384 -21.384,21.384 -4.262,0 -8.225,-1.262 -11.56,-3.412 2.695,3.578 4.312,8.013 4.312,12.838 0,11.81 -9.574,21.384 -21.385,21.384 -4.263,0 -8.224,-1.262 -11.56,-3.412 2.695,3.578 4.313,8.014 4.313,12.838 0,11.81 -9.574,21.384 -21.385,21.384 -4.264,0 -8.225,-1.262 -11.559,-3.412 2.694,3.579 4.312,8.014 4.312,12.838 0,11.81 -9.574,21.384 -21.385,21.384 -4.262,0 -8.224,-1.262 -11.56,-3.412 2.695,3.578 4.312,8.014 4.312,12.837 0,11.81 -9.573,21.384 -21.384,21.384 -11.81,0 -21.384,-9.574 -21.384,-21.384 0,-4.824 1.617,-9.26 4.312,-12.838 -3.335,2.15 -7.296,3.412 -11.56,3.412 -11.811,0 -21.384,-9.575 -21.384,-21.384 0,-4.824 1.616,-9.26 4.312,-12.838 -3.335,2.15 -7.297,3.412 -11.56,3.412 -11.81,0 -21.384,-9.574 -21.384,-21.384 0,-4.824 1.617,-9.26 4.313,-12.839 -3.335,2.151 -7.298,3.413 -11.561,3.413 -11.81,0 -21.384,-9.574 -21.384,-21.384 0,-4.825 1.616,-9.26 4.311,-12.838 -3.335,2.149 -7.296,3.412 -11.56,3.412 -11.81,0 -21.384,-9.574 -21.384,-21.384 0,-4.824 1.617,-9.26 4.312,-12.838 -3.335,2.149 -7.297,3.412 -11.56,3.412 -11.81,0 -21.384,-9.574 -21.384,-21.384 0,-4.825 1.617,-9.26 4.312,-12.837 -3.335,2.149 -7.297,3.411 -11.56,3.411 -11.81,0 -21.385,-9.574 -21.385,-21.384 0,-4.824 1.617,-9.261 4.313,-12.839 -3.336,2.15 -7.298,3.413 -11.561,3.413 -11.811,0 -21.384,-9.575 -21.384,-21.384 0,-4.824 1.617,-9.26 4.312,-12.838 -3.335,2.149 -7.297,3.411 -11.56,3.411 -11.811,0 -21.384,-9.574 -21.384,-21.383 0,-1.288 0.124,-2.546 0.344,-3.77" id="path2495" inkscape:connector-curvature="0" />
  </g>
  <g inkscape:groupmode="layer" id="layer3" inkscape:label="Reflet final" style="display:inline" sodipodi:insensitive="true">
    <path style="fill:url(#radialGradient3236);fill-opacity:1" d="m 1.5,1.5 0,458.8679 C 1.5,626.67854 135.81454,761.5 301.49993,761.5 467.1854,761.5 601.5,626.67854 601.5,460.3679 L 601.5,1.5 1.5,1.5 z" id="path2346" inkscape:connector-curvature="0" />
  </g>
  <g inkscape:groupmode="layer" id="layer4" inkscape:label="Contour final" style="display:inline" sodipodi:insensitive="true">
    <path style="fill:none;stroke:black;stroke-width:3;stroke-miterlimit:4;stroke-opacity:1;stroke-dasharray:none" d="m 1.5,1.5 0,458.86794 C 1.5,626.67854 135.81454,761.5 301.49993,761.5 467.1854,761.5 601.5,626.67854 601.5,460.36794 L 601.5,1.5 1.5,1.5 z" id="path3239" inkscape:connector-curvature="0" />
  </g>
</svg>
